G04 #@! TF.GenerationSoftware,KiCad,Pcbnew,7.0.8*
G04 #@! TF.CreationDate,2023-12-20T18:07:39+01:00*
G04 #@! TF.ProjectId,sx1255_eval,73783132-3535-45f6-9576-616c2e6b6963,rev?*
G04 #@! TF.SameCoordinates,Original*
G04 #@! TF.FileFunction,Copper,L1,Top*
G04 #@! TF.FilePolarity,Positive*
%FSLAX46Y46*%
G04 Gerber Fmt 4.6, Leading zero omitted, Abs format (unit mm)*
G04 Created by KiCad (PCBNEW 7.0.8) date 2023-12-20 18:07:39*
%MOMM*%
%LPD*%
G01*
G04 APERTURE LIST*
G04 Aperture macros list*
%AMRoundRect*
0 Rectangle with rounded corners*
0 $1 Rounding radius*
0 $2 $3 $4 $5 $6 $7 $8 $9 X,Y pos of 4 corners*
0 Add a 4 corners polygon primitive as box body*
4,1,4,$2,$3,$4,$5,$6,$7,$8,$9,$2,$3,0*
0 Add four circle primitives for the rounded corners*
1,1,$1+$1,$2,$3*
1,1,$1+$1,$4,$5*
1,1,$1+$1,$6,$7*
1,1,$1+$1,$8,$9*
0 Add four rect primitives between the rounded corners*
20,1,$1+$1,$2,$3,$4,$5,0*
20,1,$1+$1,$4,$5,$6,$7,0*
20,1,$1+$1,$6,$7,$8,$9,0*
20,1,$1+$1,$8,$9,$2,$3,0*%
G04 Aperture macros list end*
G04 #@! TA.AperFunction,SMDPad,CuDef*
%ADD10R,0.850000X0.300000*%
G04 #@! TD*
G04 #@! TA.AperFunction,SMDPad,CuDef*
%ADD11R,0.300000X0.850000*%
G04 #@! TD*
G04 #@! TA.AperFunction,SMDPad,CuDef*
%ADD12R,3.200000X3.200000*%
G04 #@! TD*
G04 #@! TA.AperFunction,SMDPad,CuDef*
%ADD13RoundRect,0.218750X0.256250X-0.218750X0.256250X0.218750X-0.256250X0.218750X-0.256250X-0.218750X0*%
G04 #@! TD*
G04 #@! TA.AperFunction,SMDPad,CuDef*
%ADD14RoundRect,0.200000X-0.200000X-0.275000X0.200000X-0.275000X0.200000X0.275000X-0.200000X0.275000X0*%
G04 #@! TD*
G04 #@! TA.AperFunction,ComponentPad*
%ADD15R,1.700000X1.700000*%
G04 #@! TD*
G04 #@! TA.AperFunction,ComponentPad*
%ADD16O,1.700000X1.700000*%
G04 #@! TD*
G04 #@! TA.AperFunction,SMDPad,CuDef*
%ADD17R,3.600000X1.270000*%
G04 #@! TD*
G04 #@! TA.AperFunction,SMDPad,CuDef*
%ADD18R,4.200000X1.350000*%
G04 #@! TD*
G04 #@! TA.AperFunction,SMDPad,CuDef*
%ADD19RoundRect,0.225000X-0.225000X-0.250000X0.225000X-0.250000X0.225000X0.250000X-0.225000X0.250000X0*%
G04 #@! TD*
G04 #@! TA.AperFunction,SMDPad,CuDef*
%ADD20RoundRect,0.200000X0.275000X-0.200000X0.275000X0.200000X-0.275000X0.200000X-0.275000X-0.200000X0*%
G04 #@! TD*
G04 #@! TA.AperFunction,SMDPad,CuDef*
%ADD21RoundRect,0.225000X-0.250000X0.225000X-0.250000X-0.225000X0.250000X-0.225000X0.250000X0.225000X0*%
G04 #@! TD*
G04 #@! TA.AperFunction,SMDPad,CuDef*
%ADD22RoundRect,0.225000X0.250000X-0.225000X0.250000X0.225000X-0.250000X0.225000X-0.250000X-0.225000X0*%
G04 #@! TD*
G04 #@! TA.AperFunction,ViaPad*
%ADD23C,0.600000*%
G04 #@! TD*
G04 #@! TA.AperFunction,Conductor*
%ADD24C,0.300000*%
G04 #@! TD*
G04 #@! TA.AperFunction,Conductor*
%ADD25C,0.250000*%
G04 #@! TD*
G04 APERTURE END LIST*
D10*
X148326000Y-96000000D03*
X148326000Y-95500000D03*
X148326000Y-95000000D03*
X148326000Y-94500000D03*
X148326000Y-94000000D03*
X148326000Y-93500000D03*
X148326000Y-93000000D03*
X148326000Y-92500000D03*
D11*
X147626000Y-91800000D03*
X147126000Y-91800000D03*
X146626000Y-91800000D03*
X146126000Y-91800000D03*
X145626000Y-91800000D03*
X145126000Y-91800000D03*
X144626000Y-91800000D03*
X144126000Y-91800000D03*
D10*
X143426000Y-92500000D03*
X143426000Y-93000000D03*
X143426000Y-93500000D03*
X143426000Y-94000000D03*
X143426000Y-94500000D03*
X143426000Y-95000000D03*
X143426000Y-95500000D03*
X143426000Y-96000000D03*
D11*
X144126000Y-96700000D03*
X144626000Y-96700000D03*
X145126000Y-96700000D03*
X145626000Y-96700000D03*
X146126000Y-96700000D03*
X146626000Y-96700000D03*
X147126000Y-96700000D03*
X147626000Y-96700000D03*
D12*
X145876000Y-94250000D03*
D13*
X145114000Y-102245500D03*
X145114000Y-100670500D03*
D14*
X136669000Y-91806000D03*
X138319000Y-91806000D03*
D13*
X143590000Y-102245500D03*
X143590000Y-100670500D03*
D15*
X131144000Y-111872000D03*
D16*
X128604000Y-111872000D03*
X131144000Y-109332000D03*
X128604000Y-109332000D03*
X131144000Y-106792000D03*
X128604000Y-106792000D03*
X131144000Y-104252000D03*
X128604000Y-104252000D03*
X131144000Y-101712000D03*
X128604000Y-101712000D03*
X131144000Y-99172000D03*
X128604000Y-99172000D03*
D17*
X162852000Y-80500000D03*
D18*
X162652000Y-83325000D03*
X162652000Y-77675000D03*
D19*
X153229000Y-99426000D03*
X154779000Y-99426000D03*
D17*
X162852000Y-107500000D03*
D18*
X162652000Y-110325000D03*
X162652000Y-104675000D03*
D20*
X144860000Y-87805000D03*
X144860000Y-86155000D03*
D15*
X151210000Y-76312000D03*
D16*
X148670000Y-76312000D03*
X146130000Y-76312000D03*
D21*
X146638000Y-100683000D03*
X146638000Y-102233000D03*
X151210000Y-100683000D03*
X151210000Y-102233000D03*
D20*
X141812000Y-87805000D03*
X141812000Y-86155000D03*
D22*
X140288000Y-87755000D03*
X140288000Y-86205000D03*
D14*
X136669000Y-93330000D03*
X138319000Y-93330000D03*
D21*
X149686000Y-100683000D03*
X149686000Y-102233000D03*
D15*
X131144000Y-89012000D03*
D16*
X128604000Y-89012000D03*
X131144000Y-86472000D03*
X128604000Y-86472000D03*
X131144000Y-83932000D03*
X128604000Y-83932000D03*
X131144000Y-81392000D03*
X128604000Y-81392000D03*
X131144000Y-78852000D03*
X128604000Y-78852000D03*
X131144000Y-76312000D03*
X128604000Y-76312000D03*
D20*
X147908000Y-87805000D03*
X147908000Y-86155000D03*
X149432000Y-87805000D03*
X149432000Y-86155000D03*
D21*
X148162000Y-100683000D03*
X148162000Y-102233000D03*
D19*
X153229000Y-94854000D03*
X154779000Y-94854000D03*
X153229000Y-96378000D03*
X154779000Y-96378000D03*
D21*
X142066000Y-100683000D03*
X142066000Y-102233000D03*
D19*
X153229000Y-97902000D03*
X154779000Y-97902000D03*
D20*
X146384000Y-87805000D03*
X146384000Y-86155000D03*
D14*
X136669000Y-94854000D03*
X138319000Y-94854000D03*
D22*
X138764000Y-87755000D03*
X138764000Y-86205000D03*
D20*
X143336000Y-87805000D03*
X143336000Y-86155000D03*
D19*
X153229000Y-93330000D03*
X154779000Y-93330000D03*
D17*
X162852000Y-94000000D03*
D18*
X162652000Y-96825000D03*
X162652000Y-91175000D03*
D23*
X150956000Y-96378000D03*
X148797000Y-98537000D03*
X142066000Y-91298000D03*
X156826467Y-105213043D03*
X156036000Y-94854000D03*
X158622836Y-81500000D03*
X137240000Y-85202000D03*
X135970000Y-90028000D03*
X162640000Y-76058000D03*
X156511385Y-108500000D03*
X157985575Y-94171573D03*
X157568154Y-108500000D03*
X161370000Y-84948000D03*
X130890000Y-90536000D03*
X141050000Y-91552000D03*
X152988000Y-77328000D03*
X138764000Y-85202000D03*
X146335200Y-104624460D03*
X133938000Y-90536000D03*
X162640000Y-112126000D03*
X133176000Y-110602000D03*
X156814000Y-99380000D03*
X154764935Y-103761204D03*
X155454616Y-108500000D03*
X156815205Y-96950932D03*
X152488000Y-105760000D03*
X145114000Y-93330000D03*
X155454616Y-106500000D03*
X149940000Y-93076000D03*
X145876000Y-94250000D03*
X147400000Y-79868000D03*
X146638000Y-93330000D03*
X134954000Y-98156000D03*
X136732000Y-96378000D03*
X154766000Y-100696000D03*
X161370000Y-89520000D03*
X162640000Y-98410000D03*
X145114000Y-95108000D03*
X144098000Y-76566000D03*
X152988000Y-75312000D03*
X150448000Y-98918000D03*
X162640000Y-89520000D03*
X146927584Y-107991611D03*
X153242000Y-100696000D03*
X146130000Y-103744000D03*
X156755371Y-77268157D03*
X126572000Y-86472000D03*
X139780000Y-90536000D03*
X126572000Y-78852000D03*
X147989537Y-106278799D03*
X156814000Y-100570000D03*
X163910000Y-84948000D03*
X142066000Y-103490000D03*
X152226000Y-88504000D03*
X128604000Y-95616000D03*
X139272000Y-100950000D03*
X150211065Y-103761204D03*
X149940000Y-79868000D03*
X133176000Y-109332000D03*
X146993531Y-105620467D03*
X152226000Y-85333692D03*
X162640000Y-102982000D03*
X155880255Y-105612772D03*
X133938000Y-106284000D03*
X126572000Y-108062000D03*
X144251488Y-104645743D03*
X155466022Y-78807236D03*
X161370000Y-102982000D03*
X151718000Y-97394000D03*
X163910000Y-98410000D03*
X151464000Y-78598000D03*
X142828000Y-97394000D03*
X155267475Y-75780261D03*
X157360961Y-94987534D03*
X158814000Y-100570000D03*
X152488000Y-103760000D03*
X158624924Y-106500000D03*
X158243267Y-78756053D03*
X151325000Y-105760000D03*
X146638000Y-95108000D03*
X156213640Y-79554854D03*
X126572000Y-75042000D03*
X156036000Y-97902000D03*
X159681693Y-106500000D03*
X156961257Y-80302471D03*
X150194000Y-81138000D03*
X137494000Y-102728000D03*
X158812795Y-97049068D03*
X153341077Y-106500000D03*
X158814000Y-99380000D03*
X126572000Y-87742000D03*
X156011423Y-76524209D03*
X156511385Y-106500000D03*
X133176000Y-85202000D03*
X148040680Y-104881321D03*
X149114000Y-106500000D03*
X132414000Y-92060000D03*
X154366304Y-75312000D03*
X163910000Y-89520000D03*
X152226000Y-89560769D03*
X133176000Y-108062000D03*
X152226000Y-87447230D03*
X133176000Y-87742000D03*
X152226000Y-90617538D03*
X152226000Y-84276923D03*
X152988000Y-78598000D03*
X151227539Y-106500000D03*
X135716000Y-104506000D03*
X126572000Y-77582000D03*
X153341077Y-108500000D03*
X156814000Y-98190000D03*
X162640000Y-84948000D03*
X149114000Y-108500000D03*
X159829739Y-95262419D03*
X147400000Y-78598000D03*
X153651000Y-105760000D03*
X159076417Y-96015741D03*
X150170770Y-106500000D03*
X152226000Y-83220153D03*
X153651000Y-103760000D03*
X156036000Y-93330000D03*
X158814000Y-98190000D03*
X156551585Y-102744263D03*
X157499319Y-78012105D03*
X130890000Y-93584000D03*
X161370000Y-98410000D03*
X143844000Y-99426000D03*
X154397847Y-108500000D03*
X163910000Y-102982000D03*
X155798263Y-103497585D03*
X156961232Y-95933744D03*
X157568154Y-106500000D03*
X153242000Y-92060000D03*
X159681693Y-108500000D03*
X126572000Y-110602000D03*
X154718404Y-78059618D03*
X150112935Y-105758796D03*
X145210411Y-106622028D03*
X133176000Y-99934000D03*
X149940000Y-78598000D03*
X163910000Y-112126000D03*
X145991977Y-107403593D03*
X151227539Y-108500000D03*
X143590000Y-103490000D03*
X126572000Y-76312000D03*
X135208000Y-85964000D03*
X151210000Y-82154000D03*
X156036000Y-96378000D03*
X154766000Y-92060000D03*
X128604000Y-91552000D03*
X154397847Y-106500000D03*
X158987214Y-79500000D03*
X126572000Y-109332000D03*
X126572000Y-85202000D03*
X147400032Y-103930608D03*
X148670000Y-97140000D03*
X158812796Y-101809065D03*
X151325000Y-103760000D03*
X157642428Y-104588428D03*
X161370000Y-76058000D03*
X146130000Y-78598000D03*
X157708875Y-81050089D03*
X128604000Y-93584000D03*
X158267043Y-103772467D03*
X158666772Y-102826255D03*
X152284308Y-108500000D03*
X133176000Y-86472000D03*
X153970786Y-77312000D03*
X158801536Y-93546959D03*
X158624924Y-108500000D03*
X137240000Y-86726000D03*
X147968263Y-108362514D03*
X156815204Y-101710935D03*
X159846000Y-79500000D03*
X150170770Y-108500000D03*
X148991393Y-105521971D03*
X163910000Y-76058000D03*
X140288000Y-85202000D03*
X141050000Y-99172000D03*
X152226000Y-86390461D03*
X159747747Y-93147231D03*
X144622392Y-105686422D03*
X151210000Y-91806000D03*
X156036000Y-99426000D03*
X152284308Y-106500000D03*
X159846000Y-81500000D03*
X154814000Y-105760000D03*
X161370000Y-112126000D03*
X138764000Y-89266000D03*
D24*
X149686000Y-100683000D02*
X149686000Y-99426000D01*
X150956000Y-96378000D02*
X153229000Y-96378000D01*
X138764000Y-87755000D02*
X140288000Y-87755000D01*
X142580000Y-91800000D02*
X142078000Y-91298000D01*
X144126000Y-91800000D02*
X142580000Y-91800000D01*
X131144000Y-89012000D02*
X134700000Y-89012000D01*
X135957000Y-87755000D02*
X138764000Y-87755000D01*
X151210000Y-100683000D02*
X149686000Y-100683000D01*
X142066000Y-91298000D02*
X140288000Y-89520000D01*
X134700000Y-89012000D02*
X135957000Y-87755000D01*
X140288000Y-89520000D02*
X140288000Y-87755000D01*
X153229000Y-97902000D02*
X153229000Y-96378000D01*
X142078000Y-91298000D02*
X142066000Y-91298000D01*
X150078000Y-95500000D02*
X148326000Y-95500000D01*
X149686000Y-99426000D02*
X148797000Y-98537000D01*
X148797000Y-98537000D02*
X147626000Y-97366000D01*
X147626000Y-97366000D02*
X147626000Y-96700000D01*
X150956000Y-96378000D02*
X150078000Y-95500000D01*
X147126000Y-95596000D02*
X146638000Y-95108000D01*
X146968000Y-93000000D02*
X146638000Y-93330000D01*
X148326000Y-93000000D02*
X146968000Y-93000000D01*
X149864000Y-93000000D02*
X149940000Y-93076000D01*
X147126000Y-96700000D02*
X147126000Y-95596000D01*
X148326000Y-94500000D02*
X146126000Y-94500000D01*
X146126000Y-94500000D02*
X145876000Y-94250000D01*
X145626000Y-96700000D02*
X145626000Y-94500000D01*
X144626000Y-95596000D02*
X145114000Y-95108000D01*
X144626000Y-96700000D02*
X144626000Y-95596000D01*
X145626000Y-94500000D02*
X145876000Y-94250000D01*
X148326000Y-93000000D02*
X149864000Y-93000000D01*
X149054000Y-96000000D02*
X148326000Y-96000000D01*
X152480000Y-99426000D02*
X149054000Y-96000000D01*
X153229000Y-99426000D02*
X152480000Y-99426000D01*
X152226000Y-94854000D02*
X152080000Y-95000000D01*
X152080000Y-95000000D02*
X148326000Y-95000000D01*
X153229000Y-94854000D02*
X152226000Y-94854000D01*
X153229000Y-93330000D02*
X152226000Y-93330000D01*
X151556000Y-94000000D02*
X148326000Y-94000000D01*
X152226000Y-93330000D02*
X151556000Y-94000000D01*
X146626000Y-97890000D02*
X146626000Y-96700000D01*
X148162000Y-99426000D02*
X146626000Y-97890000D01*
X148162000Y-100708500D02*
X148162000Y-99426000D01*
X146638000Y-99426000D02*
X146126000Y-98914000D01*
X146638000Y-100708500D02*
X146638000Y-99426000D01*
X146126000Y-98914000D02*
X146126000Y-96700000D01*
X144126000Y-97366000D02*
X144126000Y-96700000D01*
X142066000Y-99426000D02*
X144126000Y-97366000D01*
X142066000Y-100708500D02*
X142066000Y-99426000D01*
X148670000Y-81138000D02*
X148670000Y-76312000D01*
X151210000Y-90282000D02*
X151210000Y-83678000D01*
X148326000Y-92500000D02*
X148992000Y-92500000D01*
X151210000Y-83678000D02*
X148670000Y-81138000D01*
X148992000Y-92500000D02*
X151210000Y-90282000D01*
X150448000Y-84694000D02*
X142066000Y-76312000D01*
X147626000Y-91800000D02*
X147626000Y-91326000D01*
X142066000Y-76312000D02*
X131144000Y-76312000D01*
X150448000Y-88504000D02*
X150448000Y-84694000D01*
X147626000Y-91326000D02*
X150448000Y-88504000D01*
X149432000Y-88504000D02*
X147126000Y-90810000D01*
X149432000Y-88504000D02*
X149432000Y-87805000D01*
X147126000Y-90810000D02*
X147126000Y-91800000D01*
X146626000Y-89786000D02*
X146626000Y-91800000D01*
X147908000Y-88504000D02*
X146626000Y-89786000D01*
X147908000Y-88504000D02*
X147908000Y-87805000D01*
X146384000Y-87805000D02*
X146384000Y-88504000D01*
X146126000Y-91800000D02*
X146126000Y-88762000D01*
X146380000Y-87809000D02*
X146384000Y-87805000D01*
X146126000Y-88762000D02*
X146384000Y-88504000D01*
X145626000Y-89270000D02*
X144860000Y-88504000D01*
X145626000Y-91800000D02*
X145626000Y-89270000D01*
X144860000Y-88504000D02*
X144860000Y-87805000D01*
X143336000Y-88504000D02*
X143336000Y-87805000D01*
X145126000Y-91800000D02*
X145126000Y-90294000D01*
X145126000Y-90294000D02*
X143336000Y-88504000D01*
X144626000Y-91800000D02*
X144626000Y-91230024D01*
X144626000Y-91230024D02*
X141812000Y-88416024D01*
X141812000Y-88416024D02*
X141812000Y-87805000D01*
X138387000Y-91738000D02*
X138319000Y-91806000D01*
X140474000Y-92500000D02*
X139780000Y-91806000D01*
X139780000Y-91806000D02*
X138319000Y-91806000D01*
X143426000Y-92500000D02*
X140474000Y-92500000D01*
X140110000Y-93000000D02*
X139780000Y-93330000D01*
X139780000Y-93330000D02*
X138319000Y-93330000D01*
X143426000Y-93000000D02*
X140110000Y-93000000D01*
X140753000Y-93500000D02*
X139399000Y-94854000D01*
X143426000Y-93500000D02*
X140753000Y-93500000D01*
X139399000Y-94854000D02*
X138319000Y-94854000D01*
X141650000Y-94000000D02*
X133938000Y-101712000D01*
X143426000Y-94000000D02*
X141650000Y-94000000D01*
X133938000Y-101712000D02*
X131144000Y-101712000D01*
X133430000Y-102982000D02*
X129874000Y-102982000D01*
X141912000Y-94500000D02*
X133430000Y-102982000D01*
X129874000Y-102982000D02*
X128604000Y-104252000D01*
X143426000Y-94500000D02*
X141912000Y-94500000D01*
X143426000Y-95000000D02*
X142174000Y-95000000D01*
X132922000Y-104252000D02*
X131144000Y-104252000D01*
X142174000Y-95000000D02*
X132922000Y-104252000D01*
X132414000Y-105522000D02*
X129874000Y-105522000D01*
X129874000Y-105522000D02*
X128604000Y-106792000D01*
X143426000Y-95500000D02*
X142436000Y-95500000D01*
X142436000Y-95500000D02*
X132414000Y-105522000D01*
X132668000Y-106030000D02*
X132668000Y-106538000D01*
X132414000Y-106792000D02*
X131144000Y-106792000D01*
X143426000Y-96000000D02*
X142698000Y-96000000D01*
X142698000Y-96000000D02*
X132668000Y-106030000D01*
X132668000Y-106538000D02*
X132414000Y-106792000D01*
X145114000Y-100696000D02*
X145126000Y-100684000D01*
X143590000Y-100696000D02*
X145114000Y-100696000D01*
X145126000Y-100684000D02*
X145126000Y-96700000D01*
X149432000Y-85202000D02*
X141812000Y-77582000D01*
X141812000Y-77582000D02*
X129874000Y-77582000D01*
X129874000Y-77582000D02*
X128604000Y-78852000D01*
X149432000Y-86155000D02*
X149432000Y-85202000D01*
X147908000Y-86155000D02*
X147908000Y-85202000D01*
X141558000Y-78852000D02*
X131144000Y-78852000D01*
X147908000Y-85202000D02*
X141558000Y-78852000D01*
X146384000Y-85202000D02*
X141304000Y-80122000D01*
X129874000Y-80122000D02*
X128604000Y-81392000D01*
X141304000Y-80122000D02*
X129874000Y-80122000D01*
X146384000Y-86155000D02*
X146384000Y-85202000D01*
X144860000Y-85456000D02*
X140796000Y-81392000D01*
X140796000Y-81392000D02*
X131144000Y-81392000D01*
X144860000Y-86155000D02*
X144860000Y-85456000D01*
X143336000Y-85456000D02*
X140542000Y-82662000D01*
X140542000Y-82662000D02*
X129874000Y-82662000D01*
X129874000Y-82662000D02*
X128604000Y-83932000D01*
X143336000Y-86155000D02*
X143336000Y-85456000D01*
X136669000Y-94854000D02*
X135462000Y-94854000D01*
X135462000Y-94854000D02*
X131144000Y-99172000D01*
X141812000Y-86155000D02*
X141812000Y-85456000D01*
X140288000Y-83932000D02*
X131144000Y-83932000D01*
X141812000Y-85456000D02*
X140288000Y-83932000D01*
X129874000Y-98410000D02*
X129874000Y-100442000D01*
X129874000Y-100442000D02*
X128604000Y-101712000D01*
X134954000Y-93330000D02*
X129874000Y-98410000D01*
X136669000Y-93330000D02*
X134954000Y-93330000D01*
X136669000Y-91806000D02*
X134446000Y-91806000D01*
X134446000Y-91806000D02*
X128604000Y-97648000D01*
X128604000Y-97648000D02*
X128604000Y-99172000D01*
X154385000Y-76312000D02*
X151210000Y-76312000D01*
X162852000Y-80500000D02*
X158573000Y-80500000D01*
X158573000Y-80500000D02*
X154385000Y-76312000D01*
X144860000Y-75042000D02*
X146130000Y-76312000D01*
X128604000Y-76312000D02*
X129874000Y-75042000D01*
X129874000Y-75042000D02*
X144860000Y-75042000D01*
D25*
X160814000Y-94000000D02*
X162852000Y-94000000D01*
X154814000Y-104760000D02*
X150162000Y-104760000D01*
X157814000Y-97000000D02*
X157814000Y-101760000D01*
X148162000Y-102760000D02*
X148162000Y-102233000D01*
X154814000Y-104760000D02*
G75*
G03*
X157814000Y-101760000I0J3000000D01*
G01*
X148162000Y-102760000D02*
G75*
G03*
X150162000Y-104760000I2000000J0D01*
G01*
X160814000Y-94000000D02*
G75*
G03*
X157814000Y-97000000I0J-3000000D01*
G01*
X145114000Y-103500000D02*
X145114000Y-102245500D01*
X149114000Y-107500000D02*
X162852000Y-107500000D01*
X145114000Y-103500000D02*
G75*
G03*
X149114000Y-107500000I4000000J0D01*
G01*
G04 #@! TA.AperFunction,Conductor*
G36*
X164694539Y-73520185D02*
G01*
X164740294Y-73572989D01*
X164751500Y-73624500D01*
X164751500Y-76376000D01*
X164731815Y-76443039D01*
X164679011Y-76488794D01*
X164627500Y-76500000D01*
X162902000Y-76500000D01*
X162902000Y-78850000D01*
X164627500Y-78850000D01*
X164694539Y-78869685D01*
X164740294Y-78922489D01*
X164751500Y-78974000D01*
X164751500Y-79490500D01*
X164731815Y-79557539D01*
X164679011Y-79603294D01*
X164627500Y-79614500D01*
X161027323Y-79614500D01*
X160954264Y-79629032D01*
X160954260Y-79629033D01*
X160871399Y-79684399D01*
X160816033Y-79767260D01*
X160816032Y-79767264D01*
X160801500Y-79840321D01*
X160801500Y-79975500D01*
X160781815Y-80042539D01*
X160729011Y-80088294D01*
X160677500Y-80099500D01*
X158790254Y-80099500D01*
X158723215Y-80079815D01*
X158702573Y-80063181D01*
X156564393Y-77925000D01*
X160052000Y-77925000D01*
X160052000Y-78397844D01*
X160058401Y-78457372D01*
X160058403Y-78457379D01*
X160108645Y-78592086D01*
X160108649Y-78592093D01*
X160194809Y-78707187D01*
X160194812Y-78707190D01*
X160309906Y-78793350D01*
X160309913Y-78793354D01*
X160444620Y-78843596D01*
X160444627Y-78843598D01*
X160504155Y-78849999D01*
X160504172Y-78850000D01*
X162402000Y-78850000D01*
X162402000Y-77925000D01*
X160052000Y-77925000D01*
X156564393Y-77925000D01*
X156064393Y-77425000D01*
X160052000Y-77425000D01*
X162402000Y-77425000D01*
X162402000Y-76500000D01*
X160504155Y-76500000D01*
X160444627Y-76506401D01*
X160444620Y-76506403D01*
X160309913Y-76556645D01*
X160309906Y-76556649D01*
X160194812Y-76642809D01*
X160194809Y-76642812D01*
X160108649Y-76757906D01*
X160108645Y-76757913D01*
X160058403Y-76892620D01*
X160058401Y-76892627D01*
X160052000Y-76952155D01*
X160052000Y-77425000D01*
X156064393Y-77425000D01*
X154644287Y-76004893D01*
X154644256Y-76004864D01*
X154623342Y-75983950D01*
X154623341Y-75983949D01*
X154603600Y-75973890D01*
X154587014Y-75963726D01*
X154569090Y-75950704D01*
X154569091Y-75950704D01*
X154548018Y-75943857D01*
X154530045Y-75936412D01*
X154510307Y-75926355D01*
X154510304Y-75926354D01*
X154488418Y-75922887D01*
X154469507Y-75918346D01*
X154448439Y-75911501D01*
X154448434Y-75911500D01*
X154448433Y-75911500D01*
X154448429Y-75911500D01*
X152434500Y-75911500D01*
X152367461Y-75891815D01*
X152321706Y-75839011D01*
X152310500Y-75787500D01*
X152310500Y-75437323D01*
X152310499Y-75437321D01*
X152295967Y-75364264D01*
X152295966Y-75364260D01*
X152240601Y-75281399D01*
X152157740Y-75226034D01*
X152157739Y-75226033D01*
X152157735Y-75226032D01*
X152084677Y-75211500D01*
X152084674Y-75211500D01*
X150335326Y-75211500D01*
X150335323Y-75211500D01*
X150262264Y-75226032D01*
X150262260Y-75226033D01*
X150179399Y-75281399D01*
X150124033Y-75364260D01*
X150124032Y-75364264D01*
X150109500Y-75437321D01*
X150109500Y-77186678D01*
X150124032Y-77259735D01*
X150124033Y-77259739D01*
X150135243Y-77276516D01*
X150179399Y-77342601D01*
X150262260Y-77397966D01*
X150262264Y-77397967D01*
X150335321Y-77412499D01*
X150335324Y-77412500D01*
X150335326Y-77412500D01*
X152084676Y-77412500D01*
X152084677Y-77412499D01*
X152157740Y-77397966D01*
X152240601Y-77342601D01*
X152295966Y-77259740D01*
X152310500Y-77186674D01*
X152310500Y-76836500D01*
X152330185Y-76769461D01*
X152382989Y-76723706D01*
X152434500Y-76712500D01*
X154167745Y-76712500D01*
X154234784Y-76732185D01*
X154255426Y-76748819D01*
X158244950Y-80738342D01*
X158334658Y-80828050D01*
X158354395Y-80838106D01*
X158370981Y-80848269D01*
X158388910Y-80861296D01*
X158388912Y-80861296D01*
X158388913Y-80861297D01*
X158409974Y-80868140D01*
X158427953Y-80875586D01*
X158447696Y-80885646D01*
X158469585Y-80889112D01*
X158488501Y-80893653D01*
X158509567Y-80900499D01*
X158538924Y-80900499D01*
X158538948Y-80900500D01*
X158541481Y-80900500D01*
X160677500Y-80900500D01*
X160744539Y-80920185D01*
X160790294Y-80972989D01*
X160801500Y-81024500D01*
X160801500Y-81159678D01*
X160816032Y-81232735D01*
X160816033Y-81232739D01*
X160816034Y-81232740D01*
X160871399Y-81315601D01*
X160951499Y-81369121D01*
X160954260Y-81370966D01*
X160954264Y-81370967D01*
X161027321Y-81385499D01*
X161027324Y-81385500D01*
X164627500Y-81385500D01*
X164694539Y-81405185D01*
X164740294Y-81457989D01*
X164751500Y-81509500D01*
X164751500Y-82026000D01*
X164731815Y-82093039D01*
X164679011Y-82138794D01*
X164627500Y-82150000D01*
X162902000Y-82150000D01*
X162902000Y-84500000D01*
X164627500Y-84500000D01*
X164694539Y-84519685D01*
X164740294Y-84572489D01*
X164751500Y-84624000D01*
X164751500Y-89876000D01*
X164731815Y-89943039D01*
X164679011Y-89988794D01*
X164627500Y-90000000D01*
X162902000Y-90000000D01*
X162902000Y-92350000D01*
X164627500Y-92350000D01*
X164694539Y-92369685D01*
X164740294Y-92422489D01*
X164751500Y-92474000D01*
X164751500Y-92990500D01*
X164731815Y-93057539D01*
X164679011Y-93103294D01*
X164627500Y-93114500D01*
X161027323Y-93114500D01*
X160954264Y-93129032D01*
X160954260Y-93129033D01*
X160871399Y-93184399D01*
X160816033Y-93267260D01*
X160816032Y-93267264D01*
X160801500Y-93340321D01*
X160801500Y-93500500D01*
X160781815Y-93567539D01*
X160729011Y-93613294D01*
X160677500Y-93624500D01*
X160637098Y-93624500D01*
X160285231Y-93661483D01*
X160285227Y-93661483D01*
X160285225Y-93661484D01*
X159939161Y-93735041D01*
X159939160Y-93735042D01*
X159602676Y-93844372D01*
X159279451Y-93988280D01*
X159279445Y-93988283D01*
X158973051Y-94165180D01*
X158973046Y-94165183D01*
X158686820Y-94373138D01*
X158686811Y-94373145D01*
X158423886Y-94609886D01*
X158187145Y-94872811D01*
X158187138Y-94872820D01*
X157979183Y-95159046D01*
X157979180Y-95159051D01*
X157802283Y-95465445D01*
X157802280Y-95465451D01*
X157695016Y-95706372D01*
X157675592Y-95750000D01*
X157658372Y-95788676D01*
X157549042Y-96125160D01*
X157549041Y-96125161D01*
X157486333Y-96420185D01*
X157475483Y-96471231D01*
X157440495Y-96804124D01*
X157438500Y-96823102D01*
X157438500Y-101758258D01*
X157438402Y-101761735D01*
X157422193Y-102050371D01*
X157421414Y-102057286D01*
X157373281Y-102340570D01*
X157371733Y-102347353D01*
X157292186Y-102623469D01*
X157289888Y-102630036D01*
X157179927Y-102895507D01*
X157176908Y-102901776D01*
X157037913Y-103153267D01*
X157034211Y-103159159D01*
X156867933Y-103393506D01*
X156863595Y-103398946D01*
X156672123Y-103613203D01*
X156667203Y-103618123D01*
X156452946Y-103809595D01*
X156447506Y-103813933D01*
X156213159Y-103980211D01*
X156207267Y-103983913D01*
X155955776Y-104122908D01*
X155949507Y-104125927D01*
X155684036Y-104235888D01*
X155677469Y-104238186D01*
X155401353Y-104317733D01*
X155394570Y-104319281D01*
X155111286Y-104367414D01*
X155104371Y-104368193D01*
X154815735Y-104384402D01*
X154812258Y-104384500D01*
X150164214Y-104384500D01*
X150159791Y-104384342D01*
X150139349Y-104382879D01*
X149939655Y-104368597D01*
X149922143Y-104366079D01*
X149712995Y-104320582D01*
X149696019Y-104315598D01*
X149495464Y-104240794D01*
X149479371Y-104233444D01*
X149291511Y-104130865D01*
X149276628Y-104121300D01*
X149105278Y-103993029D01*
X149091907Y-103981443D01*
X148940556Y-103830092D01*
X148928970Y-103816721D01*
X148800699Y-103645371D01*
X148791134Y-103630488D01*
X148688555Y-103442628D01*
X148681205Y-103426535D01*
X148631976Y-103294548D01*
X148606398Y-103225972D01*
X148601419Y-103209013D01*
X148561045Y-103023414D01*
X148566029Y-102953724D01*
X148607901Y-102897791D01*
X148638876Y-102880877D01*
X148642226Y-102879628D01*
X148671810Y-102857481D01*
X148737273Y-102833065D01*
X148805546Y-102847916D01*
X148851659Y-102891653D01*
X148863426Y-102910731D01*
X148983267Y-103030572D01*
X148983271Y-103030575D01*
X149127507Y-103119542D01*
X149127518Y-103119547D01*
X149288393Y-103172855D01*
X149387683Y-103182999D01*
X149435999Y-103182998D01*
X149436000Y-103182998D01*
X149436000Y-102483000D01*
X149936000Y-102483000D01*
X149936000Y-103182999D01*
X149984308Y-103182999D01*
X149984322Y-103182998D01*
X150083607Y-103172855D01*
X150244481Y-103119547D01*
X150244488Y-103119544D01*
X150382902Y-103034168D01*
X150450294Y-103015727D01*
X150513098Y-103034168D01*
X150651511Y-103119544D01*
X150651518Y-103119547D01*
X150812393Y-103172855D01*
X150911683Y-103182999D01*
X150959999Y-103182998D01*
X150960000Y-103182998D01*
X150960000Y-102483000D01*
X151460000Y-102483000D01*
X151460000Y-103182999D01*
X151508308Y-103182999D01*
X151508322Y-103182998D01*
X151607607Y-103172855D01*
X151768481Y-103119547D01*
X151768492Y-103119542D01*
X151912728Y-103030575D01*
X151912732Y-103030572D01*
X152032572Y-102910732D01*
X152032575Y-102910728D01*
X152121542Y-102766492D01*
X152121547Y-102766481D01*
X152174855Y-102605606D01*
X152184999Y-102506322D01*
X152185000Y-102506309D01*
X152185000Y-102483000D01*
X151460000Y-102483000D01*
X150960000Y-102483000D01*
X149936000Y-102483000D01*
X149436000Y-102483000D01*
X149436000Y-102107000D01*
X149455685Y-102039961D01*
X149508489Y-101994206D01*
X149560000Y-101983000D01*
X152184999Y-101983000D01*
X152184999Y-101959692D01*
X152184998Y-101959677D01*
X152174855Y-101860392D01*
X152121547Y-101699518D01*
X152121542Y-101699507D01*
X152032575Y-101555271D01*
X152032572Y-101555267D01*
X151912732Y-101435427D01*
X151912728Y-101435424D01*
X151854730Y-101399650D01*
X151808005Y-101347702D01*
X151796784Y-101278739D01*
X151820558Y-101219805D01*
X151881628Y-101138226D01*
X151929412Y-101010114D01*
X151934002Y-100967421D01*
X151935499Y-100953501D01*
X151935499Y-100953490D01*
X151935500Y-100953485D01*
X151935499Y-100412516D01*
X151929412Y-100355886D01*
X151927581Y-100350978D01*
X151902040Y-100282500D01*
X151881628Y-100227774D01*
X151799687Y-100118313D01*
X151733911Y-100069074D01*
X151690228Y-100036373D01*
X151690226Y-100036372D01*
X151562114Y-99988588D01*
X151562112Y-99988587D01*
X151562110Y-99988587D01*
X151505493Y-99982500D01*
X150914518Y-99982500D01*
X150914509Y-99982501D01*
X150857885Y-99988587D01*
X150729773Y-100036372D01*
X150620313Y-100118313D01*
X150547267Y-100215891D01*
X150491333Y-100257762D01*
X150421641Y-100262746D01*
X150360318Y-100229261D01*
X150348733Y-100215891D01*
X150300530Y-100151500D01*
X150275687Y-100118313D01*
X150166226Y-100036372D01*
X150158444Y-100032123D01*
X150159191Y-100030753D01*
X150111232Y-99994850D01*
X150086816Y-99929385D01*
X150086500Y-99920541D01*
X150086500Y-99362569D01*
X150086500Y-99362568D01*
X150086500Y-99362567D01*
X150079652Y-99341491D01*
X150075111Y-99322577D01*
X150075110Y-99322571D01*
X150071646Y-99300696D01*
X150061584Y-99280949D01*
X150054142Y-99262980D01*
X150047296Y-99241911D01*
X150034274Y-99223987D01*
X150024108Y-99207398D01*
X150014050Y-99187658D01*
X149993398Y-99167006D01*
X149993380Y-99166986D01*
X149380323Y-98553930D01*
X149346838Y-98492607D01*
X149345067Y-98482448D01*
X149333330Y-98393291D01*
X149288349Y-98284696D01*
X149277862Y-98259377D01*
X149277861Y-98259376D01*
X149277861Y-98259375D01*
X149189621Y-98144379D01*
X149074625Y-98056139D01*
X149074624Y-98056138D01*
X149074622Y-98056137D01*
X148940712Y-98000671D01*
X148940710Y-98000670D01*
X148940709Y-98000670D01*
X148886979Y-97993596D01*
X148851563Y-97988933D01*
X148787666Y-97960666D01*
X148780068Y-97953675D01*
X148062819Y-97236426D01*
X148029334Y-97175103D01*
X148026500Y-97148745D01*
X148026500Y-96524500D01*
X148046185Y-96457461D01*
X148098989Y-96411706D01*
X148150500Y-96400500D01*
X148294481Y-96400500D01*
X148836745Y-96400500D01*
X148903784Y-96420185D01*
X148924426Y-96436819D01*
X152220986Y-99733380D01*
X152221006Y-99733398D01*
X152241658Y-99754050D01*
X152261398Y-99764108D01*
X152277987Y-99774274D01*
X152295909Y-99787295D01*
X152295910Y-99787295D01*
X152295911Y-99787296D01*
X152316980Y-99794142D01*
X152334949Y-99801584D01*
X152354696Y-99811646D01*
X152376582Y-99815112D01*
X152395497Y-99819653D01*
X152416567Y-99826500D01*
X152448481Y-99826500D01*
X152466541Y-99826500D01*
X152533580Y-99846185D01*
X152579335Y-99898989D01*
X152582209Y-99905928D01*
X152582372Y-99906226D01*
X152664313Y-100015687D01*
X152773774Y-100097628D01*
X152901886Y-100145412D01*
X152958515Y-100151500D01*
X153499484Y-100151499D01*
X153556114Y-100145412D01*
X153684226Y-100097628D01*
X153765804Y-100036559D01*
X153831264Y-100012143D01*
X153899538Y-100026994D01*
X153945650Y-100070730D01*
X153981424Y-100128728D01*
X153981427Y-100128732D01*
X154101267Y-100248572D01*
X154101271Y-100248575D01*
X154245507Y-100337542D01*
X154245518Y-100337547D01*
X154406393Y-100390855D01*
X154505683Y-100400999D01*
X154529000Y-100400998D01*
X154529000Y-99676000D01*
X155029000Y-99676000D01*
X155029000Y-100400999D01*
X155052308Y-100400999D01*
X155052322Y-100400998D01*
X155151607Y-100390855D01*
X155312481Y-100337547D01*
X155312492Y-100337542D01*
X155456728Y-100248575D01*
X155456732Y-100248572D01*
X155576572Y-100128732D01*
X155576575Y-100128728D01*
X155665542Y-99984492D01*
X155665547Y-99984481D01*
X155718855Y-99823606D01*
X155728999Y-99724322D01*
X155729000Y-99724309D01*
X155729000Y-99676000D01*
X155029000Y-99676000D01*
X154529000Y-99676000D01*
X154529000Y-98152000D01*
X155029000Y-98152000D01*
X155029000Y-99176000D01*
X155728999Y-99176000D01*
X155728999Y-99127692D01*
X155728998Y-99127677D01*
X155718855Y-99028392D01*
X155665547Y-98867518D01*
X155665544Y-98867511D01*
X155580168Y-98729098D01*
X155561727Y-98661706D01*
X155580168Y-98598902D01*
X155665544Y-98460488D01*
X155665547Y-98460481D01*
X155718855Y-98299606D01*
X155728999Y-98200322D01*
X155729000Y-98200309D01*
X155729000Y-98152000D01*
X155029000Y-98152000D01*
X154529000Y-98152000D01*
X154529000Y-96628000D01*
X155029000Y-96628000D01*
X155029000Y-97652000D01*
X155728999Y-97652000D01*
X155728999Y-97603692D01*
X155728998Y-97603677D01*
X155718855Y-97504392D01*
X155665547Y-97343518D01*
X155665544Y-97343511D01*
X155580168Y-97205098D01*
X155561727Y-97137706D01*
X155580168Y-97074902D01*
X155665544Y-96936488D01*
X155665547Y-96936481D01*
X155718855Y-96775606D01*
X155728999Y-96676322D01*
X155729000Y-96676309D01*
X155729000Y-96628000D01*
X155029000Y-96628000D01*
X154529000Y-96628000D01*
X154529000Y-95104000D01*
X155029000Y-95104000D01*
X155029000Y-96128000D01*
X155728999Y-96128000D01*
X155728999Y-96079692D01*
X155728998Y-96079677D01*
X155718855Y-95980392D01*
X155665547Y-95819518D01*
X155665544Y-95819511D01*
X155580168Y-95681098D01*
X155561727Y-95613706D01*
X155580168Y-95550902D01*
X155665544Y-95412488D01*
X155665547Y-95412481D01*
X155718855Y-95251606D01*
X155728999Y-95152322D01*
X155729000Y-95152309D01*
X155729000Y-95104000D01*
X155029000Y-95104000D01*
X154529000Y-95104000D01*
X154529000Y-93580000D01*
X155029000Y-93580000D01*
X155029000Y-94604000D01*
X155728999Y-94604000D01*
X155728999Y-94555692D01*
X155728998Y-94555677D01*
X155718855Y-94456392D01*
X155665547Y-94295518D01*
X155665544Y-94295511D01*
X155580168Y-94157098D01*
X155561727Y-94089706D01*
X155580168Y-94026902D01*
X155665544Y-93888488D01*
X155665547Y-93888481D01*
X155718855Y-93727606D01*
X155728999Y-93628322D01*
X155729000Y-93628309D01*
X155729000Y-93580000D01*
X155029000Y-93580000D01*
X154529000Y-93580000D01*
X154529000Y-92355000D01*
X155029000Y-92355000D01*
X155029000Y-93080000D01*
X155728999Y-93080000D01*
X155728999Y-93031692D01*
X155728998Y-93031677D01*
X155718855Y-92932392D01*
X155665547Y-92771518D01*
X155665542Y-92771507D01*
X155576575Y-92627271D01*
X155576572Y-92627267D01*
X155456732Y-92507427D01*
X155456728Y-92507424D01*
X155312492Y-92418457D01*
X155312481Y-92418452D01*
X155151606Y-92365144D01*
X155052322Y-92355000D01*
X155029000Y-92355000D01*
X154529000Y-92355000D01*
X154529000Y-92354999D01*
X154505693Y-92355000D01*
X154505674Y-92355001D01*
X154406392Y-92365144D01*
X154245518Y-92418452D01*
X154245507Y-92418457D01*
X154101271Y-92507424D01*
X154101267Y-92507427D01*
X153981424Y-92627270D01*
X153945649Y-92685270D01*
X153893701Y-92731993D01*
X153824738Y-92743214D01*
X153765802Y-92719438D01*
X153684230Y-92658374D01*
X153684227Y-92658373D01*
X153684226Y-92658372D01*
X153556114Y-92610588D01*
X153556112Y-92610587D01*
X153556110Y-92610587D01*
X153499493Y-92604500D01*
X152958518Y-92604500D01*
X152958509Y-92604501D01*
X152901885Y-92610587D01*
X152773773Y-92658372D01*
X152664313Y-92740313D01*
X152582372Y-92849773D01*
X152578123Y-92857556D01*
X152576753Y-92856808D01*
X152540850Y-92904768D01*
X152475385Y-92929184D01*
X152466541Y-92929500D01*
X152162567Y-92929500D01*
X152141491Y-92936347D01*
X152122582Y-92940887D01*
X152100695Y-92944354D01*
X152080952Y-92954413D01*
X152062988Y-92961854D01*
X152041910Y-92968703D01*
X152041905Y-92968706D01*
X152023977Y-92981731D01*
X152007397Y-92991891D01*
X151987660Y-93001948D01*
X151987659Y-93001949D01*
X151965094Y-93024513D01*
X151426426Y-93563181D01*
X151365103Y-93596666D01*
X151338745Y-93599500D01*
X149286808Y-93599500D01*
X149219769Y-93579815D01*
X149174014Y-93527011D01*
X149164070Y-93457853D01*
X149187540Y-93401190D01*
X149194353Y-93392088D01*
X149194354Y-93392086D01*
X149244596Y-93257379D01*
X149244598Y-93257372D01*
X149250999Y-93197844D01*
X149251000Y-93197827D01*
X149251000Y-93150000D01*
X148940183Y-93150000D01*
X148873144Y-93130315D01*
X148871294Y-93129104D01*
X148869049Y-93127604D01*
X148824243Y-93073992D01*
X148815534Y-93004667D01*
X148845688Y-92941639D01*
X148905130Y-92904919D01*
X148937938Y-92900500D01*
X149055431Y-92900500D01*
X149055433Y-92900500D01*
X149076501Y-92893654D01*
X149095417Y-92889112D01*
X149117304Y-92885646D01*
X149137047Y-92875585D01*
X149155016Y-92868142D01*
X149176090Y-92861296D01*
X149176090Y-92861295D01*
X149185377Y-92858279D01*
X149185968Y-92860098D01*
X149228029Y-92850000D01*
X149251000Y-92850000D01*
X149254639Y-92846360D01*
X149270685Y-92791716D01*
X149287319Y-92771074D01*
X150633393Y-91425000D01*
X160052000Y-91425000D01*
X160052000Y-91897844D01*
X160058401Y-91957372D01*
X160058403Y-91957379D01*
X160108645Y-92092086D01*
X160108649Y-92092093D01*
X160194809Y-92207187D01*
X160194812Y-92207190D01*
X160309906Y-92293350D01*
X160309913Y-92293354D01*
X160444620Y-92343596D01*
X160444627Y-92343598D01*
X160504155Y-92349999D01*
X160504172Y-92350000D01*
X162402000Y-92350000D01*
X162402000Y-91425000D01*
X160052000Y-91425000D01*
X150633393Y-91425000D01*
X151133393Y-90925000D01*
X160052000Y-90925000D01*
X162402000Y-90925000D01*
X162402000Y-90000000D01*
X160504155Y-90000000D01*
X160444627Y-90006401D01*
X160444620Y-90006403D01*
X160309913Y-90056645D01*
X160309906Y-90056649D01*
X160194812Y-90142809D01*
X160194809Y-90142812D01*
X160108649Y-90257906D01*
X160108645Y-90257913D01*
X160058403Y-90392620D01*
X160058401Y-90392627D01*
X160052000Y-90452155D01*
X160052000Y-90925000D01*
X151133393Y-90925000D01*
X151522552Y-90535841D01*
X151522557Y-90535834D01*
X151538050Y-90520342D01*
X151548109Y-90500598D01*
X151558269Y-90484018D01*
X151571296Y-90466089D01*
X151578142Y-90445017D01*
X151585588Y-90427043D01*
X151595645Y-90407305D01*
X151595646Y-90407304D01*
X151599112Y-90385416D01*
X151603651Y-90366510D01*
X151610500Y-90345433D01*
X151610500Y-90218567D01*
X151610500Y-83646481D01*
X151610500Y-83644159D01*
X151610499Y-83644129D01*
X151610499Y-83614568D01*
X151610499Y-83614567D01*
X151603653Y-83593501D01*
X151599212Y-83575000D01*
X160052000Y-83575000D01*
X160052000Y-84047844D01*
X160058401Y-84107372D01*
X160058403Y-84107379D01*
X160108645Y-84242086D01*
X160108649Y-84242093D01*
X160194809Y-84357187D01*
X160194812Y-84357190D01*
X160309906Y-84443350D01*
X160309913Y-84443354D01*
X160444620Y-84493596D01*
X160444627Y-84493598D01*
X160504155Y-84499999D01*
X160504172Y-84500000D01*
X162402000Y-84500000D01*
X162402000Y-83575000D01*
X160052000Y-83575000D01*
X151599212Y-83575000D01*
X151599111Y-83574580D01*
X151595646Y-83552696D01*
X151590648Y-83542887D01*
X151585586Y-83532952D01*
X151578140Y-83514974D01*
X151571297Y-83493913D01*
X151571296Y-83493912D01*
X151571296Y-83493910D01*
X151558269Y-83475981D01*
X151548104Y-83459392D01*
X151538050Y-83439658D01*
X151448342Y-83349950D01*
X151173392Y-83075000D01*
X160052000Y-83075000D01*
X162402000Y-83075000D01*
X162402000Y-82150000D01*
X160504155Y-82150000D01*
X160444627Y-82156401D01*
X160444620Y-82156403D01*
X160309913Y-82206645D01*
X160309906Y-82206649D01*
X160194812Y-82292809D01*
X160194809Y-82292812D01*
X160108649Y-82407906D01*
X160108645Y-82407913D01*
X160058403Y-82542620D01*
X160058401Y-82542627D01*
X160052000Y-82602155D01*
X160052000Y-83075000D01*
X151173392Y-83075000D01*
X149106819Y-81008426D01*
X149073334Y-80947103D01*
X149070500Y-80920745D01*
X149070500Y-77421983D01*
X149090185Y-77354944D01*
X149142989Y-77309189D01*
X149149682Y-77306366D01*
X149162637Y-77301348D01*
X149336041Y-77193981D01*
X149486764Y-77056579D01*
X149609673Y-76893821D01*
X149700582Y-76711250D01*
X149756397Y-76515083D01*
X149775215Y-76312000D01*
X149756397Y-76108917D01*
X149700582Y-75912750D01*
X149699960Y-75911501D01*
X149638215Y-75787500D01*
X149609673Y-75730179D01*
X149486764Y-75567421D01*
X149486762Y-75567418D01*
X149336041Y-75430019D01*
X149336039Y-75430017D01*
X149162642Y-75322655D01*
X149162635Y-75322651D01*
X149051367Y-75279546D01*
X148972456Y-75248976D01*
X148771976Y-75211500D01*
X148568024Y-75211500D01*
X148367544Y-75248976D01*
X148367541Y-75248976D01*
X148367541Y-75248977D01*
X148177364Y-75322651D01*
X148177357Y-75322655D01*
X148003960Y-75430017D01*
X148003958Y-75430019D01*
X147853237Y-75567418D01*
X147730327Y-75730178D01*
X147639422Y-75912739D01*
X147639417Y-75912752D01*
X147583602Y-76108917D01*
X147564785Y-76311999D01*
X147564785Y-76312000D01*
X147583602Y-76515082D01*
X147639417Y-76711247D01*
X147639422Y-76711260D01*
X147730327Y-76893821D01*
X147853237Y-77056581D01*
X148003958Y-77193980D01*
X148003960Y-77193982D01*
X148068151Y-77233727D01*
X148177363Y-77301348D01*
X148190290Y-77306356D01*
X148245691Y-77348924D01*
X148269285Y-77414689D01*
X148269500Y-77421983D01*
X148269500Y-81201429D01*
X148269501Y-81201439D01*
X148276346Y-81222507D01*
X148280887Y-81241418D01*
X148284354Y-81263304D01*
X148284355Y-81263307D01*
X148294412Y-81283045D01*
X148301857Y-81301018D01*
X148308704Y-81322090D01*
X148321726Y-81340014D01*
X148331890Y-81356600D01*
X148338611Y-81369790D01*
X148341950Y-81376342D01*
X148362864Y-81397256D01*
X148362893Y-81397287D01*
X150773181Y-83807573D01*
X150806666Y-83868896D01*
X150809500Y-83895254D01*
X150809500Y-84189744D01*
X150789815Y-84256783D01*
X150737011Y-84302538D01*
X150667853Y-84312482D01*
X150604297Y-84283457D01*
X150597819Y-84277425D01*
X142325287Y-76004893D01*
X142325256Y-76004864D01*
X142304342Y-75983950D01*
X142304341Y-75983949D01*
X142284600Y-75973890D01*
X142268014Y-75963726D01*
X142250090Y-75950704D01*
X142250091Y-75950704D01*
X142229018Y-75943857D01*
X142211045Y-75936412D01*
X142191307Y-75926355D01*
X142191304Y-75926354D01*
X142169418Y-75922887D01*
X142150507Y-75918346D01*
X142129439Y-75911501D01*
X142129434Y-75911500D01*
X142129433Y-75911500D01*
X142129429Y-75911500D01*
X132250737Y-75911500D01*
X132183698Y-75891815D01*
X132139737Y-75842771D01*
X132083672Y-75730177D01*
X132083671Y-75730176D01*
X132016500Y-75641226D01*
X131991808Y-75575865D01*
X132006373Y-75507531D01*
X132055571Y-75457918D01*
X132115454Y-75442500D01*
X144642745Y-75442500D01*
X144709784Y-75462185D01*
X144730426Y-75478819D01*
X145062274Y-75810667D01*
X145095759Y-75871990D01*
X145093860Y-75932282D01*
X145043602Y-76108921D01*
X145024785Y-76311999D01*
X145024785Y-76312000D01*
X145043602Y-76515082D01*
X145099417Y-76711247D01*
X145099422Y-76711260D01*
X145190327Y-76893821D01*
X145313237Y-77056581D01*
X145463958Y-77193980D01*
X145463960Y-77193982D01*
X145528151Y-77233727D01*
X145637363Y-77301348D01*
X145827544Y-77375024D01*
X146028024Y-77412500D01*
X146028026Y-77412500D01*
X146231974Y-77412500D01*
X146231976Y-77412500D01*
X146432456Y-77375024D01*
X146622637Y-77301348D01*
X146796041Y-77193981D01*
X146946764Y-77056579D01*
X147069673Y-76893821D01*
X147160582Y-76711250D01*
X147216397Y-76515083D01*
X147235215Y-76312000D01*
X147216397Y-76108917D01*
X147160582Y-75912750D01*
X147159960Y-75911501D01*
X147098215Y-75787500D01*
X147069673Y-75730179D01*
X146946764Y-75567421D01*
X146946762Y-75567418D01*
X146796041Y-75430019D01*
X146796039Y-75430017D01*
X146622642Y-75322655D01*
X146622635Y-75322651D01*
X146511367Y-75279546D01*
X146432456Y-75248976D01*
X146231976Y-75211500D01*
X146028024Y-75211500D01*
X145827544Y-75248976D01*
X145827541Y-75248976D01*
X145827536Y-75248978D01*
X145762926Y-75274007D01*
X145693302Y-75279868D01*
X145631563Y-75247158D01*
X145630453Y-75246061D01*
X145119287Y-74734893D01*
X145119256Y-74734864D01*
X145098342Y-74713950D01*
X145098341Y-74713949D01*
X145078600Y-74703890D01*
X145062014Y-74693726D01*
X145044090Y-74680704D01*
X145044091Y-74680704D01*
X145023018Y-74673857D01*
X145005045Y-74666412D01*
X144985307Y-74656355D01*
X144985304Y-74656354D01*
X144963418Y-74652887D01*
X144944507Y-74648346D01*
X144923439Y-74641501D01*
X144923434Y-74641500D01*
X144923433Y-74641500D01*
X144891519Y-74641500D01*
X129842481Y-74641500D01*
X129839948Y-74641500D01*
X129839924Y-74641501D01*
X129810564Y-74641501D01*
X129789499Y-74648346D01*
X129770582Y-74652887D01*
X129748700Y-74656352D01*
X129748695Y-74656354D01*
X129728950Y-74666414D01*
X129710986Y-74673855D01*
X129689907Y-74680705D01*
X129671984Y-74693727D01*
X129655399Y-74703890D01*
X129635659Y-74713948D01*
X129613093Y-74736515D01*
X129613091Y-74736517D01*
X129103545Y-75246061D01*
X129042222Y-75279546D01*
X128972530Y-75274562D01*
X128971071Y-75274007D01*
X128906461Y-75248977D01*
X128906456Y-75248976D01*
X128705976Y-75211500D01*
X128502024Y-75211500D01*
X128301544Y-75248976D01*
X128301541Y-75248976D01*
X128301541Y-75248977D01*
X128111364Y-75322651D01*
X128111357Y-75322655D01*
X127937960Y-75430017D01*
X127937958Y-75430019D01*
X127787237Y-75567418D01*
X127664327Y-75730178D01*
X127573422Y-75912739D01*
X127573417Y-75912752D01*
X127517602Y-76108917D01*
X127498785Y-76311999D01*
X127498785Y-76312000D01*
X127517602Y-76515082D01*
X127573417Y-76711247D01*
X127573422Y-76711260D01*
X127664327Y-76893821D01*
X127787237Y-77056581D01*
X127937958Y-77193980D01*
X127937960Y-77193982D01*
X128002151Y-77233727D01*
X128111363Y-77301348D01*
X128301544Y-77375024D01*
X128502024Y-77412500D01*
X128502026Y-77412500D01*
X128705974Y-77412500D01*
X128705976Y-77412500D01*
X128906456Y-77375024D01*
X129096637Y-77301348D01*
X129270041Y-77193981D01*
X129420764Y-77056579D01*
X129543673Y-76893821D01*
X129634582Y-76711250D01*
X129690397Y-76515083D01*
X129709215Y-76312000D01*
X129690397Y-76108917D01*
X129640139Y-75932280D01*
X129640725Y-75862416D01*
X129671722Y-75810669D01*
X130003573Y-75478819D01*
X130064896Y-75445334D01*
X130091254Y-75442500D01*
X130172546Y-75442500D01*
X130239585Y-75462185D01*
X130285340Y-75514989D01*
X130295284Y-75584147D01*
X130271500Y-75641226D01*
X130204328Y-75730175D01*
X130113422Y-75912739D01*
X130113417Y-75912752D01*
X130057602Y-76108917D01*
X130038785Y-76311999D01*
X130038785Y-76312000D01*
X130057602Y-76515082D01*
X130113417Y-76711247D01*
X130113422Y-76711260D01*
X130204328Y-76893824D01*
X130271500Y-76982774D01*
X130296192Y-77048135D01*
X130281627Y-77116469D01*
X130232429Y-77166082D01*
X130172546Y-77181500D01*
X129839948Y-77181500D01*
X129839924Y-77181501D01*
X129810564Y-77181501D01*
X129789499Y-77188346D01*
X129770582Y-77192887D01*
X129748700Y-77196352D01*
X129748695Y-77196354D01*
X129728950Y-77206414D01*
X129710986Y-77213855D01*
X129689907Y-77220705D01*
X129671984Y-77233727D01*
X129655399Y-77243890D01*
X129635659Y-77253948D01*
X129613093Y-77276515D01*
X129613091Y-77276517D01*
X129103545Y-77786061D01*
X129042222Y-77819546D01*
X128972530Y-77814562D01*
X128971071Y-77814007D01*
X128906461Y-77788977D01*
X128890862Y-77786061D01*
X128705976Y-77751500D01*
X128502024Y-77751500D01*
X128301544Y-77788976D01*
X128301541Y-77788976D01*
X128301541Y-77788977D01*
X128111364Y-77862651D01*
X128111357Y-77862655D01*
X127937960Y-77970017D01*
X127937958Y-77970019D01*
X127787237Y-78107418D01*
X127664327Y-78270178D01*
X127573422Y-78452739D01*
X127573417Y-78452752D01*
X127517602Y-78648917D01*
X127498785Y-78851999D01*
X127498785Y-78852000D01*
X127517602Y-79055082D01*
X127573417Y-79251247D01*
X127573422Y-79251260D01*
X127664327Y-79433821D01*
X127787237Y-79596581D01*
X127937958Y-79733980D01*
X127937960Y-79733982D01*
X128002151Y-79773727D01*
X128111363Y-79841348D01*
X128301544Y-79915024D01*
X128502024Y-79952500D01*
X128502026Y-79952500D01*
X128705974Y-79952500D01*
X128705976Y-79952500D01*
X128906456Y-79915024D01*
X129096637Y-79841348D01*
X129270041Y-79733981D01*
X129420764Y-79596579D01*
X129543673Y-79433821D01*
X129634582Y-79251250D01*
X129690397Y-79055083D01*
X129709215Y-78852000D01*
X129708436Y-78843598D01*
X129690397Y-78648918D01*
X129654840Y-78523949D01*
X129640139Y-78472280D01*
X129640725Y-78402416D01*
X129671722Y-78350669D01*
X130003573Y-78018819D01*
X130064896Y-77985334D01*
X130091254Y-77982500D01*
X130172546Y-77982500D01*
X130239585Y-78002185D01*
X130285340Y-78054989D01*
X130295284Y-78124147D01*
X130271500Y-78181226D01*
X130204328Y-78270175D01*
X130113422Y-78452739D01*
X130113417Y-78452752D01*
X130057602Y-78648917D01*
X130038785Y-78851999D01*
X130038785Y-78852000D01*
X130057602Y-79055082D01*
X130113417Y-79251247D01*
X130113422Y-79251260D01*
X130204328Y-79433824D01*
X130271500Y-79522774D01*
X130296192Y-79588135D01*
X130281627Y-79656469D01*
X130232429Y-79706082D01*
X130172546Y-79721500D01*
X129839948Y-79721500D01*
X129839924Y-79721501D01*
X129810564Y-79721501D01*
X129789499Y-79728346D01*
X129770582Y-79732887D01*
X129748700Y-79736352D01*
X129748695Y-79736354D01*
X129728950Y-79746414D01*
X129710986Y-79753855D01*
X129689907Y-79760705D01*
X129671984Y-79773727D01*
X129655399Y-79783890D01*
X129635659Y-79793948D01*
X129613093Y-79816515D01*
X129613091Y-79816517D01*
X129103545Y-80326061D01*
X129042222Y-80359546D01*
X128972530Y-80354562D01*
X128971071Y-80354007D01*
X128906461Y-80328977D01*
X128890862Y-80326061D01*
X128705976Y-80291500D01*
X128502024Y-80291500D01*
X128301544Y-80328976D01*
X128301541Y-80328976D01*
X128301541Y-80328977D01*
X128111364Y-80402651D01*
X128111357Y-80402655D01*
X127937960Y-80510017D01*
X127937958Y-80510019D01*
X127787237Y-80647418D01*
X127664327Y-80810178D01*
X127573422Y-80992739D01*
X127573417Y-80992752D01*
X127517602Y-81188917D01*
X127498785Y-81391999D01*
X127498785Y-81392000D01*
X127517602Y-81595082D01*
X127573417Y-81791247D01*
X127573422Y-81791260D01*
X127664327Y-81973821D01*
X127787237Y-82136581D01*
X127937958Y-82273980D01*
X127937960Y-82273982D01*
X128002151Y-82313727D01*
X128111363Y-82381348D01*
X128301544Y-82455024D01*
X128502024Y-82492500D01*
X128502026Y-82492500D01*
X128705974Y-82492500D01*
X128705976Y-82492500D01*
X128906456Y-82455024D01*
X129096637Y-82381348D01*
X129270041Y-82273981D01*
X129420764Y-82136579D01*
X129543673Y-81973821D01*
X129634582Y-81791250D01*
X129690397Y-81595083D01*
X129709215Y-81392000D01*
X129705129Y-81347909D01*
X129694369Y-81231784D01*
X129690397Y-81188917D01*
X129640139Y-81012280D01*
X129640725Y-80942416D01*
X129671722Y-80890669D01*
X130003573Y-80558819D01*
X130064896Y-80525334D01*
X130091254Y-80522500D01*
X130172546Y-80522500D01*
X130239585Y-80542185D01*
X130285340Y-80594989D01*
X130295284Y-80664147D01*
X130271500Y-80721226D01*
X130204328Y-80810175D01*
X130113422Y-80992739D01*
X130113417Y-80992752D01*
X130057602Y-81188917D01*
X130038785Y-81391999D01*
X130038785Y-81392000D01*
X130057602Y-81595082D01*
X130113417Y-81791247D01*
X130113422Y-81791260D01*
X130204328Y-81973824D01*
X130271500Y-82062774D01*
X130296192Y-82128135D01*
X130281627Y-82196469D01*
X130232429Y-82246082D01*
X130172546Y-82261500D01*
X129839948Y-82261500D01*
X129839924Y-82261501D01*
X129810564Y-82261501D01*
X129789499Y-82268346D01*
X129770582Y-82272887D01*
X129748700Y-82276352D01*
X129748695Y-82276354D01*
X129728950Y-82286414D01*
X129710986Y-82293855D01*
X129689907Y-82300705D01*
X129671984Y-82313727D01*
X129655399Y-82323890D01*
X129635659Y-82333948D01*
X129613093Y-82356515D01*
X129613091Y-82356517D01*
X129103545Y-82866061D01*
X129042222Y-82899546D01*
X128972530Y-82894562D01*
X128971071Y-82894007D01*
X128906461Y-82868977D01*
X128890862Y-82866061D01*
X128705976Y-82831500D01*
X128502024Y-82831500D01*
X128301544Y-82868976D01*
X128301541Y-82868976D01*
X128301541Y-82868977D01*
X128111364Y-82942651D01*
X128111357Y-82942655D01*
X127937960Y-83050017D01*
X127937958Y-83050019D01*
X127787237Y-83187418D01*
X127664327Y-83350178D01*
X127573422Y-83532739D01*
X127573417Y-83532752D01*
X127517602Y-83728917D01*
X127498785Y-83931999D01*
X127498785Y-83932000D01*
X127517602Y-84135082D01*
X127573417Y-84331247D01*
X127573422Y-84331260D01*
X127664327Y-84513821D01*
X127787237Y-84676581D01*
X127937958Y-84813980D01*
X127937960Y-84813982D01*
X128034812Y-84873950D01*
X128111363Y-84921348D01*
X128192283Y-84952696D01*
X128247685Y-84995269D01*
X128271276Y-85061035D01*
X128255565Y-85129116D01*
X128205542Y-85177895D01*
X128179586Y-85188097D01*
X128140519Y-85198565D01*
X128140507Y-85198570D01*
X127926422Y-85298399D01*
X127926420Y-85298400D01*
X127732926Y-85433886D01*
X127732920Y-85433891D01*
X127565891Y-85600920D01*
X127565886Y-85600926D01*
X127430400Y-85794420D01*
X127430399Y-85794422D01*
X127330570Y-86008507D01*
X127330567Y-86008513D01*
X127273364Y-86221999D01*
X127273364Y-86222000D01*
X128170314Y-86222000D01*
X128144507Y-86262156D01*
X128104000Y-86400111D01*
X128104000Y-86543889D01*
X128144507Y-86681844D01*
X128170314Y-86722000D01*
X127273364Y-86722000D01*
X127330567Y-86935486D01*
X127330570Y-86935492D01*
X127430399Y-87149578D01*
X127565894Y-87343082D01*
X127732917Y-87510105D01*
X127926421Y-87645600D01*
X128140507Y-87745429D01*
X128140516Y-87745433D01*
X128179583Y-87755901D01*
X128239244Y-87792266D01*
X128269773Y-87855113D01*
X128261479Y-87924488D01*
X128216993Y-87978366D01*
X128192284Y-87991302D01*
X128111373Y-88022647D01*
X128111357Y-88022655D01*
X127937960Y-88130017D01*
X127937958Y-88130019D01*
X127787237Y-88267418D01*
X127664327Y-88430178D01*
X127573422Y-88612739D01*
X127573417Y-88612752D01*
X127517602Y-88808917D01*
X127498785Y-89011999D01*
X127498785Y-89012000D01*
X127517602Y-89215082D01*
X127573417Y-89411247D01*
X127573422Y-89411260D01*
X127664327Y-89593821D01*
X127787237Y-89756581D01*
X127937958Y-89893980D01*
X127937960Y-89893982D01*
X128031490Y-89951893D01*
X128111363Y-90001348D01*
X128301544Y-90075024D01*
X128502024Y-90112500D01*
X128502026Y-90112500D01*
X128705974Y-90112500D01*
X128705976Y-90112500D01*
X128906456Y-90075024D01*
X129096637Y-90001348D01*
X129270041Y-89893981D01*
X129420764Y-89756579D01*
X129543673Y-89593821D01*
X129634582Y-89411250D01*
X129690397Y-89215083D01*
X129709215Y-89012000D01*
X129690397Y-88808917D01*
X129634582Y-88612750D01*
X129632548Y-88608666D01*
X129558180Y-88459313D01*
X129543673Y-88430179D01*
X129470847Y-88333742D01*
X129420762Y-88267418D01*
X129270041Y-88130019D01*
X129270039Y-88130017D01*
X129096642Y-88022655D01*
X129096635Y-88022651D01*
X129015715Y-87991303D01*
X128960313Y-87948730D01*
X128936723Y-87882963D01*
X128952434Y-87814883D01*
X129002458Y-87766104D01*
X129028417Y-87755901D01*
X129067481Y-87745434D01*
X129067492Y-87745429D01*
X129281578Y-87645600D01*
X129475082Y-87510105D01*
X129642105Y-87343082D01*
X129772425Y-87156968D01*
X129827002Y-87113344D01*
X129896501Y-87106151D01*
X129958855Y-87137673D01*
X129975575Y-87156968D01*
X130105894Y-87343082D01*
X130272917Y-87510105D01*
X130466421Y-87645600D01*
X130529723Y-87675118D01*
X130582162Y-87721290D01*
X130601314Y-87788484D01*
X130581098Y-87855365D01*
X130527933Y-87900700D01*
X130477318Y-87911500D01*
X130269323Y-87911500D01*
X130196264Y-87926032D01*
X130196260Y-87926033D01*
X130113399Y-87981399D01*
X130058033Y-88064260D01*
X130058032Y-88064264D01*
X130043500Y-88137321D01*
X130043500Y-89886678D01*
X130058032Y-89959735D01*
X130058033Y-89959739D01*
X130058034Y-89959740D01*
X130113399Y-90042601D01*
X130196260Y-90097966D01*
X130196264Y-90097967D01*
X130269321Y-90112499D01*
X130269324Y-90112500D01*
X130269326Y-90112500D01*
X132018676Y-90112500D01*
X132018677Y-90112499D01*
X132091740Y-90097966D01*
X132174601Y-90042601D01*
X132229966Y-89959740D01*
X132244500Y-89886674D01*
X132244500Y-89536500D01*
X132264185Y-89469461D01*
X132316989Y-89423706D01*
X132368500Y-89412500D01*
X134763431Y-89412500D01*
X134763433Y-89412500D01*
X134784501Y-89405654D01*
X134803417Y-89401112D01*
X134825304Y-89397646D01*
X134845044Y-89387586D01*
X134863011Y-89380144D01*
X134884090Y-89373296D01*
X134902026Y-89360263D01*
X134918588Y-89350114D01*
X134938342Y-89340050D01*
X134953834Y-89324557D01*
X134953841Y-89324552D01*
X135515152Y-88763241D01*
X136086573Y-88191818D01*
X136147896Y-88158334D01*
X136174254Y-88155500D01*
X137989334Y-88155500D01*
X138056373Y-88175185D01*
X138088601Y-88205189D01*
X138107788Y-88230819D01*
X138174313Y-88319687D01*
X138283774Y-88401628D01*
X138411886Y-88449412D01*
X138468515Y-88455500D01*
X139059484Y-88455499D01*
X139116114Y-88449412D01*
X139244226Y-88401628D01*
X139353687Y-88319687D01*
X139392815Y-88267418D01*
X139426733Y-88222109D01*
X139482666Y-88180237D01*
X139552358Y-88175253D01*
X139613681Y-88208738D01*
X139625267Y-88222109D01*
X139698312Y-88319686D01*
X139698313Y-88319687D01*
X139787136Y-88386179D01*
X139807774Y-88401628D01*
X139815562Y-88405881D01*
X139814813Y-88407252D01*
X139862763Y-88443143D01*
X139887184Y-88508606D01*
X139887500Y-88517459D01*
X139887500Y-89583429D01*
X139887501Y-89583439D01*
X139894346Y-89604507D01*
X139898887Y-89623418D01*
X139902354Y-89645304D01*
X139902355Y-89645307D01*
X139912412Y-89665045D01*
X139919857Y-89683018D01*
X139926704Y-89704090D01*
X139939726Y-89722014D01*
X139949890Y-89738600D01*
X139959950Y-89758342D01*
X139980864Y-89779256D01*
X139980893Y-89779287D01*
X141482675Y-91281068D01*
X141516160Y-91342391D01*
X141517933Y-91352563D01*
X141529162Y-91437854D01*
X141529670Y-91441707D01*
X141529671Y-91441712D01*
X141585137Y-91575622D01*
X141585138Y-91575624D01*
X141585139Y-91575625D01*
X141673379Y-91690621D01*
X141788375Y-91778861D01*
X141922291Y-91834330D01*
X142025257Y-91847886D01*
X142089152Y-91876151D01*
X142096737Y-91883130D01*
X142101436Y-91887829D01*
X142134914Y-91949155D01*
X142129922Y-92018846D01*
X142088045Y-92074775D01*
X142022578Y-92099185D01*
X142013745Y-92099500D01*
X140691254Y-92099500D01*
X140624215Y-92079815D01*
X140603573Y-92063181D01*
X140039287Y-91498893D01*
X140039256Y-91498864D01*
X140018342Y-91477950D01*
X140018341Y-91477949D01*
X139998600Y-91467890D01*
X139982014Y-91457726D01*
X139964090Y-91444704D01*
X139964091Y-91444704D01*
X139943018Y-91437857D01*
X139925045Y-91430412D01*
X139905307Y-91420355D01*
X139905304Y-91420354D01*
X139883418Y-91416887D01*
X139864507Y-91412346D01*
X139843439Y-91405501D01*
X139843434Y-91405500D01*
X139843433Y-91405500D01*
X139843429Y-91405500D01*
X139040352Y-91405500D01*
X138973313Y-91385815D01*
X138927558Y-91333011D01*
X138923310Y-91322452D01*
X138921794Y-91318121D01*
X138921793Y-91318118D01*
X138916416Y-91310832D01*
X138841150Y-91208850D01*
X138731882Y-91128207D01*
X138731880Y-91128206D01*
X138603700Y-91083353D01*
X138573270Y-91080500D01*
X138573266Y-91080500D01*
X138064734Y-91080500D01*
X138064730Y-91080500D01*
X138034300Y-91083353D01*
X138034298Y-91083353D01*
X137906119Y-91128206D01*
X137906117Y-91128207D01*
X137796850Y-91208850D01*
X137716207Y-91318117D01*
X137716206Y-91318119D01*
X137671353Y-91446298D01*
X137671353Y-91446300D01*
X137668500Y-91476730D01*
X137668500Y-92135269D01*
X137671353Y-92165699D01*
X137671353Y-92165701D01*
X137716206Y-92293880D01*
X137716207Y-92293882D01*
X137796850Y-92403150D01*
X137885031Y-92468230D01*
X137927281Y-92523877D01*
X137932740Y-92593533D01*
X137899672Y-92655083D01*
X137885032Y-92667768D01*
X137883703Y-92668750D01*
X137796850Y-92732850D01*
X137716207Y-92842117D01*
X137716206Y-92842119D01*
X137671353Y-92970298D01*
X137671353Y-92970300D01*
X137668500Y-93000730D01*
X137668500Y-93659269D01*
X137671353Y-93689699D01*
X137671353Y-93689701D01*
X137716206Y-93817880D01*
X137716207Y-93817882D01*
X137796850Y-93927150D01*
X137885031Y-93992230D01*
X137927281Y-94047877D01*
X137932740Y-94117533D01*
X137899672Y-94179083D01*
X137885032Y-94191768D01*
X137809194Y-94247740D01*
X137796850Y-94256850D01*
X137716207Y-94366117D01*
X137716206Y-94366119D01*
X137671353Y-94494298D01*
X137671353Y-94494300D01*
X137668500Y-94524730D01*
X137668500Y-95183269D01*
X137671353Y-95213699D01*
X137671353Y-95213701D01*
X137716206Y-95341880D01*
X137716207Y-95341882D01*
X137796850Y-95451150D01*
X137906118Y-95531793D01*
X137948845Y-95546744D01*
X138034299Y-95576646D01*
X138064730Y-95579500D01*
X138064734Y-95579500D01*
X138573270Y-95579500D01*
X138603699Y-95576646D01*
X138603701Y-95576646D01*
X138677397Y-95550858D01*
X138731882Y-95531793D01*
X138841150Y-95451150D01*
X138921793Y-95341882D01*
X138923310Y-95337548D01*
X138964030Y-95280771D01*
X139028982Y-95255022D01*
X139040352Y-95254500D01*
X139462431Y-95254500D01*
X139462433Y-95254500D01*
X139483501Y-95247654D01*
X139502420Y-95243112D01*
X139527183Y-95239190D01*
X139596477Y-95248145D01*
X139649929Y-95293141D01*
X139670568Y-95359893D01*
X139651843Y-95427206D01*
X139634262Y-95449344D01*
X133808426Y-101275181D01*
X133747103Y-101308666D01*
X133720745Y-101311500D01*
X132250737Y-101311500D01*
X132183698Y-101291815D01*
X132139737Y-101242771D01*
X132083673Y-101130179D01*
X131992733Y-101009755D01*
X131960762Y-100967418D01*
X131810041Y-100830019D01*
X131810039Y-100830017D01*
X131636642Y-100722655D01*
X131636635Y-100722651D01*
X131527424Y-100680343D01*
X131446456Y-100648976D01*
X131245976Y-100611500D01*
X131042024Y-100611500D01*
X130841544Y-100648976D01*
X130841541Y-100648976D01*
X130841541Y-100648977D01*
X130651364Y-100722651D01*
X130651357Y-100722655D01*
X130477960Y-100830017D01*
X130477958Y-100830019D01*
X130327237Y-100967418D01*
X130204327Y-101130178D01*
X130113422Y-101312739D01*
X130113417Y-101312752D01*
X130057602Y-101508917D01*
X130038785Y-101711999D01*
X130038785Y-101712000D01*
X130057602Y-101915082D01*
X130113417Y-102111247D01*
X130113422Y-102111260D01*
X130204328Y-102293824D01*
X130271500Y-102382774D01*
X130296192Y-102448135D01*
X130281627Y-102516469D01*
X130232429Y-102566082D01*
X130172546Y-102581500D01*
X129839948Y-102581500D01*
X129839924Y-102581501D01*
X129810564Y-102581501D01*
X129789499Y-102588346D01*
X129770582Y-102592887D01*
X129748700Y-102596352D01*
X129748695Y-102596354D01*
X129728950Y-102606414D01*
X129710986Y-102613855D01*
X129689907Y-102620705D01*
X129671984Y-102633727D01*
X129655399Y-102643890D01*
X129635659Y-102653948D01*
X129624375Y-102665232D01*
X129613091Y-102676517D01*
X129523127Y-102766481D01*
X129103545Y-103186061D01*
X129042222Y-103219546D01*
X128972530Y-103214562D01*
X128971071Y-103214007D01*
X128906461Y-103188977D01*
X128890862Y-103186061D01*
X128705976Y-103151500D01*
X128502024Y-103151500D01*
X128301544Y-103188976D01*
X128301541Y-103188976D01*
X128301541Y-103188977D01*
X128111364Y-103262651D01*
X128111357Y-103262655D01*
X127937960Y-103370017D01*
X127937958Y-103370019D01*
X127787237Y-103507418D01*
X127664327Y-103670178D01*
X127573422Y-103852739D01*
X127573417Y-103852752D01*
X127517602Y-104048917D01*
X127498785Y-104251999D01*
X127498785Y-104252000D01*
X127517602Y-104455082D01*
X127573417Y-104651247D01*
X127573422Y-104651260D01*
X127664327Y-104833821D01*
X127787237Y-104996581D01*
X127937958Y-105133980D01*
X127937960Y-105133982D01*
X128002151Y-105173727D01*
X128111363Y-105241348D01*
X128301544Y-105315024D01*
X128502024Y-105352500D01*
X128502026Y-105352500D01*
X128705974Y-105352500D01*
X128705976Y-105352500D01*
X128906456Y-105315024D01*
X129096637Y-105241348D01*
X129270041Y-105133981D01*
X129420764Y-104996579D01*
X129543673Y-104833821D01*
X129634582Y-104651250D01*
X129690397Y-104455083D01*
X129709215Y-104252000D01*
X129704775Y-104204089D01*
X129690397Y-104048918D01*
X129674495Y-103993029D01*
X129640139Y-103872280D01*
X129640725Y-103802416D01*
X129671722Y-103750669D01*
X130003573Y-103418819D01*
X130064896Y-103385334D01*
X130091254Y-103382500D01*
X130172546Y-103382500D01*
X130239585Y-103402185D01*
X130285340Y-103454989D01*
X130295284Y-103524147D01*
X130271500Y-103581226D01*
X130204328Y-103670175D01*
X130113422Y-103852739D01*
X130113417Y-103852752D01*
X130057602Y-104048917D01*
X130038785Y-104251999D01*
X130038785Y-104252000D01*
X130057602Y-104455082D01*
X130113417Y-104651247D01*
X130113422Y-104651260D01*
X130204328Y-104833824D01*
X130271500Y-104922774D01*
X130296192Y-104988135D01*
X130281627Y-105056469D01*
X130232429Y-105106082D01*
X130172546Y-105121500D01*
X129839948Y-105121500D01*
X129839924Y-105121501D01*
X129810564Y-105121501D01*
X129789499Y-105128346D01*
X129770582Y-105132887D01*
X129748700Y-105136352D01*
X129748695Y-105136354D01*
X129728950Y-105146414D01*
X129710986Y-105153855D01*
X129689907Y-105160705D01*
X129671984Y-105173727D01*
X129655399Y-105183890D01*
X129635659Y-105193948D01*
X129624375Y-105205232D01*
X129613091Y-105216517D01*
X129514586Y-105315022D01*
X129103545Y-105726061D01*
X129042222Y-105759546D01*
X128972530Y-105754562D01*
X128971071Y-105754007D01*
X128906461Y-105728977D01*
X128890862Y-105726061D01*
X128705976Y-105691500D01*
X128502024Y-105691500D01*
X128301544Y-105728976D01*
X128301541Y-105728976D01*
X128301541Y-105728977D01*
X128111364Y-105802651D01*
X128111357Y-105802655D01*
X127937960Y-105910017D01*
X127937958Y-105910019D01*
X127787237Y-106047418D01*
X127664327Y-106210178D01*
X127573422Y-106392739D01*
X127573417Y-106392752D01*
X127517602Y-106588917D01*
X127498785Y-106791999D01*
X127498785Y-106792000D01*
X127517602Y-106995082D01*
X127573417Y-107191247D01*
X127573422Y-107191260D01*
X127664327Y-107373821D01*
X127787237Y-107536581D01*
X127937958Y-107673980D01*
X127937960Y-107673982D01*
X128037141Y-107735392D01*
X128111363Y-107781348D01*
X128192283Y-107812696D01*
X128247685Y-107855269D01*
X128271276Y-107921035D01*
X128255565Y-107989116D01*
X128205542Y-108037895D01*
X128179586Y-108048097D01*
X128140519Y-108058565D01*
X128140507Y-108058570D01*
X127926422Y-108158399D01*
X127926420Y-108158400D01*
X127732926Y-108293886D01*
X127732920Y-108293891D01*
X127565891Y-108460920D01*
X127565886Y-108460926D01*
X127430400Y-108654420D01*
X127430399Y-108654422D01*
X127330570Y-108868507D01*
X127330567Y-108868513D01*
X127273364Y-109081999D01*
X127273364Y-109082000D01*
X128170314Y-109082000D01*
X128144507Y-109122156D01*
X128104000Y-109260111D01*
X128104000Y-109403889D01*
X128144507Y-109541844D01*
X128170314Y-109582000D01*
X127273364Y-109582000D01*
X127330567Y-109795486D01*
X127330570Y-109795492D01*
X127430399Y-110009578D01*
X127565894Y-110203082D01*
X127732917Y-110370105D01*
X127926421Y-110505600D01*
X128140507Y-110605429D01*
X128140516Y-110605433D01*
X128179583Y-110615901D01*
X128239244Y-110652266D01*
X128269773Y-110715113D01*
X128261479Y-110784488D01*
X128216993Y-110838366D01*
X128192284Y-110851302D01*
X128111373Y-110882647D01*
X128111357Y-110882655D01*
X127937960Y-110990017D01*
X127937958Y-110990019D01*
X127787237Y-111127418D01*
X127664327Y-111290178D01*
X127573422Y-111472739D01*
X127573417Y-111472752D01*
X127517602Y-111668917D01*
X127498785Y-111871999D01*
X127498785Y-111872000D01*
X127517602Y-112075082D01*
X127573417Y-112271247D01*
X127573422Y-112271260D01*
X127664327Y-112453821D01*
X127787237Y-112616581D01*
X127937958Y-112753980D01*
X127937960Y-112753982D01*
X128037141Y-112815392D01*
X128111363Y-112861348D01*
X128301544Y-112935024D01*
X128502024Y-112972500D01*
X128502026Y-112972500D01*
X128705974Y-112972500D01*
X128705976Y-112972500D01*
X128906456Y-112935024D01*
X129096637Y-112861348D01*
X129270041Y-112753981D01*
X129420764Y-112616579D01*
X129543673Y-112453821D01*
X129634582Y-112271250D01*
X129690397Y-112075083D01*
X129709215Y-111872000D01*
X129690397Y-111668917D01*
X129634582Y-111472750D01*
X129543673Y-111290179D01*
X129420764Y-111127421D01*
X129420762Y-111127418D01*
X129270041Y-110990019D01*
X129270039Y-110990017D01*
X129096642Y-110882655D01*
X129096635Y-110882651D01*
X129015715Y-110851303D01*
X128960313Y-110808730D01*
X128936723Y-110742963D01*
X128952434Y-110674883D01*
X129002458Y-110626104D01*
X129028417Y-110615901D01*
X129067481Y-110605434D01*
X129067492Y-110605429D01*
X129281578Y-110505600D01*
X129475082Y-110370105D01*
X129642105Y-110203082D01*
X129772425Y-110016968D01*
X129827002Y-109973344D01*
X129896501Y-109966151D01*
X129958855Y-109997673D01*
X129975575Y-110016968D01*
X130105894Y-110203082D01*
X130272917Y-110370105D01*
X130466421Y-110505600D01*
X130529723Y-110535118D01*
X130582162Y-110581290D01*
X130601314Y-110648484D01*
X130581098Y-110715365D01*
X130527933Y-110760700D01*
X130477318Y-110771500D01*
X130269323Y-110771500D01*
X130196264Y-110786032D01*
X130196260Y-110786033D01*
X130113399Y-110841399D01*
X130058033Y-110924260D01*
X130058032Y-110924264D01*
X130043500Y-110997321D01*
X130043500Y-112746678D01*
X130058032Y-112819735D01*
X130058033Y-112819739D01*
X130058034Y-112819740D01*
X130113399Y-112902601D01*
X130196260Y-112957966D01*
X130196264Y-112957967D01*
X130269321Y-112972499D01*
X130269324Y-112972500D01*
X130269326Y-112972500D01*
X132018676Y-112972500D01*
X132018677Y-112972499D01*
X132091740Y-112957966D01*
X132174601Y-112902601D01*
X132229966Y-112819740D01*
X132244500Y-112746674D01*
X132244500Y-110997326D01*
X132244500Y-110997323D01*
X132244499Y-110997321D01*
X132229967Y-110924264D01*
X132229966Y-110924260D01*
X132174601Y-110841399D01*
X132091740Y-110786034D01*
X132091739Y-110786033D01*
X132091735Y-110786032D01*
X132018677Y-110771500D01*
X132018674Y-110771500D01*
X131810682Y-110771500D01*
X131743643Y-110751815D01*
X131697888Y-110699011D01*
X131687944Y-110629853D01*
X131712994Y-110575000D01*
X160052000Y-110575000D01*
X160052000Y-111047844D01*
X160058401Y-111107372D01*
X160058403Y-111107379D01*
X160108645Y-111242086D01*
X160108649Y-111242093D01*
X160194809Y-111357187D01*
X160194812Y-111357190D01*
X160309906Y-111443350D01*
X160309913Y-111443354D01*
X160444620Y-111493596D01*
X160444627Y-111493598D01*
X160504155Y-111499999D01*
X160504172Y-111500000D01*
X162402000Y-111500000D01*
X162402000Y-110575000D01*
X160052000Y-110575000D01*
X131712994Y-110575000D01*
X131716969Y-110566297D01*
X131758277Y-110535118D01*
X131821578Y-110505600D01*
X132015082Y-110370105D01*
X132182105Y-110203082D01*
X132271790Y-110075000D01*
X160052000Y-110075000D01*
X162402000Y-110075000D01*
X162402000Y-109150000D01*
X160504155Y-109150000D01*
X160444627Y-109156401D01*
X160444620Y-109156403D01*
X160309913Y-109206645D01*
X160309906Y-109206649D01*
X160194812Y-109292809D01*
X160194809Y-109292812D01*
X160108649Y-109407906D01*
X160108645Y-109407913D01*
X160058403Y-109542620D01*
X160058401Y-109542627D01*
X160052000Y-109602155D01*
X160052000Y-110075000D01*
X132271790Y-110075000D01*
X132317600Y-110009578D01*
X132417429Y-109795492D01*
X132417432Y-109795486D01*
X132474636Y-109582000D01*
X131577686Y-109582000D01*
X131603493Y-109541844D01*
X131644000Y-109403889D01*
X131644000Y-109260111D01*
X131603493Y-109122156D01*
X131577686Y-109082000D01*
X132474636Y-109082000D01*
X132474635Y-109081999D01*
X132417432Y-108868513D01*
X132417429Y-108868507D01*
X132317600Y-108654422D01*
X132317599Y-108654420D01*
X132182113Y-108460926D01*
X132182108Y-108460920D01*
X132015082Y-108293894D01*
X131821578Y-108158399D01*
X131607492Y-108058570D01*
X131607477Y-108058564D01*
X131568414Y-108048097D01*
X131508754Y-108011732D01*
X131478226Y-107948885D01*
X131486521Y-107879509D01*
X131531007Y-107825632D01*
X131555710Y-107812698D01*
X131636637Y-107781348D01*
X131810041Y-107673981D01*
X131960764Y-107536579D01*
X132083673Y-107373821D01*
X132139737Y-107261228D01*
X132187239Y-107209992D01*
X132250737Y-107192500D01*
X132477431Y-107192500D01*
X132477433Y-107192500D01*
X132498501Y-107185654D01*
X132517417Y-107181112D01*
X132539304Y-107177646D01*
X132559044Y-107167586D01*
X132577011Y-107160144D01*
X132598090Y-107153296D01*
X132616026Y-107140263D01*
X132632588Y-107130114D01*
X132652342Y-107120050D01*
X132667834Y-107104557D01*
X132667841Y-107104552D01*
X132718278Y-107054115D01*
X132973483Y-106798909D01*
X132996050Y-106776342D01*
X133006109Y-106756597D01*
X133016271Y-106740014D01*
X133029296Y-106722090D01*
X133036141Y-106701022D01*
X133043586Y-106683045D01*
X133053646Y-106663304D01*
X133057112Y-106641415D01*
X133061652Y-106622501D01*
X133068499Y-106601433D01*
X133068499Y-106572076D01*
X133068500Y-106572051D01*
X133068500Y-106247255D01*
X133088185Y-106180216D01*
X133104819Y-106159574D01*
X136781393Y-102483000D01*
X141091001Y-102483000D01*
X141091001Y-102506322D01*
X141101144Y-102605607D01*
X141154452Y-102766481D01*
X141154457Y-102766492D01*
X141243424Y-102910728D01*
X141243427Y-102910732D01*
X141363267Y-103030572D01*
X141363271Y-103030575D01*
X141507507Y-103119542D01*
X141507518Y-103119547D01*
X141668393Y-103172855D01*
X141767683Y-103182999D01*
X141815999Y-103182998D01*
X141816000Y-103182998D01*
X141816000Y-102483000D01*
X142316000Y-102483000D01*
X142316000Y-103182999D01*
X142364308Y-103182999D01*
X142364322Y-103182998D01*
X142463607Y-103172855D01*
X142624481Y-103119547D01*
X142624488Y-103119544D01*
X142760663Y-103035549D01*
X142828055Y-103017108D01*
X142890858Y-103035549D01*
X143027916Y-103120088D01*
X143027927Y-103120093D01*
X143187416Y-103172942D01*
X143285855Y-103182999D01*
X143339999Y-103182998D01*
X143340000Y-103182998D01*
X143340000Y-102495500D01*
X142638862Y-102495500D01*
X142596292Y-102483000D01*
X142316000Y-102483000D01*
X141816000Y-102483000D01*
X141091001Y-102483000D01*
X136781393Y-102483000D01*
X142827574Y-96436819D01*
X142888897Y-96403334D01*
X142915255Y-96400500D01*
X142976326Y-96400500D01*
X143601500Y-96400500D01*
X143668539Y-96420185D01*
X143714294Y-96472989D01*
X143725500Y-96524500D01*
X143725500Y-97148745D01*
X143705815Y-97215784D01*
X143689181Y-97236426D01*
X141760513Y-99165094D01*
X141737949Y-99187659D01*
X141737948Y-99187660D01*
X141727891Y-99207397D01*
X141717731Y-99223977D01*
X141704706Y-99241905D01*
X141704703Y-99241910D01*
X141697854Y-99262988D01*
X141690413Y-99280952D01*
X141680354Y-99300695D01*
X141676887Y-99322582D01*
X141672347Y-99341491D01*
X141665500Y-99362567D01*
X141665500Y-99920541D01*
X141645815Y-99987580D01*
X141593011Y-100033335D01*
X141586071Y-100036209D01*
X141585773Y-100036372D01*
X141476313Y-100118313D01*
X141394373Y-100227771D01*
X141346587Y-100355889D01*
X141340500Y-100412498D01*
X141340500Y-100953481D01*
X141340501Y-100953490D01*
X141346587Y-101010114D01*
X141384693Y-101112276D01*
X141393817Y-101136739D01*
X141394373Y-101138228D01*
X141455438Y-101219802D01*
X141479855Y-101285266D01*
X141465003Y-101353539D01*
X141421270Y-101399649D01*
X141363270Y-101435424D01*
X141243427Y-101555267D01*
X141243424Y-101555271D01*
X141154457Y-101699507D01*
X141154452Y-101699518D01*
X141101144Y-101860393D01*
X141091000Y-101959677D01*
X141091000Y-101983000D01*
X143017138Y-101983000D01*
X143059708Y-101995500D01*
X143716000Y-101995500D01*
X143783039Y-102015185D01*
X143828794Y-102067989D01*
X143840000Y-102119500D01*
X143840000Y-103182999D01*
X143894136Y-103182999D01*
X143894152Y-103182998D01*
X143992583Y-103172943D01*
X144152072Y-103120093D01*
X144152077Y-103120091D01*
X144295080Y-103031885D01*
X144413887Y-102913078D01*
X144424913Y-102895203D01*
X144476861Y-102848478D01*
X144545823Y-102837255D01*
X144604762Y-102861031D01*
X144630550Y-102880336D01*
X144630551Y-102880336D01*
X144630554Y-102880338D01*
X144657832Y-102890512D01*
X144713766Y-102932382D01*
X144738184Y-102997846D01*
X144738500Y-103006694D01*
X144738500Y-103702289D01*
X144775828Y-104105140D01*
X144775828Y-104105141D01*
X144800699Y-104238186D01*
X144850172Y-104502843D01*
X144850174Y-104502850D01*
X144958664Y-104884157D01*
X144960891Y-104891982D01*
X145012406Y-105024957D01*
X145082475Y-105205826D01*
X145107044Y-105269244D01*
X145287382Y-105631412D01*
X145500368Y-105975396D01*
X145568000Y-106064956D01*
X145744178Y-106298254D01*
X145744185Y-106298263D01*
X145865836Y-106431707D01*
X146016749Y-106597251D01*
X146153688Y-106722087D01*
X146315736Y-106869814D01*
X146315740Y-106869817D01*
X146638604Y-107113632D01*
X146982588Y-107326618D01*
X147344756Y-107506956D01*
X147722018Y-107653109D01*
X148111149Y-107763825D01*
X148111149Y-107763826D01*
X148111151Y-107763826D01*
X148111157Y-107763828D01*
X148508851Y-107838170D01*
X148508856Y-107838170D01*
X148508859Y-107838171D01*
X148703043Y-107856164D01*
X148911708Y-107875500D01*
X149051340Y-107875500D01*
X160677500Y-107875500D01*
X160744539Y-107895185D01*
X160790294Y-107947989D01*
X160801500Y-107999500D01*
X160801500Y-108159678D01*
X160816032Y-108232735D01*
X160816033Y-108232739D01*
X160816034Y-108232740D01*
X160871399Y-108315601D01*
X160951499Y-108369121D01*
X160954260Y-108370966D01*
X160954264Y-108370967D01*
X161027321Y-108385499D01*
X161027324Y-108385500D01*
X164627500Y-108385500D01*
X164694539Y-108405185D01*
X164740294Y-108457989D01*
X164751500Y-108509500D01*
X164751500Y-109026000D01*
X164731815Y-109093039D01*
X164679011Y-109138794D01*
X164627500Y-109150000D01*
X162902000Y-109150000D01*
X162902000Y-111500000D01*
X164627500Y-111500000D01*
X164694539Y-111519685D01*
X164740294Y-111572489D01*
X164751500Y-111624000D01*
X164751500Y-114375500D01*
X164731815Y-114442539D01*
X164679011Y-114488294D01*
X164627500Y-114499500D01*
X124876500Y-114499500D01*
X124809461Y-114479815D01*
X124763706Y-114427011D01*
X124752500Y-114375500D01*
X124752500Y-101712000D01*
X127498785Y-101712000D01*
X127517602Y-101915082D01*
X127573417Y-102111247D01*
X127573422Y-102111260D01*
X127664327Y-102293821D01*
X127787237Y-102456581D01*
X127937958Y-102593980D01*
X127937960Y-102593982D01*
X128011413Y-102639462D01*
X128111363Y-102701348D01*
X128301544Y-102775024D01*
X128502024Y-102812500D01*
X128502026Y-102812500D01*
X128705974Y-102812500D01*
X128705976Y-102812500D01*
X128906456Y-102775024D01*
X129096637Y-102701348D01*
X129270041Y-102593981D01*
X129420764Y-102456579D01*
X129543673Y-102293821D01*
X129634582Y-102111250D01*
X129690397Y-101915083D01*
X129709215Y-101712000D01*
X129690397Y-101508917D01*
X129640139Y-101332280D01*
X129640725Y-101262416D01*
X129671722Y-101210669D01*
X130179483Y-100702909D01*
X130202050Y-100680342D01*
X130212109Y-100660597D01*
X130222271Y-100644014D01*
X130235296Y-100626090D01*
X130242141Y-100605022D01*
X130249586Y-100587045D01*
X130259646Y-100567304D01*
X130263112Y-100545415D01*
X130267652Y-100526501D01*
X130274499Y-100505433D01*
X130274499Y-100476076D01*
X130274500Y-100476051D01*
X130274500Y-100149336D01*
X130294185Y-100082297D01*
X130346989Y-100036542D01*
X130416147Y-100026598D01*
X130472143Y-100052170D01*
X130473385Y-100050527D01*
X130477960Y-100053982D01*
X130523691Y-100082297D01*
X130651363Y-100161348D01*
X130841544Y-100235024D01*
X131042024Y-100272500D01*
X131042026Y-100272500D01*
X131245974Y-100272500D01*
X131245976Y-100272500D01*
X131446456Y-100235024D01*
X131636637Y-100161348D01*
X131810041Y-100053981D01*
X131938122Y-99937219D01*
X131960762Y-99916581D01*
X131974047Y-99898989D01*
X132083673Y-99753821D01*
X132174582Y-99571250D01*
X132230397Y-99375083D01*
X132249215Y-99172000D01*
X132247393Y-99152342D01*
X132230397Y-98968918D01*
X132207184Y-98887334D01*
X132180139Y-98792280D01*
X132180725Y-98722416D01*
X132211722Y-98670669D01*
X135591573Y-95290819D01*
X135652896Y-95257334D01*
X135679254Y-95254500D01*
X135947648Y-95254500D01*
X136014687Y-95274185D01*
X136060442Y-95326989D01*
X136064690Y-95337548D01*
X136066205Y-95341878D01*
X136066206Y-95341881D01*
X136066207Y-95341882D01*
X136146850Y-95451150D01*
X136256118Y-95531793D01*
X136298845Y-95546744D01*
X136384299Y-95576646D01*
X136414730Y-95579500D01*
X136414734Y-95579500D01*
X136923270Y-95579500D01*
X136953699Y-95576646D01*
X136953701Y-95576646D01*
X137027397Y-95550858D01*
X137081882Y-95531793D01*
X137191150Y-95451150D01*
X137271793Y-95341882D01*
X137304735Y-95247740D01*
X137316646Y-95213701D01*
X137316646Y-95213699D01*
X137319500Y-95183269D01*
X137319500Y-94524730D01*
X137316646Y-94494300D01*
X137316646Y-94494298D01*
X137274472Y-94373774D01*
X137271793Y-94366118D01*
X137191150Y-94256850D01*
X137102966Y-94191768D01*
X137060718Y-94136123D01*
X137055259Y-94066467D01*
X137088326Y-94004918D01*
X137102959Y-93992236D01*
X137191150Y-93927150D01*
X137271793Y-93817882D01*
X137312637Y-93701157D01*
X137316646Y-93689701D01*
X137316646Y-93689699D01*
X137319500Y-93659269D01*
X137319500Y-93000730D01*
X137316646Y-92970300D01*
X137316646Y-92970298D01*
X137274472Y-92849774D01*
X137271793Y-92842118D01*
X137191150Y-92732850D01*
X137102966Y-92667768D01*
X137060718Y-92612123D01*
X137055259Y-92542467D01*
X137088326Y-92480918D01*
X137102959Y-92468236D01*
X137191150Y-92403150D01*
X137271793Y-92293882D01*
X137302369Y-92206500D01*
X137316646Y-92165701D01*
X137316646Y-92165699D01*
X137319500Y-92135269D01*
X137319500Y-91476730D01*
X137316646Y-91446300D01*
X137316646Y-91446298D01*
X137277004Y-91333011D01*
X137271793Y-91318118D01*
X137191150Y-91208850D01*
X137081882Y-91128207D01*
X137081880Y-91128206D01*
X136953700Y-91083353D01*
X136923270Y-91080500D01*
X136923266Y-91080500D01*
X136414734Y-91080500D01*
X136414730Y-91080500D01*
X136384300Y-91083353D01*
X136384298Y-91083353D01*
X136256119Y-91128206D01*
X136256117Y-91128207D01*
X136146850Y-91208850D01*
X136066206Y-91318118D01*
X136066205Y-91318121D01*
X136064690Y-91322452D01*
X136023970Y-91379229D01*
X135959018Y-91404978D01*
X135947648Y-91405500D01*
X134509433Y-91405500D01*
X134382567Y-91405500D01*
X134382564Y-91405500D01*
X134382562Y-91405501D01*
X134361490Y-91412347D01*
X134342582Y-91416886D01*
X134320698Y-91420353D01*
X134320694Y-91420354D01*
X134300951Y-91430413D01*
X134282987Y-91437854D01*
X134261911Y-91444703D01*
X134243985Y-91457727D01*
X134227400Y-91467890D01*
X134207659Y-91477948D01*
X134207659Y-91477949D01*
X134185094Y-91500513D01*
X128298513Y-97387094D01*
X128275949Y-97409659D01*
X128275948Y-97409660D01*
X128265891Y-97429397D01*
X128255731Y-97445977D01*
X128242706Y-97463905D01*
X128242703Y-97463910D01*
X128235854Y-97484988D01*
X128228413Y-97502952D01*
X128218354Y-97522695D01*
X128214887Y-97544582D01*
X128210347Y-97563491D01*
X128203500Y-97584567D01*
X128203500Y-98062015D01*
X128183815Y-98129054D01*
X128131011Y-98174809D01*
X128124296Y-98177641D01*
X128111368Y-98182649D01*
X128111359Y-98182653D01*
X127937960Y-98290017D01*
X127937958Y-98290019D01*
X127787237Y-98427418D01*
X127664327Y-98590178D01*
X127573422Y-98772739D01*
X127573417Y-98772752D01*
X127517602Y-98968917D01*
X127498785Y-99171999D01*
X127498785Y-99172000D01*
X127517602Y-99375082D01*
X127573417Y-99571247D01*
X127573422Y-99571260D01*
X127664327Y-99753821D01*
X127787237Y-99916581D01*
X127908521Y-100027145D01*
X127935972Y-100052170D01*
X127937958Y-100053980D01*
X127937960Y-100053982D01*
X127983691Y-100082297D01*
X128111363Y-100161348D01*
X128301544Y-100235024D01*
X128502024Y-100272500D01*
X128502026Y-100272500D01*
X128705974Y-100272500D01*
X128705976Y-100272500D01*
X128906456Y-100235024D01*
X129096637Y-100161348D01*
X129270041Y-100053981D01*
X129270044Y-100053978D01*
X129274615Y-100050527D01*
X129276288Y-100052743D01*
X129328395Y-100027145D01*
X129397806Y-100035132D01*
X129451881Y-100079378D01*
X129473451Y-100145835D01*
X129473500Y-100149336D01*
X129473500Y-100224745D01*
X129453815Y-100291784D01*
X129437181Y-100312426D01*
X129103545Y-100646061D01*
X129042222Y-100679546D01*
X128972530Y-100674562D01*
X128971071Y-100674007D01*
X128906461Y-100648977D01*
X128890862Y-100646061D01*
X128705976Y-100611500D01*
X128502024Y-100611500D01*
X128301544Y-100648976D01*
X128301541Y-100648976D01*
X128301541Y-100648977D01*
X128111364Y-100722651D01*
X128111357Y-100722655D01*
X127937960Y-100830017D01*
X127937958Y-100830019D01*
X127787237Y-100967418D01*
X127664327Y-101130178D01*
X127573422Y-101312739D01*
X127573417Y-101312752D01*
X127517602Y-101508917D01*
X127498785Y-101711999D01*
X127498785Y-101712000D01*
X124752500Y-101712000D01*
X124752500Y-73624500D01*
X124772185Y-73557461D01*
X124824989Y-73511706D01*
X124876500Y-73500500D01*
X164627500Y-73500500D01*
X164694539Y-73520185D01*
G37*
G04 #@! TD.AperFunction*
G04 #@! TA.AperFunction,Conductor*
G36*
X130684507Y-109122156D02*
G01*
X130644000Y-109260111D01*
X130644000Y-109403889D01*
X130684507Y-109541844D01*
X130710314Y-109582000D01*
X129037686Y-109582000D01*
X129063493Y-109541844D01*
X129104000Y-109403889D01*
X129104000Y-109260111D01*
X129063493Y-109122156D01*
X129037686Y-109082000D01*
X130710314Y-109082000D01*
X130684507Y-109122156D01*
G37*
G04 #@! TD.AperFunction*
G04 #@! TA.AperFunction,Conductor*
G36*
X160738585Y-94399450D02*
G01*
X160787229Y-94449605D01*
X160801500Y-94507360D01*
X160801500Y-94659678D01*
X160816032Y-94732735D01*
X160816033Y-94732739D01*
X160829077Y-94752260D01*
X160871399Y-94815601D01*
X160951499Y-94869121D01*
X160954260Y-94870966D01*
X160954264Y-94870967D01*
X161027321Y-94885499D01*
X161027324Y-94885500D01*
X164627500Y-94885500D01*
X164694539Y-94905185D01*
X164740294Y-94957989D01*
X164751500Y-95009500D01*
X164751500Y-95526000D01*
X164731815Y-95593039D01*
X164679011Y-95638794D01*
X164627500Y-95650000D01*
X162902000Y-95650000D01*
X162902000Y-98000000D01*
X164627500Y-98000000D01*
X164694539Y-98019685D01*
X164740294Y-98072489D01*
X164751500Y-98124000D01*
X164751500Y-103376000D01*
X164731815Y-103443039D01*
X164679011Y-103488794D01*
X164627500Y-103500000D01*
X162902000Y-103500000D01*
X162902000Y-105850000D01*
X164627500Y-105850000D01*
X164694539Y-105869685D01*
X164740294Y-105922489D01*
X164751500Y-105974000D01*
X164751500Y-106490500D01*
X164731815Y-106557539D01*
X164679011Y-106603294D01*
X164627500Y-106614500D01*
X161027323Y-106614500D01*
X160954264Y-106629032D01*
X160954260Y-106629033D01*
X160871399Y-106684399D01*
X160816033Y-106767260D01*
X160816032Y-106767264D01*
X160801500Y-106840321D01*
X160801500Y-107000500D01*
X160781815Y-107067539D01*
X160729011Y-107113294D01*
X160677500Y-107124500D01*
X149115529Y-107124500D01*
X149112486Y-107124425D01*
X148761779Y-107107195D01*
X148755720Y-107106599D01*
X148409910Y-107055302D01*
X148403939Y-107054115D01*
X148064812Y-106969168D01*
X148058993Y-106967403D01*
X147729837Y-106849629D01*
X147724217Y-106847301D01*
X147408173Y-106697824D01*
X147402808Y-106694957D01*
X147102954Y-106515231D01*
X147097892Y-106511849D01*
X146817085Y-106303587D01*
X146812379Y-106299725D01*
X146754487Y-106247255D01*
X146553333Y-106064941D01*
X146549058Y-106060666D01*
X146314272Y-105801618D01*
X146310412Y-105796914D01*
X146102150Y-105516107D01*
X146098768Y-105511045D01*
X146003740Y-105352500D01*
X145919038Y-105211184D01*
X145916175Y-105205826D01*
X145766698Y-104889782D01*
X145764374Y-104884172D01*
X145646592Y-104554993D01*
X145644831Y-104549187D01*
X145613724Y-104425000D01*
X145559883Y-104210056D01*
X145558697Y-104204089D01*
X145526036Y-103983913D01*
X145507399Y-103858271D01*
X145506804Y-103852220D01*
X145489575Y-103501512D01*
X145489500Y-103498470D01*
X145489500Y-103006694D01*
X145509185Y-102939655D01*
X145561989Y-102893900D01*
X145570168Y-102890512D01*
X145597445Y-102880338D01*
X145597445Y-102880337D01*
X145597450Y-102880336D01*
X145625127Y-102859617D01*
X145690589Y-102835200D01*
X145758862Y-102850051D01*
X145804976Y-102893788D01*
X145815426Y-102910731D01*
X145935267Y-103030572D01*
X145935271Y-103030575D01*
X146079507Y-103119542D01*
X146079518Y-103119547D01*
X146240393Y-103172855D01*
X146339683Y-103182999D01*
X146387999Y-103182998D01*
X146388000Y-103182998D01*
X146388000Y-102107000D01*
X146407685Y-102039961D01*
X146460489Y-101994206D01*
X146512000Y-101983000D01*
X146764000Y-101983000D01*
X146831039Y-102002685D01*
X146876794Y-102055489D01*
X146888000Y-102107000D01*
X146888000Y-103182999D01*
X146936308Y-103182999D01*
X146936322Y-103182998D01*
X147035607Y-103172855D01*
X147196481Y-103119547D01*
X147196492Y-103119542D01*
X147340728Y-103030575D01*
X147340732Y-103030572D01*
X147460573Y-102910731D01*
X147472341Y-102891653D01*
X147524289Y-102844928D01*
X147593251Y-102833705D01*
X147652187Y-102857480D01*
X147681774Y-102879628D01*
X147681777Y-102879629D01*
X147717735Y-102893041D01*
X147773669Y-102934912D01*
X147797498Y-102994276D01*
X147801906Y-103030575D01*
X147821140Y-103188979D01*
X147872252Y-103396349D01*
X147889915Y-103468010D01*
X147889916Y-103468015D01*
X147923531Y-103556649D01*
X147991822Y-103736718D01*
X147991824Y-103736722D01*
X147991825Y-103736724D01*
X147991825Y-103736725D01*
X148123556Y-103987715D01*
X148125376Y-103991182D01*
X148288628Y-104227693D01*
X148288630Y-104227695D01*
X148288632Y-104227698D01*
X148479196Y-104442801D01*
X148479198Y-104442803D01*
X148694301Y-104633367D01*
X148694307Y-104633372D01*
X148930818Y-104796624D01*
X148930820Y-104796625D01*
X149157557Y-104915627D01*
X149185282Y-104930178D01*
X149394357Y-105009469D01*
X149453984Y-105032083D01*
X149453985Y-105032083D01*
X149453990Y-105032085D01*
X149733021Y-105100860D01*
X149953644Y-105127648D01*
X150018306Y-105135500D01*
X150018309Y-105135500D01*
X154990897Y-105135500D01*
X154990902Y-105135500D01*
X155342769Y-105098517D01*
X155688843Y-105024957D01*
X155996478Y-104925000D01*
X160052000Y-104925000D01*
X160052000Y-105397844D01*
X160058401Y-105457372D01*
X160058403Y-105457379D01*
X160108645Y-105592086D01*
X160108649Y-105592093D01*
X160194809Y-105707187D01*
X160194812Y-105707190D01*
X160309906Y-105793350D01*
X160309913Y-105793354D01*
X160444620Y-105843596D01*
X160444627Y-105843598D01*
X160504155Y-105849999D01*
X160504172Y-105850000D01*
X162402000Y-105850000D01*
X162402000Y-104925000D01*
X160052000Y-104925000D01*
X155996478Y-104925000D01*
X156025331Y-104915625D01*
X156348548Y-104771720D01*
X156654952Y-104594817D01*
X156888685Y-104425000D01*
X160052000Y-104425000D01*
X162402000Y-104425000D01*
X162402000Y-103500000D01*
X160504155Y-103500000D01*
X160444627Y-103506401D01*
X160444620Y-103506403D01*
X160309913Y-103556645D01*
X160309906Y-103556649D01*
X160194812Y-103642809D01*
X160194809Y-103642812D01*
X160108649Y-103757906D01*
X160108645Y-103757913D01*
X160058403Y-103892620D01*
X160058401Y-103892627D01*
X160052000Y-103952155D01*
X160052000Y-104425000D01*
X156888685Y-104425000D01*
X156941186Y-104386856D01*
X157204114Y-104150114D01*
X157440856Y-103887186D01*
X157648817Y-103600952D01*
X157825720Y-103294548D01*
X157969625Y-102971331D01*
X158078957Y-102634843D01*
X158152517Y-102288769D01*
X158189500Y-101936902D01*
X158189500Y-101760000D01*
X158189500Y-101706011D01*
X158189500Y-97075000D01*
X160052000Y-97075000D01*
X160052000Y-97547844D01*
X160058401Y-97607372D01*
X160058403Y-97607379D01*
X160108645Y-97742086D01*
X160108649Y-97742093D01*
X160194809Y-97857187D01*
X160194812Y-97857190D01*
X160309906Y-97943350D01*
X160309913Y-97943354D01*
X160444620Y-97993596D01*
X160444627Y-97993598D01*
X160504155Y-97999999D01*
X160504172Y-98000000D01*
X162402000Y-98000000D01*
X162402000Y-97075000D01*
X160052000Y-97075000D01*
X158189500Y-97075000D01*
X158189500Y-97001741D01*
X158189598Y-96998264D01*
X158200833Y-96798185D01*
X158205807Y-96709616D01*
X158206583Y-96702727D01*
X158228285Y-96575000D01*
X160052000Y-96575000D01*
X162402000Y-96575000D01*
X162402000Y-95650000D01*
X160504155Y-95650000D01*
X160444627Y-95656401D01*
X160444620Y-95656403D01*
X160309913Y-95706645D01*
X160309906Y-95706649D01*
X160194812Y-95792809D01*
X160194809Y-95792812D01*
X160108649Y-95907906D01*
X160108645Y-95907913D01*
X160058403Y-96042620D01*
X160058401Y-96042627D01*
X160052000Y-96102155D01*
X160052000Y-96575000D01*
X158228285Y-96575000D01*
X158254719Y-96419422D01*
X158256263Y-96412654D01*
X158335817Y-96136517D01*
X158338106Y-96129974D01*
X158448080Y-95864473D01*
X158451083Y-95858238D01*
X158590088Y-95606727D01*
X158593784Y-95600846D01*
X158760070Y-95366487D01*
X158764398Y-95361060D01*
X158955878Y-95146793D01*
X158960796Y-95141876D01*
X159175060Y-94950398D01*
X159180487Y-94946070D01*
X159414846Y-94779784D01*
X159420727Y-94776088D01*
X159672238Y-94637083D01*
X159678473Y-94634080D01*
X159943974Y-94524106D01*
X159950517Y-94521817D01*
X160226654Y-94442263D01*
X160233422Y-94440719D01*
X160516727Y-94392583D01*
X160523615Y-94391807D01*
X160670548Y-94383555D01*
X160738585Y-94399450D01*
G37*
G04 #@! TD.AperFunction*
G04 #@! TA.AperFunction,Conductor*
G36*
X144672944Y-97497736D02*
G01*
X144716396Y-97552450D01*
X144725500Y-97599085D01*
X144725500Y-99914154D01*
X144705815Y-99981193D01*
X144653011Y-100026948D01*
X144644839Y-100030334D01*
X144630549Y-100035664D01*
X144522528Y-100116528D01*
X144451267Y-100211721D01*
X144395333Y-100253592D01*
X144325641Y-100258576D01*
X144264318Y-100225091D01*
X144252733Y-100211721D01*
X144224958Y-100174619D01*
X144181472Y-100116528D01*
X144073450Y-100035664D01*
X144073447Y-100035662D01*
X143947024Y-99988509D01*
X143891144Y-99982500D01*
X143891130Y-99982500D01*
X143288870Y-99982500D01*
X143288855Y-99982500D01*
X143232975Y-99988509D01*
X143106552Y-100035662D01*
X143106549Y-100035664D01*
X142998525Y-100116530D01*
X142925705Y-100213806D01*
X142869772Y-100255677D01*
X142800080Y-100260661D01*
X142738757Y-100227176D01*
X142727172Y-100213806D01*
X142680530Y-100151500D01*
X142655687Y-100118313D01*
X142546226Y-100036372D01*
X142538444Y-100032123D01*
X142539191Y-100030753D01*
X142491232Y-99994850D01*
X142466816Y-99929385D01*
X142466500Y-99920541D01*
X142466500Y-99643255D01*
X142486185Y-99576216D01*
X142502819Y-99555574D01*
X144397074Y-97661319D01*
X144458397Y-97627834D01*
X144474945Y-97626054D01*
X144476000Y-97625000D01*
X144476000Y-97602029D01*
X144489515Y-97545735D01*
X144491015Y-97542791D01*
X144538988Y-97491995D01*
X144606809Y-97475199D01*
X144672944Y-97497736D01*
G37*
G04 #@! TD.AperFunction*
G04 #@! TA.AperFunction,Conductor*
G36*
X152533580Y-96798185D02*
G01*
X152579335Y-96850989D01*
X152582209Y-96857928D01*
X152582372Y-96858226D01*
X152664313Y-96967687D01*
X152731586Y-97018047D01*
X152761891Y-97040733D01*
X152803762Y-97096667D01*
X152808746Y-97166359D01*
X152775261Y-97227682D01*
X152761891Y-97239267D01*
X152664313Y-97312313D01*
X152582373Y-97421771D01*
X152582372Y-97421774D01*
X152544730Y-97522696D01*
X152534587Y-97549889D01*
X152528500Y-97606498D01*
X152528500Y-98197481D01*
X152528501Y-98197490D01*
X152534587Y-98254114D01*
X152569199Y-98346909D01*
X152582372Y-98382226D01*
X152664313Y-98491687D01*
X152720192Y-98533517D01*
X152761891Y-98564733D01*
X152803762Y-98620667D01*
X152808746Y-98690359D01*
X152775261Y-98751682D01*
X152761891Y-98763267D01*
X152664310Y-98836315D01*
X152661185Y-98840490D01*
X152605248Y-98882356D01*
X152535556Y-98887334D01*
X152474244Y-98853851D01*
X150750940Y-97130547D01*
X150717455Y-97069224D01*
X150722439Y-96999532D01*
X150764311Y-96943599D01*
X150829775Y-96919182D01*
X150854802Y-96919926D01*
X150932754Y-96930189D01*
X150955999Y-96933250D01*
X150956000Y-96933250D01*
X150956001Y-96933250D01*
X150970977Y-96931278D01*
X151099709Y-96914330D01*
X151233625Y-96858861D01*
X151280280Y-96823060D01*
X151304960Y-96804124D01*
X151370129Y-96778930D01*
X151380446Y-96778500D01*
X152466541Y-96778500D01*
X152533580Y-96798185D01*
G37*
G04 #@! TD.AperFunction*
G04 #@! TA.AperFunction,Conductor*
G36*
X140137784Y-84352185D02*
G01*
X140158426Y-84368819D01*
X140710956Y-84921349D01*
X140867737Y-85078129D01*
X140901222Y-85139452D01*
X140896238Y-85209143D01*
X140854367Y-85265077D01*
X140788902Y-85289494D01*
X140741053Y-85283516D01*
X140685608Y-85265144D01*
X140586322Y-85255000D01*
X140538000Y-85255000D01*
X140538000Y-86331000D01*
X140518315Y-86398039D01*
X140465511Y-86443794D01*
X140414000Y-86455000D01*
X137789001Y-86455000D01*
X137789001Y-86478322D01*
X137799144Y-86577607D01*
X137852452Y-86738481D01*
X137852457Y-86738492D01*
X137941424Y-86882728D01*
X137941427Y-86882732D01*
X138061266Y-87002571D01*
X138119268Y-87038347D01*
X138165992Y-87090295D01*
X138177215Y-87159258D01*
X138153439Y-87218195D01*
X138088602Y-87304809D01*
X138032669Y-87346681D01*
X137989334Y-87354500D01*
X135922948Y-87354500D01*
X135922924Y-87354501D01*
X135893564Y-87354501D01*
X135872499Y-87361346D01*
X135853582Y-87365887D01*
X135831700Y-87369352D01*
X135831695Y-87369354D01*
X135811950Y-87379414D01*
X135793986Y-87386855D01*
X135772907Y-87393705D01*
X135754984Y-87406727D01*
X135738399Y-87416890D01*
X135718659Y-87426948D01*
X135707375Y-87438232D01*
X135696091Y-87449517D01*
X134843321Y-88302286D01*
X134570426Y-88575181D01*
X134509103Y-88608666D01*
X134482745Y-88611500D01*
X132368500Y-88611500D01*
X132301461Y-88591815D01*
X132255706Y-88539011D01*
X132244500Y-88487500D01*
X132244500Y-88137323D01*
X132244499Y-88137321D01*
X132229967Y-88064264D01*
X132229966Y-88064260D01*
X132226629Y-88059266D01*
X132174601Y-87981399D01*
X132091740Y-87926034D01*
X132091739Y-87926033D01*
X132091735Y-87926032D01*
X132018677Y-87911500D01*
X132018674Y-87911500D01*
X131810682Y-87911500D01*
X131743643Y-87891815D01*
X131697888Y-87839011D01*
X131687944Y-87769853D01*
X131716969Y-87706297D01*
X131758277Y-87675118D01*
X131821578Y-87645600D01*
X132015082Y-87510105D01*
X132182105Y-87343082D01*
X132317600Y-87149578D01*
X132417429Y-86935492D01*
X132417432Y-86935486D01*
X132474636Y-86722000D01*
X131577686Y-86722000D01*
X131603493Y-86681844D01*
X131644000Y-86543889D01*
X131644000Y-86400111D01*
X131603493Y-86262156D01*
X131577686Y-86222000D01*
X132474636Y-86222000D01*
X132474635Y-86221999D01*
X132417432Y-86008513D01*
X132417429Y-86008507D01*
X132392478Y-85955000D01*
X137789000Y-85955000D01*
X138514000Y-85955000D01*
X139014000Y-85955000D01*
X140038000Y-85955000D01*
X140038000Y-85255000D01*
X140037999Y-85254999D01*
X139989693Y-85255000D01*
X139989675Y-85255001D01*
X139890392Y-85265144D01*
X139729518Y-85318452D01*
X139729507Y-85318457D01*
X139591097Y-85403831D01*
X139523705Y-85422272D01*
X139460903Y-85403831D01*
X139322492Y-85318457D01*
X139322481Y-85318452D01*
X139161606Y-85265144D01*
X139062322Y-85255000D01*
X139014000Y-85255000D01*
X139014000Y-85955000D01*
X138514000Y-85955000D01*
X138514000Y-85255000D01*
X138513999Y-85254999D01*
X138465693Y-85255000D01*
X138465675Y-85255001D01*
X138366392Y-85265144D01*
X138205518Y-85318452D01*
X138205507Y-85318457D01*
X138061271Y-85407424D01*
X138061267Y-85407427D01*
X137941427Y-85527267D01*
X137941424Y-85527271D01*
X137852457Y-85671507D01*
X137852452Y-85671518D01*
X137799144Y-85832393D01*
X137789000Y-85931677D01*
X137789000Y-85955000D01*
X132392478Y-85955000D01*
X132317600Y-85794422D01*
X132317599Y-85794420D01*
X132182113Y-85600926D01*
X132182108Y-85600920D01*
X132015082Y-85433894D01*
X131821578Y-85298399D01*
X131607492Y-85198570D01*
X131607477Y-85198564D01*
X131568414Y-85188097D01*
X131508754Y-85151732D01*
X131478226Y-85088885D01*
X131486521Y-85019509D01*
X131531007Y-84965632D01*
X131555710Y-84952698D01*
X131636637Y-84921348D01*
X131810041Y-84813981D01*
X131960764Y-84676579D01*
X132083673Y-84513821D01*
X132139737Y-84401228D01*
X132187239Y-84349992D01*
X132250737Y-84332500D01*
X140070745Y-84332500D01*
X140137784Y-84352185D01*
G37*
G04 #@! TD.AperFunction*
G04 #@! TA.AperFunction,Conductor*
G36*
X130684507Y-86262156D02*
G01*
X130644000Y-86400111D01*
X130644000Y-86543889D01*
X130684507Y-86681844D01*
X130710314Y-86722000D01*
X129037686Y-86722000D01*
X129063493Y-86681844D01*
X129104000Y-86543889D01*
X129104000Y-86400111D01*
X129063493Y-86262156D01*
X129037686Y-86222000D01*
X130710314Y-86222000D01*
X130684507Y-86262156D01*
G37*
G04 #@! TD.AperFunction*
M02*
