G04 #@! TF.GenerationSoftware,KiCad,Pcbnew,7.0.8*
G04 #@! TF.CreationDate,2023-12-20T18:07:40+01:00*
G04 #@! TF.ProjectId,sx1255_eval,73783132-3535-45f6-9576-616c2e6b6963,rev?*
G04 #@! TF.SameCoordinates,Original*
G04 #@! TF.FileFunction,Paste,Top*
G04 #@! TF.FilePolarity,Positive*
%FSLAX46Y46*%
G04 Gerber Fmt 4.6, Leading zero omitted, Abs format (unit mm)*
G04 Created by KiCad (PCBNEW 7.0.8) date 2023-12-20 18:07:40*
%MOMM*%
%LPD*%
G01*
G04 APERTURE LIST*
G04 Aperture macros list*
%AMRoundRect*
0 Rectangle with rounded corners*
0 $1 Rounding radius*
0 $2 $3 $4 $5 $6 $7 $8 $9 X,Y pos of 4 corners*
0 Add a 4 corners polygon primitive as box body*
4,1,4,$2,$3,$4,$5,$6,$7,$8,$9,$2,$3,0*
0 Add four circle primitives for the rounded corners*
1,1,$1+$1,$2,$3*
1,1,$1+$1,$4,$5*
1,1,$1+$1,$6,$7*
1,1,$1+$1,$8,$9*
0 Add four rect primitives between the rounded corners*
20,1,$1+$1,$2,$3,$4,$5,0*
20,1,$1+$1,$4,$5,$6,$7,0*
20,1,$1+$1,$6,$7,$8,$9,0*
20,1,$1+$1,$8,$9,$2,$3,0*%
G04 Aperture macros list end*
%ADD10R,0.850000X0.300000*%
%ADD11R,0.300000X0.850000*%
%ADD12R,3.200000X3.200000*%
%ADD13RoundRect,0.218750X0.256250X-0.218750X0.256250X0.218750X-0.256250X0.218750X-0.256250X-0.218750X0*%
%ADD14RoundRect,0.200000X-0.200000X-0.275000X0.200000X-0.275000X0.200000X0.275000X-0.200000X0.275000X0*%
%ADD15R,3.600000X1.270000*%
%ADD16R,4.200000X1.350000*%
%ADD17RoundRect,0.225000X-0.225000X-0.250000X0.225000X-0.250000X0.225000X0.250000X-0.225000X0.250000X0*%
%ADD18RoundRect,0.200000X0.275000X-0.200000X0.275000X0.200000X-0.275000X0.200000X-0.275000X-0.200000X0*%
%ADD19RoundRect,0.225000X-0.250000X0.225000X-0.250000X-0.225000X0.250000X-0.225000X0.250000X0.225000X0*%
%ADD20RoundRect,0.225000X0.250000X-0.225000X0.250000X0.225000X-0.250000X0.225000X-0.250000X-0.225000X0*%
G04 APERTURE END LIST*
D10*
X148326000Y-96000000D03*
X148326000Y-95500000D03*
X148326000Y-95000000D03*
X148326000Y-94500000D03*
X148326000Y-94000000D03*
X148326000Y-93500000D03*
X148326000Y-93000000D03*
X148326000Y-92500000D03*
D11*
X147626000Y-91800000D03*
X147126000Y-91800000D03*
X146626000Y-91800000D03*
X146126000Y-91800000D03*
X145626000Y-91800000D03*
X145126000Y-91800000D03*
X144626000Y-91800000D03*
X144126000Y-91800000D03*
D10*
X143426000Y-92500000D03*
X143426000Y-93000000D03*
X143426000Y-93500000D03*
X143426000Y-94000000D03*
X143426000Y-94500000D03*
X143426000Y-95000000D03*
X143426000Y-95500000D03*
X143426000Y-96000000D03*
D11*
X144126000Y-96700000D03*
X144626000Y-96700000D03*
X145126000Y-96700000D03*
X145626000Y-96700000D03*
X146126000Y-96700000D03*
X146626000Y-96700000D03*
X147126000Y-96700000D03*
X147626000Y-96700000D03*
D12*
X145876000Y-94250000D03*
D13*
X145114000Y-102245500D03*
X145114000Y-100670500D03*
D14*
X136669000Y-91806000D03*
X138319000Y-91806000D03*
D13*
X143590000Y-102245500D03*
X143590000Y-100670500D03*
D15*
X162852000Y-80500000D03*
D16*
X162652000Y-83325000D03*
X162652000Y-77675000D03*
D17*
X153229000Y-99426000D03*
X154779000Y-99426000D03*
D15*
X162852000Y-107500000D03*
D16*
X162652000Y-110325000D03*
X162652000Y-104675000D03*
D18*
X144860000Y-87805000D03*
X144860000Y-86155000D03*
D19*
X146638000Y-100683000D03*
X146638000Y-102233000D03*
X151210000Y-100683000D03*
X151210000Y-102233000D03*
D18*
X141812000Y-87805000D03*
X141812000Y-86155000D03*
D20*
X140288000Y-87755000D03*
X140288000Y-86205000D03*
D14*
X136669000Y-93330000D03*
X138319000Y-93330000D03*
D19*
X149686000Y-100683000D03*
X149686000Y-102233000D03*
D18*
X147908000Y-87805000D03*
X147908000Y-86155000D03*
X149432000Y-87805000D03*
X149432000Y-86155000D03*
D19*
X148162000Y-100683000D03*
X148162000Y-102233000D03*
D17*
X153229000Y-94854000D03*
X154779000Y-94854000D03*
X153229000Y-96378000D03*
X154779000Y-96378000D03*
D19*
X142066000Y-100683000D03*
X142066000Y-102233000D03*
D17*
X153229000Y-97902000D03*
X154779000Y-97902000D03*
D18*
X146384000Y-87805000D03*
X146384000Y-86155000D03*
D14*
X136669000Y-94854000D03*
X138319000Y-94854000D03*
D20*
X138764000Y-87755000D03*
X138764000Y-86205000D03*
D18*
X143336000Y-87805000D03*
X143336000Y-86155000D03*
D17*
X153229000Y-93330000D03*
X154779000Y-93330000D03*
D15*
X162852000Y-94000000D03*
D16*
X162652000Y-96825000D03*
X162652000Y-91175000D03*
M02*
