G04 #@! TF.GenerationSoftware,KiCad,Pcbnew,7.0.8*
G04 #@! TF.CreationDate,2023-12-20T18:07:39+01:00*
G04 #@! TF.ProjectId,sx1255_eval,73783132-3535-45f6-9576-616c2e6b6963,rev?*
G04 #@! TF.SameCoordinates,Original*
G04 #@! TF.FileFunction,Copper,L2,Bot*
G04 #@! TF.FilePolarity,Positive*
%FSLAX46Y46*%
G04 Gerber Fmt 4.6, Leading zero omitted, Abs format (unit mm)*
G04 Created by KiCad (PCBNEW 7.0.8) date 2023-12-20 18:07:39*
%MOMM*%
%LPD*%
G01*
G04 APERTURE LIST*
G04 #@! TA.AperFunction,ComponentPad*
%ADD10R,1.700000X1.700000*%
G04 #@! TD*
G04 #@! TA.AperFunction,ComponentPad*
%ADD11O,1.700000X1.700000*%
G04 #@! TD*
G04 #@! TA.AperFunction,SMDPad,CuDef*
%ADD12R,4.200000X1.350000*%
G04 #@! TD*
G04 #@! TA.AperFunction,ViaPad*
%ADD13C,0.600000*%
G04 #@! TD*
G04 #@! TA.AperFunction,Conductor*
%ADD14C,0.300000*%
G04 #@! TD*
G04 APERTURE END LIST*
D10*
X131144000Y-111872000D03*
D11*
X128604000Y-111872000D03*
X131144000Y-109332000D03*
X128604000Y-109332000D03*
X131144000Y-106792000D03*
X128604000Y-106792000D03*
X131144000Y-104252000D03*
X128604000Y-104252000D03*
X131144000Y-101712000D03*
X128604000Y-101712000D03*
X131144000Y-99172000D03*
X128604000Y-99172000D03*
D12*
X162652000Y-83325000D03*
X162652000Y-77675000D03*
X162652000Y-110325000D03*
X162652000Y-104675000D03*
D10*
X151210000Y-76312000D03*
D11*
X148670000Y-76312000D03*
X146130000Y-76312000D03*
D10*
X131144000Y-89012000D03*
D11*
X128604000Y-89012000D03*
X131144000Y-86472000D03*
X128604000Y-86472000D03*
X131144000Y-83932000D03*
X128604000Y-83932000D03*
X131144000Y-81392000D03*
X128604000Y-81392000D03*
X131144000Y-78852000D03*
X128604000Y-78852000D03*
X131144000Y-76312000D03*
X128604000Y-76312000D03*
D12*
X162652000Y-96825000D03*
X162652000Y-91175000D03*
D13*
X150956000Y-96378000D03*
X148797000Y-98537000D03*
X142066000Y-91298000D03*
X156826467Y-105213043D03*
X156036000Y-94854000D03*
X158622836Y-81500000D03*
X137240000Y-85202000D03*
X135970000Y-90028000D03*
X162640000Y-76058000D03*
X156511385Y-108500000D03*
X157985575Y-94171573D03*
X157568154Y-108500000D03*
X161370000Y-84948000D03*
X130890000Y-90536000D03*
X141050000Y-91552000D03*
X152988000Y-77328000D03*
X138764000Y-85202000D03*
X146335200Y-104624460D03*
X133938000Y-90536000D03*
X162640000Y-112126000D03*
X133176000Y-110602000D03*
X156814000Y-99380000D03*
X154764935Y-103761204D03*
X155454616Y-108500000D03*
X156815205Y-96950932D03*
X152488000Y-105760000D03*
X145114000Y-93330000D03*
X155454616Y-106500000D03*
X149940000Y-93076000D03*
X145876000Y-94250000D03*
X147400000Y-79868000D03*
X146638000Y-93330000D03*
X134954000Y-98156000D03*
X136732000Y-96378000D03*
X154766000Y-100696000D03*
X161370000Y-89520000D03*
X162640000Y-98410000D03*
X145114000Y-95108000D03*
X144098000Y-76566000D03*
X152988000Y-75312000D03*
X150448000Y-98918000D03*
X162640000Y-89520000D03*
X146927584Y-107991611D03*
X153242000Y-100696000D03*
X146130000Y-103744000D03*
X156755371Y-77268157D03*
X126572000Y-86472000D03*
X139780000Y-90536000D03*
X126572000Y-78852000D03*
X147989537Y-106278799D03*
X156814000Y-100570000D03*
X163910000Y-84948000D03*
X142066000Y-103490000D03*
X152226000Y-88504000D03*
X128604000Y-95616000D03*
X139272000Y-100950000D03*
X150211065Y-103761204D03*
X149940000Y-79868000D03*
X133176000Y-109332000D03*
X146993531Y-105620467D03*
X152226000Y-85333692D03*
X162640000Y-102982000D03*
X155880255Y-105612772D03*
X133938000Y-106284000D03*
X126572000Y-108062000D03*
X144251488Y-104645743D03*
X155466022Y-78807236D03*
X161370000Y-102982000D03*
X151718000Y-97394000D03*
X163910000Y-98410000D03*
X151464000Y-78598000D03*
X142828000Y-97394000D03*
X155267475Y-75780261D03*
X157360961Y-94987534D03*
X158814000Y-100570000D03*
X152488000Y-103760000D03*
X158624924Y-106500000D03*
X158243267Y-78756053D03*
X151325000Y-105760000D03*
X146638000Y-95108000D03*
X156213640Y-79554854D03*
X126572000Y-75042000D03*
X156036000Y-97902000D03*
X159681693Y-106500000D03*
X156961257Y-80302471D03*
X150194000Y-81138000D03*
X137494000Y-102728000D03*
X158812795Y-97049068D03*
X153341077Y-106500000D03*
X158814000Y-99380000D03*
X126572000Y-87742000D03*
X156011423Y-76524209D03*
X156511385Y-106500000D03*
X133176000Y-85202000D03*
X148040680Y-104881321D03*
X149114000Y-106500000D03*
X132414000Y-92060000D03*
X154366304Y-75312000D03*
X163910000Y-89520000D03*
X152226000Y-89560769D03*
X133176000Y-108062000D03*
X152226000Y-87447230D03*
X133176000Y-87742000D03*
X152226000Y-90617538D03*
X152226000Y-84276923D03*
X152988000Y-78598000D03*
X151227539Y-106500000D03*
X135716000Y-104506000D03*
X126572000Y-77582000D03*
X153341077Y-108500000D03*
X156814000Y-98190000D03*
X162640000Y-84948000D03*
X149114000Y-108500000D03*
X159829739Y-95262419D03*
X147400000Y-78598000D03*
X153651000Y-105760000D03*
X159076417Y-96015741D03*
X150170770Y-106500000D03*
X152226000Y-83220153D03*
X153651000Y-103760000D03*
X156036000Y-93330000D03*
X158814000Y-98190000D03*
X156551585Y-102744263D03*
X157499319Y-78012105D03*
X130890000Y-93584000D03*
X161370000Y-98410000D03*
X143844000Y-99426000D03*
X154397847Y-108500000D03*
X163910000Y-102982000D03*
X155798263Y-103497585D03*
X156961232Y-95933744D03*
X157568154Y-106500000D03*
X153242000Y-92060000D03*
X159681693Y-108500000D03*
X126572000Y-110602000D03*
X154718404Y-78059618D03*
X150112935Y-105758796D03*
X145210411Y-106622028D03*
X133176000Y-99934000D03*
X149940000Y-78598000D03*
X163910000Y-112126000D03*
X145991977Y-107403593D03*
X151227539Y-108500000D03*
X143590000Y-103490000D03*
X126572000Y-76312000D03*
X135208000Y-85964000D03*
X151210000Y-82154000D03*
X156036000Y-96378000D03*
X154766000Y-92060000D03*
X128604000Y-91552000D03*
X154397847Y-106500000D03*
X158987214Y-79500000D03*
X126572000Y-109332000D03*
X126572000Y-85202000D03*
X147400032Y-103930608D03*
X148670000Y-97140000D03*
X158812796Y-101809065D03*
X151325000Y-103760000D03*
X157642428Y-104588428D03*
X161370000Y-76058000D03*
X146130000Y-78598000D03*
X157708875Y-81050089D03*
X128604000Y-93584000D03*
X158267043Y-103772467D03*
X158666772Y-102826255D03*
X152284308Y-108500000D03*
X133176000Y-86472000D03*
X153970786Y-77312000D03*
X158801536Y-93546959D03*
X158624924Y-108500000D03*
X137240000Y-86726000D03*
X147968263Y-108362514D03*
X156815204Y-101710935D03*
X159846000Y-79500000D03*
X150170770Y-108500000D03*
X148991393Y-105521971D03*
X163910000Y-76058000D03*
X140288000Y-85202000D03*
X141050000Y-99172000D03*
X152226000Y-86390461D03*
X159747747Y-93147231D03*
X144622392Y-105686422D03*
X151210000Y-91806000D03*
X156036000Y-99426000D03*
X152284308Y-106500000D03*
X159846000Y-81500000D03*
X154814000Y-105760000D03*
X161370000Y-112126000D03*
X138764000Y-89266000D03*
D14*
X142066000Y-94854000D02*
X145749000Y-98537000D01*
X129874000Y-111872000D02*
X131144000Y-111872000D01*
X150956000Y-96378000D02*
X148797000Y-98537000D01*
X145749000Y-98537000D02*
X148797000Y-98537000D01*
X131144000Y-89012000D02*
X129874000Y-89012000D01*
X142066000Y-91298000D02*
X142066000Y-94854000D01*
X129874000Y-89012000D02*
X128604000Y-89012000D01*
X129874000Y-89012000D02*
X129874000Y-111872000D01*
X128604000Y-111872000D02*
X129874000Y-111872000D01*
G04 #@! TA.AperFunction,Conductor*
G36*
X129416539Y-109101685D02*
G01*
X129462294Y-109154489D01*
X129473500Y-109206000D01*
X129473500Y-109458000D01*
X129453815Y-109525039D01*
X129401011Y-109570794D01*
X129349500Y-109582000D01*
X129037686Y-109582000D01*
X129063493Y-109541844D01*
X129104000Y-109403889D01*
X129104000Y-109260111D01*
X129063493Y-109122156D01*
X129037686Y-109082000D01*
X129349500Y-109082000D01*
X129416539Y-109101685D01*
G37*
G04 #@! TD.AperFunction*
G04 #@! TA.AperFunction,Conductor*
G36*
X130684507Y-109122156D02*
G01*
X130644000Y-109260111D01*
X130644000Y-109403889D01*
X130684507Y-109541844D01*
X130710314Y-109582000D01*
X130398500Y-109582000D01*
X130331461Y-109562315D01*
X130285706Y-109509511D01*
X130274500Y-109458000D01*
X130274500Y-109206000D01*
X130294185Y-109138961D01*
X130346989Y-109093206D01*
X130398500Y-109082000D01*
X130710314Y-109082000D01*
X130684507Y-109122156D01*
G37*
G04 #@! TD.AperFunction*
G04 #@! TA.AperFunction,Conductor*
G36*
X130684507Y-86262156D02*
G01*
X130644000Y-86400111D01*
X130644000Y-86543889D01*
X130684507Y-86681844D01*
X130710314Y-86722000D01*
X129037686Y-86722000D01*
X129063493Y-86681844D01*
X129104000Y-86543889D01*
X129104000Y-86400111D01*
X129063493Y-86262156D01*
X129037686Y-86222000D01*
X130710314Y-86222000D01*
X130684507Y-86262156D01*
G37*
G04 #@! TD.AperFunction*
G04 #@! TA.AperFunction,Conductor*
G36*
X164694539Y-73520185D02*
G01*
X164740294Y-73572989D01*
X164751500Y-73624500D01*
X164751500Y-76376000D01*
X164731815Y-76443039D01*
X164679011Y-76488794D01*
X164627500Y-76500000D01*
X162902000Y-76500000D01*
X162902000Y-78850000D01*
X164627500Y-78850000D01*
X164694539Y-78869685D01*
X164740294Y-78922489D01*
X164751500Y-78974000D01*
X164751500Y-82026000D01*
X164731815Y-82093039D01*
X164679011Y-82138794D01*
X164627500Y-82150000D01*
X162902000Y-82150000D01*
X162902000Y-84500000D01*
X164627500Y-84500000D01*
X164694539Y-84519685D01*
X164740294Y-84572489D01*
X164751500Y-84624000D01*
X164751500Y-89876000D01*
X164731815Y-89943039D01*
X164679011Y-89988794D01*
X164627500Y-90000000D01*
X162902000Y-90000000D01*
X162902000Y-92350000D01*
X164627500Y-92350000D01*
X164694539Y-92369685D01*
X164740294Y-92422489D01*
X164751500Y-92474000D01*
X164751500Y-95526000D01*
X164731815Y-95593039D01*
X164679011Y-95638794D01*
X164627500Y-95650000D01*
X162902000Y-95650000D01*
X162902000Y-98000000D01*
X164627500Y-98000000D01*
X164694539Y-98019685D01*
X164740294Y-98072489D01*
X164751500Y-98124000D01*
X164751500Y-103376000D01*
X164731815Y-103443039D01*
X164679011Y-103488794D01*
X164627500Y-103500000D01*
X162902000Y-103500000D01*
X162902000Y-105850000D01*
X164627500Y-105850000D01*
X164694539Y-105869685D01*
X164740294Y-105922489D01*
X164751500Y-105974000D01*
X164751500Y-109026000D01*
X164731815Y-109093039D01*
X164679011Y-109138794D01*
X164627500Y-109150000D01*
X162902000Y-109150000D01*
X162902000Y-111500000D01*
X164627500Y-111500000D01*
X164694539Y-111519685D01*
X164740294Y-111572489D01*
X164751500Y-111624000D01*
X164751500Y-114375500D01*
X164731815Y-114442539D01*
X164679011Y-114488294D01*
X164627500Y-114499500D01*
X124876500Y-114499500D01*
X124809461Y-114479815D01*
X124763706Y-114427011D01*
X124752500Y-114375500D01*
X124752500Y-109582000D01*
X127273364Y-109582000D01*
X127330567Y-109795486D01*
X127330570Y-109795492D01*
X127430399Y-110009578D01*
X127565894Y-110203082D01*
X127732917Y-110370105D01*
X127926421Y-110505600D01*
X128140507Y-110605429D01*
X128140516Y-110605433D01*
X128179583Y-110615901D01*
X128239244Y-110652266D01*
X128269773Y-110715113D01*
X128261479Y-110784488D01*
X128216993Y-110838366D01*
X128192284Y-110851302D01*
X128111373Y-110882647D01*
X128111357Y-110882655D01*
X127937960Y-110990017D01*
X127937958Y-110990019D01*
X127787237Y-111127418D01*
X127664327Y-111290178D01*
X127573422Y-111472739D01*
X127573417Y-111472752D01*
X127517602Y-111668917D01*
X127498785Y-111871999D01*
X127498785Y-111872000D01*
X127517602Y-112075082D01*
X127573417Y-112271247D01*
X127573422Y-112271260D01*
X127664327Y-112453821D01*
X127787237Y-112616581D01*
X127937958Y-112753980D01*
X127937960Y-112753982D01*
X128037141Y-112815392D01*
X128111363Y-112861348D01*
X128301544Y-112935024D01*
X128502024Y-112972500D01*
X128502026Y-112972500D01*
X128705974Y-112972500D01*
X128705976Y-112972500D01*
X128906456Y-112935024D01*
X129096637Y-112861348D01*
X129270041Y-112753981D01*
X129420764Y-112616579D01*
X129543673Y-112453821D01*
X129599737Y-112341228D01*
X129647239Y-112289992D01*
X129710737Y-112272500D01*
X129832725Y-112272500D01*
X129852120Y-112274026D01*
X129874000Y-112277492D01*
X129895879Y-112274026D01*
X129915275Y-112272500D01*
X129919500Y-112272500D01*
X129986539Y-112292185D01*
X130032294Y-112344989D01*
X130043500Y-112396500D01*
X130043500Y-112746678D01*
X130058032Y-112819735D01*
X130058033Y-112819739D01*
X130058034Y-112819740D01*
X130113399Y-112902601D01*
X130196260Y-112957966D01*
X130196264Y-112957967D01*
X130269321Y-112972499D01*
X130269324Y-112972500D01*
X130269326Y-112972500D01*
X132018676Y-112972500D01*
X132018677Y-112972499D01*
X132091740Y-112957966D01*
X132174601Y-112902601D01*
X132229966Y-112819740D01*
X132244500Y-112746674D01*
X132244500Y-110997326D01*
X132244500Y-110997323D01*
X132244499Y-110997321D01*
X132229967Y-110924264D01*
X132229966Y-110924260D01*
X132210190Y-110894663D01*
X132174601Y-110841399D01*
X132091740Y-110786034D01*
X132091739Y-110786033D01*
X132091735Y-110786032D01*
X132018677Y-110771500D01*
X132018674Y-110771500D01*
X131810682Y-110771500D01*
X131743643Y-110751815D01*
X131697888Y-110699011D01*
X131687944Y-110629853D01*
X131712994Y-110575000D01*
X160052000Y-110575000D01*
X160052000Y-111047844D01*
X160058401Y-111107372D01*
X160058403Y-111107379D01*
X160108645Y-111242086D01*
X160108649Y-111242093D01*
X160194809Y-111357187D01*
X160194812Y-111357190D01*
X160309906Y-111443350D01*
X160309913Y-111443354D01*
X160444620Y-111493596D01*
X160444627Y-111493598D01*
X160504155Y-111499999D01*
X160504172Y-111500000D01*
X162402000Y-111500000D01*
X162402000Y-110575000D01*
X160052000Y-110575000D01*
X131712994Y-110575000D01*
X131716969Y-110566297D01*
X131758277Y-110535118D01*
X131821578Y-110505600D01*
X132015082Y-110370105D01*
X132182105Y-110203082D01*
X132271790Y-110075000D01*
X160052000Y-110075000D01*
X162402000Y-110075000D01*
X162402000Y-109150000D01*
X160504155Y-109150000D01*
X160444627Y-109156401D01*
X160444620Y-109156403D01*
X160309913Y-109206645D01*
X160309906Y-109206649D01*
X160194812Y-109292809D01*
X160194809Y-109292812D01*
X160108649Y-109407906D01*
X160108645Y-109407913D01*
X160058403Y-109542620D01*
X160058401Y-109542627D01*
X160052000Y-109602155D01*
X160052000Y-110075000D01*
X132271790Y-110075000D01*
X132317600Y-110009578D01*
X132417429Y-109795492D01*
X132417432Y-109795486D01*
X132474636Y-109582000D01*
X131577686Y-109582000D01*
X131603493Y-109541844D01*
X131644000Y-109403889D01*
X131644000Y-109260111D01*
X131603493Y-109122156D01*
X131577686Y-109082000D01*
X132474636Y-109082000D01*
X132474635Y-109081999D01*
X132417432Y-108868513D01*
X132417429Y-108868507D01*
X132317600Y-108654422D01*
X132317599Y-108654420D01*
X132182113Y-108460926D01*
X132182108Y-108460920D01*
X132015082Y-108293894D01*
X131821578Y-108158399D01*
X131607492Y-108058570D01*
X131607477Y-108058564D01*
X131568414Y-108048097D01*
X131508754Y-108011732D01*
X131478226Y-107948885D01*
X131486521Y-107879509D01*
X131531007Y-107825632D01*
X131555710Y-107812698D01*
X131636637Y-107781348D01*
X131810041Y-107673981D01*
X131960764Y-107536579D01*
X132083673Y-107373821D01*
X132174582Y-107191250D01*
X132230397Y-106995083D01*
X132249215Y-106792000D01*
X132230397Y-106588917D01*
X132174582Y-106392750D01*
X132083673Y-106210179D01*
X131960764Y-106047421D01*
X131960762Y-106047418D01*
X131810041Y-105910019D01*
X131810039Y-105910017D01*
X131636642Y-105802655D01*
X131636635Y-105802651D01*
X131541546Y-105765814D01*
X131446456Y-105728976D01*
X131245976Y-105691500D01*
X131042024Y-105691500D01*
X130841544Y-105728976D01*
X130841541Y-105728976D01*
X130841541Y-105728977D01*
X130651364Y-105802651D01*
X130651357Y-105802655D01*
X130477960Y-105910017D01*
X130473385Y-105913473D01*
X130471760Y-105911321D01*
X130419181Y-105936926D01*
X130349798Y-105928698D01*
X130295877Y-105884265D01*
X130274538Y-105817734D01*
X130274500Y-105814663D01*
X130274500Y-105229336D01*
X130294185Y-105162297D01*
X130346989Y-105116542D01*
X130416147Y-105106598D01*
X130472143Y-105132170D01*
X130473385Y-105130527D01*
X130477960Y-105133982D01*
X130523691Y-105162297D01*
X130651363Y-105241348D01*
X130841544Y-105315024D01*
X131042024Y-105352500D01*
X131042026Y-105352500D01*
X131245974Y-105352500D01*
X131245976Y-105352500D01*
X131446456Y-105315024D01*
X131636637Y-105241348D01*
X131810041Y-105133981D01*
X131960764Y-104996579D01*
X132014818Y-104925000D01*
X160052000Y-104925000D01*
X160052000Y-105397844D01*
X160058401Y-105457372D01*
X160058403Y-105457379D01*
X160108645Y-105592086D01*
X160108649Y-105592093D01*
X160194809Y-105707187D01*
X160194812Y-105707190D01*
X160309906Y-105793350D01*
X160309913Y-105793354D01*
X160444620Y-105843596D01*
X160444627Y-105843598D01*
X160504155Y-105849999D01*
X160504172Y-105850000D01*
X162402000Y-105850000D01*
X162402000Y-104925000D01*
X160052000Y-104925000D01*
X132014818Y-104925000D01*
X132083673Y-104833821D01*
X132174582Y-104651250D01*
X132230397Y-104455083D01*
X132233185Y-104425000D01*
X160052000Y-104425000D01*
X162402000Y-104425000D01*
X162402000Y-103500000D01*
X160504155Y-103500000D01*
X160444627Y-103506401D01*
X160444620Y-103506403D01*
X160309913Y-103556645D01*
X160309906Y-103556649D01*
X160194812Y-103642809D01*
X160194809Y-103642812D01*
X160108649Y-103757906D01*
X160108645Y-103757913D01*
X160058403Y-103892620D01*
X160058401Y-103892627D01*
X160052000Y-103952155D01*
X160052000Y-104425000D01*
X132233185Y-104425000D01*
X132249215Y-104252000D01*
X132230397Y-104048917D01*
X132174582Y-103852750D01*
X132083673Y-103670179D01*
X131960764Y-103507421D01*
X131960762Y-103507418D01*
X131810041Y-103370019D01*
X131810039Y-103370017D01*
X131636642Y-103262655D01*
X131636635Y-103262651D01*
X131541546Y-103225814D01*
X131446456Y-103188976D01*
X131245976Y-103151500D01*
X131042024Y-103151500D01*
X130841544Y-103188976D01*
X130841541Y-103188976D01*
X130841541Y-103188977D01*
X130651364Y-103262651D01*
X130651357Y-103262655D01*
X130477960Y-103370017D01*
X130473385Y-103373473D01*
X130471760Y-103371321D01*
X130419181Y-103396926D01*
X130349798Y-103388698D01*
X130295877Y-103344265D01*
X130274538Y-103277734D01*
X130274500Y-103274663D01*
X130274500Y-102689336D01*
X130294185Y-102622297D01*
X130346989Y-102576542D01*
X130416147Y-102566598D01*
X130472143Y-102592170D01*
X130473385Y-102590527D01*
X130477960Y-102593982D01*
X130523691Y-102622297D01*
X130651363Y-102701348D01*
X130841544Y-102775024D01*
X131042024Y-102812500D01*
X131042026Y-102812500D01*
X131245974Y-102812500D01*
X131245976Y-102812500D01*
X131446456Y-102775024D01*
X131636637Y-102701348D01*
X131810041Y-102593981D01*
X131960764Y-102456579D01*
X132083673Y-102293821D01*
X132174582Y-102111250D01*
X132230397Y-101915083D01*
X132249215Y-101712000D01*
X132230397Y-101508917D01*
X132174582Y-101312750D01*
X132083673Y-101130179D01*
X131960764Y-100967421D01*
X131960762Y-100967418D01*
X131810041Y-100830019D01*
X131810039Y-100830017D01*
X131636642Y-100722655D01*
X131636635Y-100722651D01*
X131541546Y-100685814D01*
X131446456Y-100648976D01*
X131245976Y-100611500D01*
X131042024Y-100611500D01*
X130841544Y-100648976D01*
X130841541Y-100648976D01*
X130841541Y-100648977D01*
X130651364Y-100722651D01*
X130651357Y-100722655D01*
X130477960Y-100830017D01*
X130473385Y-100833473D01*
X130471760Y-100831321D01*
X130419181Y-100856926D01*
X130349798Y-100848698D01*
X130295877Y-100804265D01*
X130274538Y-100737734D01*
X130274500Y-100734663D01*
X130274500Y-100149336D01*
X130294185Y-100082297D01*
X130346989Y-100036542D01*
X130416147Y-100026598D01*
X130472143Y-100052170D01*
X130473385Y-100050527D01*
X130477960Y-100053982D01*
X130523691Y-100082297D01*
X130651363Y-100161348D01*
X130841544Y-100235024D01*
X131042024Y-100272500D01*
X131042026Y-100272500D01*
X131245974Y-100272500D01*
X131245976Y-100272500D01*
X131446456Y-100235024D01*
X131636637Y-100161348D01*
X131810041Y-100053981D01*
X131960764Y-99916579D01*
X132083673Y-99753821D01*
X132174582Y-99571250D01*
X132230397Y-99375083D01*
X132249215Y-99172000D01*
X132230397Y-98968917D01*
X132174582Y-98772750D01*
X132083673Y-98590179D01*
X131960764Y-98427421D01*
X131960762Y-98427418D01*
X131810041Y-98290019D01*
X131810039Y-98290017D01*
X131636642Y-98182655D01*
X131636635Y-98182651D01*
X131516394Y-98136070D01*
X131446456Y-98108976D01*
X131245976Y-98071500D01*
X131042024Y-98071500D01*
X130841544Y-98108976D01*
X130841541Y-98108976D01*
X130841541Y-98108977D01*
X130651364Y-98182651D01*
X130651357Y-98182655D01*
X130477960Y-98290017D01*
X130473385Y-98293473D01*
X130471760Y-98291321D01*
X130419181Y-98316926D01*
X130349798Y-98308698D01*
X130295877Y-98264265D01*
X130274538Y-98197734D01*
X130274500Y-98194663D01*
X130274500Y-91298000D01*
X141510750Y-91298000D01*
X141529670Y-91441708D01*
X141529671Y-91441712D01*
X141585138Y-91575623D01*
X141585139Y-91575625D01*
X141639875Y-91646957D01*
X141665070Y-91712125D01*
X141665500Y-91722444D01*
X141665500Y-94917429D01*
X141665501Y-94917439D01*
X141672346Y-94938507D01*
X141676887Y-94957418D01*
X141680354Y-94979304D01*
X141680355Y-94979307D01*
X141690412Y-94999045D01*
X141697857Y-95017018D01*
X141704704Y-95038090D01*
X141717726Y-95056014D01*
X141727890Y-95072600D01*
X141737950Y-95092342D01*
X141758864Y-95113256D01*
X141758893Y-95113287D01*
X145490225Y-98844619D01*
X145490247Y-98844639D01*
X145510658Y-98865050D01*
X145530389Y-98875103D01*
X145546976Y-98885266D01*
X145564911Y-98898297D01*
X145585985Y-98905144D01*
X145603953Y-98912586D01*
X145623696Y-98922646D01*
X145645582Y-98926112D01*
X145664489Y-98930651D01*
X145685567Y-98937500D01*
X145717481Y-98937500D01*
X148372554Y-98937500D01*
X148439593Y-98957185D01*
X148448040Y-98963124D01*
X148455590Y-98968917D01*
X148519375Y-99017861D01*
X148653291Y-99073330D01*
X148780280Y-99090048D01*
X148796999Y-99092250D01*
X148797000Y-99092250D01*
X148797001Y-99092250D01*
X148811977Y-99090278D01*
X148940709Y-99073330D01*
X149074625Y-99017861D01*
X149189621Y-98929621D01*
X149277861Y-98814625D01*
X149333330Y-98680709D01*
X149345066Y-98591562D01*
X149373331Y-98527668D01*
X149380311Y-98520080D01*
X150825391Y-97075000D01*
X160052000Y-97075000D01*
X160052000Y-97547844D01*
X160058401Y-97607372D01*
X160058403Y-97607379D01*
X160108645Y-97742086D01*
X160108649Y-97742093D01*
X160194809Y-97857187D01*
X160194812Y-97857190D01*
X160309906Y-97943350D01*
X160309913Y-97943354D01*
X160444620Y-97993596D01*
X160444627Y-97993598D01*
X160504155Y-97999999D01*
X160504172Y-98000000D01*
X162402000Y-98000000D01*
X162402000Y-97075000D01*
X160052000Y-97075000D01*
X150825391Y-97075000D01*
X150939070Y-96961321D01*
X151000391Y-96927838D01*
X151010545Y-96926068D01*
X151099709Y-96914330D01*
X151233625Y-96858861D01*
X151348621Y-96770621D01*
X151436861Y-96655625D01*
X151470256Y-96575000D01*
X160052000Y-96575000D01*
X162402000Y-96575000D01*
X162402000Y-95650000D01*
X160504155Y-95650000D01*
X160444627Y-95656401D01*
X160444620Y-95656403D01*
X160309913Y-95706645D01*
X160309906Y-95706649D01*
X160194812Y-95792809D01*
X160194809Y-95792812D01*
X160108649Y-95907906D01*
X160108645Y-95907913D01*
X160058403Y-96042620D01*
X160058401Y-96042627D01*
X160052000Y-96102155D01*
X160052000Y-96575000D01*
X151470256Y-96575000D01*
X151492330Y-96521709D01*
X151511250Y-96378000D01*
X151509560Y-96365167D01*
X151504066Y-96323436D01*
X151492330Y-96234291D01*
X151436861Y-96100375D01*
X151348621Y-95985379D01*
X151233625Y-95897139D01*
X151233624Y-95897138D01*
X151233622Y-95897137D01*
X151099712Y-95841671D01*
X151099710Y-95841670D01*
X151099709Y-95841670D01*
X151027854Y-95832210D01*
X150956001Y-95822750D01*
X150955999Y-95822750D01*
X150812291Y-95841670D01*
X150812287Y-95841671D01*
X150678377Y-95897137D01*
X150563379Y-95985379D01*
X150475137Y-96100377D01*
X150419670Y-96234289D01*
X150407933Y-96323436D01*
X150379666Y-96387332D01*
X150372675Y-96394930D01*
X148813930Y-97953675D01*
X148752607Y-97987160D01*
X148742436Y-97988933D01*
X148653289Y-98000670D01*
X148519376Y-98056138D01*
X148519374Y-98056139D01*
X148448040Y-98110876D01*
X148382871Y-98136070D01*
X148372554Y-98136500D01*
X145966255Y-98136500D01*
X145899216Y-98116815D01*
X145878574Y-98100181D01*
X142502819Y-94724426D01*
X142469334Y-94663103D01*
X142466500Y-94636745D01*
X142466500Y-91722444D01*
X142486185Y-91655405D01*
X142492125Y-91646957D01*
X142546861Y-91575625D01*
X142602330Y-91441709D01*
X142604530Y-91425000D01*
X160052000Y-91425000D01*
X160052000Y-91897844D01*
X160058401Y-91957372D01*
X160058403Y-91957379D01*
X160108645Y-92092086D01*
X160108649Y-92092093D01*
X160194809Y-92207187D01*
X160194812Y-92207190D01*
X160309906Y-92293350D01*
X160309913Y-92293354D01*
X160444620Y-92343596D01*
X160444627Y-92343598D01*
X160504155Y-92349999D01*
X160504172Y-92350000D01*
X162402000Y-92350000D01*
X162402000Y-91425000D01*
X160052000Y-91425000D01*
X142604530Y-91425000D01*
X142621250Y-91298000D01*
X142602330Y-91154291D01*
X142546861Y-91020375D01*
X142473677Y-90925000D01*
X160052000Y-90925000D01*
X162402000Y-90925000D01*
X162402000Y-90000000D01*
X160504155Y-90000000D01*
X160444627Y-90006401D01*
X160444620Y-90006403D01*
X160309913Y-90056645D01*
X160309906Y-90056649D01*
X160194812Y-90142809D01*
X160194809Y-90142812D01*
X160108649Y-90257906D01*
X160108645Y-90257913D01*
X160058403Y-90392620D01*
X160058401Y-90392627D01*
X160052000Y-90452155D01*
X160052000Y-90925000D01*
X142473677Y-90925000D01*
X142458621Y-90905379D01*
X142343625Y-90817139D01*
X142343624Y-90817138D01*
X142343622Y-90817137D01*
X142209712Y-90761671D01*
X142209710Y-90761670D01*
X142209709Y-90761670D01*
X142137854Y-90752210D01*
X142066001Y-90742750D01*
X142065999Y-90742750D01*
X141922291Y-90761670D01*
X141922287Y-90761671D01*
X141788377Y-90817137D01*
X141673379Y-90905379D01*
X141585137Y-91020377D01*
X141529671Y-91154287D01*
X141529670Y-91154291D01*
X141510750Y-91297999D01*
X141510750Y-91298000D01*
X130274500Y-91298000D01*
X130274500Y-90236500D01*
X130294185Y-90169461D01*
X130346989Y-90123706D01*
X130398500Y-90112500D01*
X132018676Y-90112500D01*
X132018677Y-90112499D01*
X132091740Y-90097966D01*
X132174601Y-90042601D01*
X132229966Y-89959740D01*
X132244500Y-89886674D01*
X132244500Y-88137326D01*
X132244500Y-88137323D01*
X132244499Y-88137321D01*
X132229967Y-88064264D01*
X132229966Y-88064260D01*
X132174601Y-87981399D01*
X132091740Y-87926034D01*
X132091739Y-87926033D01*
X132091735Y-87926032D01*
X132018677Y-87911500D01*
X132018674Y-87911500D01*
X131810682Y-87911500D01*
X131743643Y-87891815D01*
X131697888Y-87839011D01*
X131687944Y-87769853D01*
X131716969Y-87706297D01*
X131758277Y-87675118D01*
X131821578Y-87645600D01*
X132015082Y-87510105D01*
X132182105Y-87343082D01*
X132317600Y-87149578D01*
X132417429Y-86935492D01*
X132417432Y-86935486D01*
X132474636Y-86722000D01*
X131577686Y-86722000D01*
X131603493Y-86681844D01*
X131644000Y-86543889D01*
X131644000Y-86400111D01*
X131603493Y-86262156D01*
X131577686Y-86222000D01*
X132474636Y-86222000D01*
X132474635Y-86221999D01*
X132417432Y-86008513D01*
X132417429Y-86008507D01*
X132317600Y-85794422D01*
X132317599Y-85794420D01*
X132182113Y-85600926D01*
X132182108Y-85600920D01*
X132015082Y-85433894D01*
X131821578Y-85298399D01*
X131607492Y-85198570D01*
X131607477Y-85198564D01*
X131568414Y-85188097D01*
X131508754Y-85151732D01*
X131478226Y-85088885D01*
X131486521Y-85019509D01*
X131531007Y-84965632D01*
X131555710Y-84952698D01*
X131636637Y-84921348D01*
X131810041Y-84813981D01*
X131960764Y-84676579D01*
X132083673Y-84513821D01*
X132174582Y-84331250D01*
X132230397Y-84135083D01*
X132249215Y-83932000D01*
X132230397Y-83728917D01*
X132186603Y-83575000D01*
X160052000Y-83575000D01*
X160052000Y-84047844D01*
X160058401Y-84107372D01*
X160058403Y-84107379D01*
X160108645Y-84242086D01*
X160108649Y-84242093D01*
X160194809Y-84357187D01*
X160194812Y-84357190D01*
X160309906Y-84443350D01*
X160309913Y-84443354D01*
X160444620Y-84493596D01*
X160444627Y-84493598D01*
X160504155Y-84499999D01*
X160504172Y-84500000D01*
X162402000Y-84500000D01*
X162402000Y-83575000D01*
X160052000Y-83575000D01*
X132186603Y-83575000D01*
X132174582Y-83532750D01*
X132083673Y-83350179D01*
X131960764Y-83187421D01*
X131960762Y-83187418D01*
X131837444Y-83075000D01*
X160052000Y-83075000D01*
X162402000Y-83075000D01*
X162402000Y-82150000D01*
X160504155Y-82150000D01*
X160444627Y-82156401D01*
X160444620Y-82156403D01*
X160309913Y-82206645D01*
X160309906Y-82206649D01*
X160194812Y-82292809D01*
X160194809Y-82292812D01*
X160108649Y-82407906D01*
X160108645Y-82407913D01*
X160058403Y-82542620D01*
X160058401Y-82542627D01*
X160052000Y-82602155D01*
X160052000Y-83075000D01*
X131837444Y-83075000D01*
X131810041Y-83050019D01*
X131810039Y-83050017D01*
X131636642Y-82942655D01*
X131636635Y-82942651D01*
X131541546Y-82905814D01*
X131446456Y-82868976D01*
X131245976Y-82831500D01*
X131042024Y-82831500D01*
X130841544Y-82868976D01*
X130841541Y-82868976D01*
X130841541Y-82868977D01*
X130651364Y-82942651D01*
X130651357Y-82942655D01*
X130477960Y-83050017D01*
X130477958Y-83050019D01*
X130327237Y-83187418D01*
X130204327Y-83350178D01*
X130113422Y-83532739D01*
X130113417Y-83532752D01*
X130057602Y-83728917D01*
X130038785Y-83931999D01*
X130038785Y-83932000D01*
X130057602Y-84135082D01*
X130113417Y-84331247D01*
X130113422Y-84331260D01*
X130204327Y-84513821D01*
X130327237Y-84676581D01*
X130477958Y-84813980D01*
X130477960Y-84813982D01*
X130577141Y-84875392D01*
X130651363Y-84921348D01*
X130732283Y-84952696D01*
X130787685Y-84995269D01*
X130811276Y-85061035D01*
X130795565Y-85129116D01*
X130745542Y-85177895D01*
X130719586Y-85188097D01*
X130680519Y-85198565D01*
X130680507Y-85198570D01*
X130466422Y-85298399D01*
X130466420Y-85298400D01*
X130272926Y-85433886D01*
X130272920Y-85433891D01*
X130105891Y-85600920D01*
X130105890Y-85600922D01*
X129975575Y-85787031D01*
X129920998Y-85830655D01*
X129851499Y-85837848D01*
X129789145Y-85806326D01*
X129772425Y-85787031D01*
X129642109Y-85600922D01*
X129642108Y-85600920D01*
X129475082Y-85433894D01*
X129281578Y-85298399D01*
X129067492Y-85198570D01*
X129067477Y-85198564D01*
X129028414Y-85188097D01*
X128968754Y-85151732D01*
X128938226Y-85088885D01*
X128946521Y-85019509D01*
X128991007Y-84965632D01*
X129015710Y-84952698D01*
X129096637Y-84921348D01*
X129270041Y-84813981D01*
X129420764Y-84676579D01*
X129543673Y-84513821D01*
X129634582Y-84331250D01*
X129690397Y-84135083D01*
X129709215Y-83932000D01*
X129690397Y-83728917D01*
X129634582Y-83532750D01*
X129543673Y-83350179D01*
X129420764Y-83187421D01*
X129420762Y-83187418D01*
X129270041Y-83050019D01*
X129270039Y-83050017D01*
X129096642Y-82942655D01*
X129096635Y-82942651D01*
X129001546Y-82905814D01*
X128906456Y-82868976D01*
X128705976Y-82831500D01*
X128502024Y-82831500D01*
X128301544Y-82868976D01*
X128301541Y-82868976D01*
X128301541Y-82868977D01*
X128111364Y-82942651D01*
X128111357Y-82942655D01*
X127937960Y-83050017D01*
X127937958Y-83050019D01*
X127787237Y-83187418D01*
X127664327Y-83350178D01*
X127573422Y-83532739D01*
X127573417Y-83532752D01*
X127517602Y-83728917D01*
X127498785Y-83931999D01*
X127498785Y-83932000D01*
X127517602Y-84135082D01*
X127573417Y-84331247D01*
X127573422Y-84331260D01*
X127664327Y-84513821D01*
X127787237Y-84676581D01*
X127937958Y-84813980D01*
X127937960Y-84813982D01*
X128037141Y-84875392D01*
X128111363Y-84921348D01*
X128192283Y-84952696D01*
X128247685Y-84995269D01*
X128271276Y-85061035D01*
X128255565Y-85129116D01*
X128205542Y-85177895D01*
X128179586Y-85188097D01*
X128140519Y-85198565D01*
X128140507Y-85198570D01*
X127926422Y-85298399D01*
X127926420Y-85298400D01*
X127732926Y-85433886D01*
X127732920Y-85433891D01*
X127565891Y-85600920D01*
X127565886Y-85600926D01*
X127430400Y-85794420D01*
X127430399Y-85794422D01*
X127330570Y-86008507D01*
X127330567Y-86008513D01*
X127273364Y-86221999D01*
X127273364Y-86222000D01*
X128170314Y-86222000D01*
X128144507Y-86262156D01*
X128104000Y-86400111D01*
X128104000Y-86543889D01*
X128144507Y-86681844D01*
X128170314Y-86722000D01*
X127273364Y-86722000D01*
X127330567Y-86935486D01*
X127330570Y-86935492D01*
X127430399Y-87149578D01*
X127565894Y-87343082D01*
X127732917Y-87510105D01*
X127926421Y-87645600D01*
X128140507Y-87745429D01*
X128140516Y-87745433D01*
X128179583Y-87755901D01*
X128239244Y-87792266D01*
X128269773Y-87855113D01*
X128261479Y-87924488D01*
X128216993Y-87978366D01*
X128192284Y-87991302D01*
X128111373Y-88022647D01*
X128111357Y-88022655D01*
X127937960Y-88130017D01*
X127937958Y-88130019D01*
X127787237Y-88267418D01*
X127664327Y-88430178D01*
X127573422Y-88612739D01*
X127573417Y-88612752D01*
X127517602Y-88808917D01*
X127498785Y-89011999D01*
X127498785Y-89012000D01*
X127517602Y-89215082D01*
X127573417Y-89411247D01*
X127573422Y-89411260D01*
X127664327Y-89593821D01*
X127787237Y-89756581D01*
X127937958Y-89893980D01*
X127937960Y-89893982D01*
X128037141Y-89955392D01*
X128111363Y-90001348D01*
X128301544Y-90075024D01*
X128502024Y-90112500D01*
X128502026Y-90112500D01*
X128705974Y-90112500D01*
X128705976Y-90112500D01*
X128906456Y-90075024D01*
X129096637Y-90001348D01*
X129270041Y-89893981D01*
X129270044Y-89893978D01*
X129274615Y-89890527D01*
X129276288Y-89892743D01*
X129328395Y-89867145D01*
X129397806Y-89875132D01*
X129451881Y-89919378D01*
X129473451Y-89985835D01*
X129473500Y-89989336D01*
X129473500Y-98194663D01*
X129453815Y-98261702D01*
X129401011Y-98307457D01*
X129331853Y-98317401D01*
X129275856Y-98291828D01*
X129274615Y-98293473D01*
X129270039Y-98290017D01*
X129096642Y-98182655D01*
X129096635Y-98182651D01*
X128976394Y-98136070D01*
X128906456Y-98108976D01*
X128705976Y-98071500D01*
X128502024Y-98071500D01*
X128301544Y-98108976D01*
X128301541Y-98108976D01*
X128301541Y-98108977D01*
X128111364Y-98182651D01*
X128111357Y-98182655D01*
X127937960Y-98290017D01*
X127937958Y-98290019D01*
X127787237Y-98427418D01*
X127664327Y-98590178D01*
X127573422Y-98772739D01*
X127573417Y-98772752D01*
X127517602Y-98968917D01*
X127498785Y-99171999D01*
X127498785Y-99172000D01*
X127517602Y-99375082D01*
X127573417Y-99571247D01*
X127573422Y-99571260D01*
X127664327Y-99753821D01*
X127787237Y-99916581D01*
X127907921Y-100026598D01*
X127935972Y-100052170D01*
X127937958Y-100053980D01*
X127937960Y-100053982D01*
X127983691Y-100082297D01*
X128111363Y-100161348D01*
X128301544Y-100235024D01*
X128502024Y-100272500D01*
X128502026Y-100272500D01*
X128705974Y-100272500D01*
X128705976Y-100272500D01*
X128906456Y-100235024D01*
X129096637Y-100161348D01*
X129270041Y-100053981D01*
X129270044Y-100053978D01*
X129274615Y-100050527D01*
X129276288Y-100052743D01*
X129328395Y-100027145D01*
X129397806Y-100035132D01*
X129451881Y-100079378D01*
X129473451Y-100145835D01*
X129473500Y-100149336D01*
X129473500Y-100734663D01*
X129453815Y-100801702D01*
X129401011Y-100847457D01*
X129331853Y-100857401D01*
X129275856Y-100831828D01*
X129274615Y-100833473D01*
X129270039Y-100830017D01*
X129096642Y-100722655D01*
X129096635Y-100722651D01*
X129001546Y-100685814D01*
X128906456Y-100648976D01*
X128705976Y-100611500D01*
X128502024Y-100611500D01*
X128301544Y-100648976D01*
X128301541Y-100648976D01*
X128301541Y-100648977D01*
X128111364Y-100722651D01*
X128111357Y-100722655D01*
X127937960Y-100830017D01*
X127937958Y-100830019D01*
X127787237Y-100967418D01*
X127664327Y-101130178D01*
X127573422Y-101312739D01*
X127573417Y-101312752D01*
X127517602Y-101508917D01*
X127498785Y-101711999D01*
X127498785Y-101712000D01*
X127517602Y-101915082D01*
X127573417Y-102111247D01*
X127573422Y-102111260D01*
X127664327Y-102293821D01*
X127787237Y-102456581D01*
X127907921Y-102566598D01*
X127935972Y-102592170D01*
X127937958Y-102593980D01*
X127937960Y-102593982D01*
X127983691Y-102622297D01*
X128111363Y-102701348D01*
X128301544Y-102775024D01*
X128502024Y-102812500D01*
X128502026Y-102812500D01*
X128705974Y-102812500D01*
X128705976Y-102812500D01*
X128906456Y-102775024D01*
X129096637Y-102701348D01*
X129270041Y-102593981D01*
X129270044Y-102593978D01*
X129274615Y-102590527D01*
X129276288Y-102592743D01*
X129328395Y-102567145D01*
X129397806Y-102575132D01*
X129451881Y-102619378D01*
X129473451Y-102685835D01*
X129473500Y-102689336D01*
X129473500Y-103274663D01*
X129453815Y-103341702D01*
X129401011Y-103387457D01*
X129331853Y-103397401D01*
X129275856Y-103371828D01*
X129274615Y-103373473D01*
X129270039Y-103370017D01*
X129096642Y-103262655D01*
X129096635Y-103262651D01*
X129001546Y-103225814D01*
X128906456Y-103188976D01*
X128705976Y-103151500D01*
X128502024Y-103151500D01*
X128301544Y-103188976D01*
X128301541Y-103188976D01*
X128301541Y-103188977D01*
X128111364Y-103262651D01*
X128111357Y-103262655D01*
X127937960Y-103370017D01*
X127937958Y-103370019D01*
X127787237Y-103507418D01*
X127664327Y-103670178D01*
X127573422Y-103852739D01*
X127573417Y-103852752D01*
X127517602Y-104048917D01*
X127498785Y-104251999D01*
X127498785Y-104252000D01*
X127517602Y-104455082D01*
X127573417Y-104651247D01*
X127573422Y-104651260D01*
X127664327Y-104833821D01*
X127787237Y-104996581D01*
X127907921Y-105106598D01*
X127935972Y-105132170D01*
X127937958Y-105133980D01*
X127937960Y-105133982D01*
X127983691Y-105162297D01*
X128111363Y-105241348D01*
X128301544Y-105315024D01*
X128502024Y-105352500D01*
X128502026Y-105352500D01*
X128705974Y-105352500D01*
X128705976Y-105352500D01*
X128906456Y-105315024D01*
X129096637Y-105241348D01*
X129270041Y-105133981D01*
X129270044Y-105133978D01*
X129274615Y-105130527D01*
X129276288Y-105132743D01*
X129328395Y-105107145D01*
X129397806Y-105115132D01*
X129451881Y-105159378D01*
X129473451Y-105225835D01*
X129473500Y-105229336D01*
X129473500Y-105814663D01*
X129453815Y-105881702D01*
X129401011Y-105927457D01*
X129331853Y-105937401D01*
X129275856Y-105911828D01*
X129274615Y-105913473D01*
X129270039Y-105910017D01*
X129096642Y-105802655D01*
X129096635Y-105802651D01*
X129001546Y-105765814D01*
X128906456Y-105728976D01*
X128705976Y-105691500D01*
X128502024Y-105691500D01*
X128301544Y-105728976D01*
X128301541Y-105728976D01*
X128301541Y-105728977D01*
X128111364Y-105802651D01*
X128111357Y-105802655D01*
X127937960Y-105910017D01*
X127937958Y-105910019D01*
X127787237Y-106047418D01*
X127664327Y-106210178D01*
X127573422Y-106392739D01*
X127573417Y-106392752D01*
X127517602Y-106588917D01*
X127498785Y-106791999D01*
X127498785Y-106792000D01*
X127517602Y-106995082D01*
X127573417Y-107191247D01*
X127573422Y-107191260D01*
X127664327Y-107373821D01*
X127787237Y-107536581D01*
X127907921Y-107646598D01*
X127935972Y-107672170D01*
X127937958Y-107673980D01*
X127937960Y-107673982D01*
X127983691Y-107702297D01*
X128111363Y-107781348D01*
X128192283Y-107812696D01*
X128247685Y-107855269D01*
X128271276Y-107921035D01*
X128255565Y-107989116D01*
X128205542Y-108037895D01*
X128179586Y-108048097D01*
X128140519Y-108058565D01*
X128140507Y-108058570D01*
X127926422Y-108158399D01*
X127926420Y-108158400D01*
X127732926Y-108293886D01*
X127732920Y-108293891D01*
X127565891Y-108460920D01*
X127565886Y-108460926D01*
X127430400Y-108654420D01*
X127430399Y-108654422D01*
X127330570Y-108868507D01*
X127330567Y-108868513D01*
X127273364Y-109081999D01*
X127273364Y-109082000D01*
X128170314Y-109082000D01*
X128144507Y-109122156D01*
X128104000Y-109260111D01*
X128104000Y-109403889D01*
X128144507Y-109541844D01*
X128170314Y-109582000D01*
X127273364Y-109582000D01*
X124752500Y-109582000D01*
X124752500Y-81392000D01*
X127498785Y-81392000D01*
X127517602Y-81595082D01*
X127573417Y-81791247D01*
X127573422Y-81791260D01*
X127664327Y-81973821D01*
X127787237Y-82136581D01*
X127937958Y-82273980D01*
X127937960Y-82273982D01*
X127968367Y-82292809D01*
X128111363Y-82381348D01*
X128301544Y-82455024D01*
X128502024Y-82492500D01*
X128502026Y-82492500D01*
X128705974Y-82492500D01*
X128705976Y-82492500D01*
X128906456Y-82455024D01*
X129096637Y-82381348D01*
X129270041Y-82273981D01*
X129420764Y-82136579D01*
X129543673Y-81973821D01*
X129634582Y-81791250D01*
X129690397Y-81595083D01*
X129709215Y-81392000D01*
X130038785Y-81392000D01*
X130057602Y-81595082D01*
X130113417Y-81791247D01*
X130113422Y-81791260D01*
X130204327Y-81973821D01*
X130327237Y-82136581D01*
X130477958Y-82273980D01*
X130477960Y-82273982D01*
X130508367Y-82292809D01*
X130651363Y-82381348D01*
X130841544Y-82455024D01*
X131042024Y-82492500D01*
X131042026Y-82492500D01*
X131245974Y-82492500D01*
X131245976Y-82492500D01*
X131446456Y-82455024D01*
X131636637Y-82381348D01*
X131810041Y-82273981D01*
X131960764Y-82136579D01*
X132083673Y-81973821D01*
X132174582Y-81791250D01*
X132230397Y-81595083D01*
X132249215Y-81392000D01*
X132230397Y-81188917D01*
X132174582Y-80992750D01*
X132083673Y-80810179D01*
X131960764Y-80647421D01*
X131960762Y-80647418D01*
X131810041Y-80510019D01*
X131810039Y-80510017D01*
X131636642Y-80402655D01*
X131636635Y-80402651D01*
X131541546Y-80365814D01*
X131446456Y-80328976D01*
X131245976Y-80291500D01*
X131042024Y-80291500D01*
X130841544Y-80328976D01*
X130841541Y-80328976D01*
X130841541Y-80328977D01*
X130651364Y-80402651D01*
X130651357Y-80402655D01*
X130477960Y-80510017D01*
X130477958Y-80510019D01*
X130327237Y-80647418D01*
X130204327Y-80810178D01*
X130113422Y-80992739D01*
X130113417Y-80992752D01*
X130057602Y-81188917D01*
X130038785Y-81391999D01*
X130038785Y-81392000D01*
X129709215Y-81392000D01*
X129690397Y-81188917D01*
X129634582Y-80992750D01*
X129543673Y-80810179D01*
X129420764Y-80647421D01*
X129420762Y-80647418D01*
X129270041Y-80510019D01*
X129270039Y-80510017D01*
X129096642Y-80402655D01*
X129096635Y-80402651D01*
X129001546Y-80365814D01*
X128906456Y-80328976D01*
X128705976Y-80291500D01*
X128502024Y-80291500D01*
X128301544Y-80328976D01*
X128301541Y-80328976D01*
X128301541Y-80328977D01*
X128111364Y-80402651D01*
X128111357Y-80402655D01*
X127937960Y-80510017D01*
X127937958Y-80510019D01*
X127787237Y-80647418D01*
X127664327Y-80810178D01*
X127573422Y-80992739D01*
X127573417Y-80992752D01*
X127517602Y-81188917D01*
X127498785Y-81391999D01*
X127498785Y-81392000D01*
X124752500Y-81392000D01*
X124752500Y-78852000D01*
X127498785Y-78852000D01*
X127517602Y-79055082D01*
X127573417Y-79251247D01*
X127573422Y-79251260D01*
X127664327Y-79433821D01*
X127787237Y-79596581D01*
X127937958Y-79733980D01*
X127937960Y-79733982D01*
X128037141Y-79795392D01*
X128111363Y-79841348D01*
X128301544Y-79915024D01*
X128502024Y-79952500D01*
X128502026Y-79952500D01*
X128705974Y-79952500D01*
X128705976Y-79952500D01*
X128906456Y-79915024D01*
X129096637Y-79841348D01*
X129270041Y-79733981D01*
X129420764Y-79596579D01*
X129543673Y-79433821D01*
X129634582Y-79251250D01*
X129690397Y-79055083D01*
X129709215Y-78852000D01*
X130038785Y-78852000D01*
X130057602Y-79055082D01*
X130113417Y-79251247D01*
X130113422Y-79251260D01*
X130204327Y-79433821D01*
X130327237Y-79596581D01*
X130477958Y-79733980D01*
X130477960Y-79733982D01*
X130577141Y-79795392D01*
X130651363Y-79841348D01*
X130841544Y-79915024D01*
X131042024Y-79952500D01*
X131042026Y-79952500D01*
X131245974Y-79952500D01*
X131245976Y-79952500D01*
X131446456Y-79915024D01*
X131636637Y-79841348D01*
X131810041Y-79733981D01*
X131960764Y-79596579D01*
X132083673Y-79433821D01*
X132174582Y-79251250D01*
X132230397Y-79055083D01*
X132249215Y-78852000D01*
X132248436Y-78843598D01*
X132230397Y-78648917D01*
X132175897Y-78457372D01*
X132174582Y-78452750D01*
X132083673Y-78270179D01*
X131960764Y-78107421D01*
X131960762Y-78107418D01*
X131810041Y-77970019D01*
X131810039Y-77970017D01*
X131737333Y-77925000D01*
X160052000Y-77925000D01*
X160052000Y-78397844D01*
X160058401Y-78457372D01*
X160058403Y-78457379D01*
X160108645Y-78592086D01*
X160108649Y-78592093D01*
X160194809Y-78707187D01*
X160194812Y-78707190D01*
X160309906Y-78793350D01*
X160309913Y-78793354D01*
X160444620Y-78843596D01*
X160444627Y-78843598D01*
X160504155Y-78849999D01*
X160504172Y-78850000D01*
X162402000Y-78850000D01*
X162402000Y-77925000D01*
X160052000Y-77925000D01*
X131737333Y-77925000D01*
X131636642Y-77862655D01*
X131636635Y-77862651D01*
X131541546Y-77825814D01*
X131446456Y-77788976D01*
X131245976Y-77751500D01*
X131042024Y-77751500D01*
X130841544Y-77788976D01*
X130841541Y-77788976D01*
X130841541Y-77788977D01*
X130651364Y-77862651D01*
X130651357Y-77862655D01*
X130477960Y-77970017D01*
X130477958Y-77970019D01*
X130327237Y-78107418D01*
X130204327Y-78270178D01*
X130113422Y-78452739D01*
X130113417Y-78452752D01*
X130057602Y-78648917D01*
X130038785Y-78851999D01*
X130038785Y-78852000D01*
X129709215Y-78852000D01*
X129708436Y-78843598D01*
X129690397Y-78648917D01*
X129635897Y-78457372D01*
X129634582Y-78452750D01*
X129543673Y-78270179D01*
X129420764Y-78107421D01*
X129420762Y-78107418D01*
X129270041Y-77970019D01*
X129270039Y-77970017D01*
X129096642Y-77862655D01*
X129096635Y-77862651D01*
X129001546Y-77825814D01*
X128906456Y-77788976D01*
X128705976Y-77751500D01*
X128502024Y-77751500D01*
X128301544Y-77788976D01*
X128301541Y-77788976D01*
X128301541Y-77788977D01*
X128111364Y-77862651D01*
X128111357Y-77862655D01*
X127937960Y-77970017D01*
X127937958Y-77970019D01*
X127787237Y-78107418D01*
X127664327Y-78270178D01*
X127573422Y-78452739D01*
X127573417Y-78452752D01*
X127517602Y-78648917D01*
X127498785Y-78851999D01*
X127498785Y-78852000D01*
X124752500Y-78852000D01*
X124752500Y-77425000D01*
X160052000Y-77425000D01*
X162402000Y-77425000D01*
X162402000Y-76500000D01*
X160504155Y-76500000D01*
X160444627Y-76506401D01*
X160444620Y-76506403D01*
X160309913Y-76556645D01*
X160309906Y-76556649D01*
X160194812Y-76642809D01*
X160194809Y-76642812D01*
X160108649Y-76757906D01*
X160108645Y-76757913D01*
X160058403Y-76892620D01*
X160058401Y-76892627D01*
X160052000Y-76952155D01*
X160052000Y-77425000D01*
X124752500Y-77425000D01*
X124752500Y-76312000D01*
X127498785Y-76312000D01*
X127517602Y-76515082D01*
X127573417Y-76711247D01*
X127573422Y-76711260D01*
X127664327Y-76893821D01*
X127787237Y-77056581D01*
X127937958Y-77193980D01*
X127937960Y-77193982D01*
X128037141Y-77255392D01*
X128111363Y-77301348D01*
X128301544Y-77375024D01*
X128502024Y-77412500D01*
X128502026Y-77412500D01*
X128705974Y-77412500D01*
X128705976Y-77412500D01*
X128906456Y-77375024D01*
X129096637Y-77301348D01*
X129270041Y-77193981D01*
X129420764Y-77056579D01*
X129543673Y-76893821D01*
X129634582Y-76711250D01*
X129690397Y-76515083D01*
X129709215Y-76312000D01*
X130038785Y-76312000D01*
X130057602Y-76515082D01*
X130113417Y-76711247D01*
X130113422Y-76711260D01*
X130204327Y-76893821D01*
X130327237Y-77056581D01*
X130477958Y-77193980D01*
X130477960Y-77193982D01*
X130577141Y-77255392D01*
X130651363Y-77301348D01*
X130841544Y-77375024D01*
X131042024Y-77412500D01*
X131042026Y-77412500D01*
X131245974Y-77412500D01*
X131245976Y-77412500D01*
X131446456Y-77375024D01*
X131636637Y-77301348D01*
X131810041Y-77193981D01*
X131960764Y-77056579D01*
X132083673Y-76893821D01*
X132174582Y-76711250D01*
X132230397Y-76515083D01*
X132249215Y-76312000D01*
X145024785Y-76312000D01*
X145043602Y-76515082D01*
X145099417Y-76711247D01*
X145099422Y-76711260D01*
X145190327Y-76893821D01*
X145313237Y-77056581D01*
X145463958Y-77193980D01*
X145463960Y-77193982D01*
X145563141Y-77255392D01*
X145637363Y-77301348D01*
X145827544Y-77375024D01*
X146028024Y-77412500D01*
X146028026Y-77412500D01*
X146231974Y-77412500D01*
X146231976Y-77412500D01*
X146432456Y-77375024D01*
X146622637Y-77301348D01*
X146796041Y-77193981D01*
X146946764Y-77056579D01*
X147069673Y-76893821D01*
X147160582Y-76711250D01*
X147216397Y-76515083D01*
X147235215Y-76312000D01*
X147564785Y-76312000D01*
X147583602Y-76515082D01*
X147639417Y-76711247D01*
X147639422Y-76711260D01*
X147730327Y-76893821D01*
X147853237Y-77056581D01*
X148003958Y-77193980D01*
X148003960Y-77193982D01*
X148103141Y-77255392D01*
X148177363Y-77301348D01*
X148367544Y-77375024D01*
X148568024Y-77412500D01*
X148568026Y-77412500D01*
X148771974Y-77412500D01*
X148771976Y-77412500D01*
X148972456Y-77375024D01*
X149162637Y-77301348D01*
X149336041Y-77193981D01*
X149344052Y-77186678D01*
X150109500Y-77186678D01*
X150124032Y-77259735D01*
X150124033Y-77259739D01*
X150124034Y-77259740D01*
X150179399Y-77342601D01*
X150262260Y-77397966D01*
X150262264Y-77397967D01*
X150335321Y-77412499D01*
X150335324Y-77412500D01*
X150335326Y-77412500D01*
X152084676Y-77412500D01*
X152084677Y-77412499D01*
X152157740Y-77397966D01*
X152240601Y-77342601D01*
X152295966Y-77259740D01*
X152310500Y-77186674D01*
X152310500Y-75437326D01*
X152310500Y-75437323D01*
X152310499Y-75437321D01*
X152295967Y-75364264D01*
X152295966Y-75364260D01*
X152240601Y-75281399D01*
X152157740Y-75226034D01*
X152157739Y-75226033D01*
X152157735Y-75226032D01*
X152084677Y-75211500D01*
X152084674Y-75211500D01*
X150335326Y-75211500D01*
X150335323Y-75211500D01*
X150262264Y-75226032D01*
X150262260Y-75226033D01*
X150179399Y-75281399D01*
X150124033Y-75364260D01*
X150124032Y-75364264D01*
X150109500Y-75437321D01*
X150109500Y-77186678D01*
X149344052Y-77186678D01*
X149486764Y-77056579D01*
X149609673Y-76893821D01*
X149700582Y-76711250D01*
X149756397Y-76515083D01*
X149775215Y-76312000D01*
X149756397Y-76108917D01*
X149700582Y-75912750D01*
X149609673Y-75730179D01*
X149486764Y-75567421D01*
X149486762Y-75567418D01*
X149336041Y-75430019D01*
X149336039Y-75430017D01*
X149162642Y-75322655D01*
X149162635Y-75322651D01*
X149056150Y-75281399D01*
X148972456Y-75248976D01*
X148771976Y-75211500D01*
X148568024Y-75211500D01*
X148367544Y-75248976D01*
X148367541Y-75248976D01*
X148367541Y-75248977D01*
X148177364Y-75322651D01*
X148177357Y-75322655D01*
X148003960Y-75430017D01*
X148003958Y-75430019D01*
X147853237Y-75567418D01*
X147730327Y-75730178D01*
X147639422Y-75912739D01*
X147639417Y-75912752D01*
X147583602Y-76108917D01*
X147564785Y-76311999D01*
X147564785Y-76312000D01*
X147235215Y-76312000D01*
X147216397Y-76108917D01*
X147160582Y-75912750D01*
X147069673Y-75730179D01*
X146946764Y-75567421D01*
X146946762Y-75567418D01*
X146796041Y-75430019D01*
X146796039Y-75430017D01*
X146622642Y-75322655D01*
X146622635Y-75322651D01*
X146516150Y-75281399D01*
X146432456Y-75248976D01*
X146231976Y-75211500D01*
X146028024Y-75211500D01*
X145827544Y-75248976D01*
X145827541Y-75248976D01*
X145827541Y-75248977D01*
X145637364Y-75322651D01*
X145637357Y-75322655D01*
X145463960Y-75430017D01*
X145463958Y-75430019D01*
X145313237Y-75567418D01*
X145190327Y-75730178D01*
X145099422Y-75912739D01*
X145099417Y-75912752D01*
X145043602Y-76108917D01*
X145024785Y-76311999D01*
X145024785Y-76312000D01*
X132249215Y-76312000D01*
X132230397Y-76108917D01*
X132174582Y-75912750D01*
X132083673Y-75730179D01*
X131960764Y-75567421D01*
X131960762Y-75567418D01*
X131810041Y-75430019D01*
X131810039Y-75430017D01*
X131636642Y-75322655D01*
X131636635Y-75322651D01*
X131530150Y-75281399D01*
X131446456Y-75248976D01*
X131245976Y-75211500D01*
X131042024Y-75211500D01*
X130841544Y-75248976D01*
X130841541Y-75248976D01*
X130841541Y-75248977D01*
X130651364Y-75322651D01*
X130651357Y-75322655D01*
X130477960Y-75430017D01*
X130477958Y-75430019D01*
X130327237Y-75567418D01*
X130204327Y-75730178D01*
X130113422Y-75912739D01*
X130113417Y-75912752D01*
X130057602Y-76108917D01*
X130038785Y-76311999D01*
X130038785Y-76312000D01*
X129709215Y-76312000D01*
X129690397Y-76108917D01*
X129634582Y-75912750D01*
X129543673Y-75730179D01*
X129420764Y-75567421D01*
X129420762Y-75567418D01*
X129270041Y-75430019D01*
X129270039Y-75430017D01*
X129096642Y-75322655D01*
X129096635Y-75322651D01*
X128990150Y-75281399D01*
X128906456Y-75248976D01*
X128705976Y-75211500D01*
X128502024Y-75211500D01*
X128301544Y-75248976D01*
X128301541Y-75248976D01*
X128301541Y-75248977D01*
X128111364Y-75322651D01*
X128111357Y-75322655D01*
X127937960Y-75430017D01*
X127937958Y-75430019D01*
X127787237Y-75567418D01*
X127664327Y-75730178D01*
X127573422Y-75912739D01*
X127573417Y-75912752D01*
X127517602Y-76108917D01*
X127498785Y-76311999D01*
X127498785Y-76312000D01*
X124752500Y-76312000D01*
X124752500Y-73624500D01*
X124772185Y-73557461D01*
X124824989Y-73511706D01*
X124876500Y-73500500D01*
X164627500Y-73500500D01*
X164694539Y-73520185D01*
G37*
G04 #@! TD.AperFunction*
M02*
