%TF.GenerationSoftware,KiCad,Pcbnew,7.0.8*%
%TF.CreationDate,2023-12-20T18:09:56+01:00*%
%TF.ProjectId,sx1255_eval,73783132-3535-45f6-9576-616c2e6b6963,rev?*%
%TF.SameCoordinates,Original*%
%TF.FileFunction,Drillmap*%
%TF.FilePolarity,Positive*%
%FSLAX45Y45*%
G04 Gerber Fmt 4.5, Leading zero omitted, Abs format (unit mm)*
G04 Created by KiCad (PCBNEW 7.0.8) date 2023-12-20 18:09:56*
%MOMM*%
%LPD*%
G01*
G04 APERTURE LIST*
%ADD10C,0.100000*%
%ADD11C,0.200000*%
G04 APERTURE END LIST*
D10*
X16475200Y-7350000D02*
X12475200Y-7350000D01*
X12475200Y-7350000D02*
X12475200Y-11450000D01*
X12475200Y-11450000D02*
X16475200Y-11450000D01*
X16475200Y-11450000D02*
X16475200Y-7350000D01*
D11*
X12730977Y-11766484D02*
X12730977Y-11566484D01*
X12730977Y-11566484D02*
X12778596Y-11566484D01*
X12778596Y-11566484D02*
X12807167Y-11576008D01*
X12807167Y-11576008D02*
X12826215Y-11595055D01*
X12826215Y-11595055D02*
X12835739Y-11614103D01*
X12835739Y-11614103D02*
X12845262Y-11652198D01*
X12845262Y-11652198D02*
X12845262Y-11680769D01*
X12845262Y-11680769D02*
X12835739Y-11718865D01*
X12835739Y-11718865D02*
X12826215Y-11737912D01*
X12826215Y-11737912D02*
X12807167Y-11756960D01*
X12807167Y-11756960D02*
X12778596Y-11766484D01*
X12778596Y-11766484D02*
X12730977Y-11766484D01*
X12930977Y-11766484D02*
X12930977Y-11633150D01*
X12930977Y-11671246D02*
X12940501Y-11652198D01*
X12940501Y-11652198D02*
X12950024Y-11642674D01*
X12950024Y-11642674D02*
X12969072Y-11633150D01*
X12969072Y-11633150D02*
X12988120Y-11633150D01*
X13054786Y-11766484D02*
X13054786Y-11633150D01*
X13054786Y-11566484D02*
X13045262Y-11576008D01*
X13045262Y-11576008D02*
X13054786Y-11585531D01*
X13054786Y-11585531D02*
X13064310Y-11576008D01*
X13064310Y-11576008D02*
X13054786Y-11566484D01*
X13054786Y-11566484D02*
X13054786Y-11585531D01*
X13178596Y-11766484D02*
X13159548Y-11756960D01*
X13159548Y-11756960D02*
X13150024Y-11737912D01*
X13150024Y-11737912D02*
X13150024Y-11566484D01*
X13283358Y-11766484D02*
X13264310Y-11756960D01*
X13264310Y-11756960D02*
X13254786Y-11737912D01*
X13254786Y-11737912D02*
X13254786Y-11566484D01*
X13511929Y-11766484D02*
X13511929Y-11566484D01*
X13511929Y-11566484D02*
X13578596Y-11709341D01*
X13578596Y-11709341D02*
X13645262Y-11566484D01*
X13645262Y-11566484D02*
X13645262Y-11766484D01*
X13826215Y-11766484D02*
X13826215Y-11661722D01*
X13826215Y-11661722D02*
X13816691Y-11642674D01*
X13816691Y-11642674D02*
X13797643Y-11633150D01*
X13797643Y-11633150D02*
X13759548Y-11633150D01*
X13759548Y-11633150D02*
X13740501Y-11642674D01*
X13826215Y-11756960D02*
X13807167Y-11766484D01*
X13807167Y-11766484D02*
X13759548Y-11766484D01*
X13759548Y-11766484D02*
X13740501Y-11756960D01*
X13740501Y-11756960D02*
X13730977Y-11737912D01*
X13730977Y-11737912D02*
X13730977Y-11718865D01*
X13730977Y-11718865D02*
X13740501Y-11699817D01*
X13740501Y-11699817D02*
X13759548Y-11690293D01*
X13759548Y-11690293D02*
X13807167Y-11690293D01*
X13807167Y-11690293D02*
X13826215Y-11680769D01*
X13921453Y-11633150D02*
X13921453Y-11833150D01*
X13921453Y-11642674D02*
X13940501Y-11633150D01*
X13940501Y-11633150D02*
X13978596Y-11633150D01*
X13978596Y-11633150D02*
X13997643Y-11642674D01*
X13997643Y-11642674D02*
X14007167Y-11652198D01*
X14007167Y-11652198D02*
X14016691Y-11671246D01*
X14016691Y-11671246D02*
X14016691Y-11728388D01*
X14016691Y-11728388D02*
X14007167Y-11747436D01*
X14007167Y-11747436D02*
X13997643Y-11756960D01*
X13997643Y-11756960D02*
X13978596Y-11766484D01*
X13978596Y-11766484D02*
X13940501Y-11766484D01*
X13940501Y-11766484D02*
X13921453Y-11756960D01*
X14102405Y-11747436D02*
X14111929Y-11756960D01*
X14111929Y-11756960D02*
X14102405Y-11766484D01*
X14102405Y-11766484D02*
X14092882Y-11756960D01*
X14092882Y-11756960D02*
X14102405Y-11747436D01*
X14102405Y-11747436D02*
X14102405Y-11766484D01*
X14102405Y-11642674D02*
X14111929Y-11652198D01*
X14111929Y-11652198D02*
X14102405Y-11661722D01*
X14102405Y-11661722D02*
X14092882Y-11652198D01*
X14092882Y-11652198D02*
X14102405Y-11642674D01*
X14102405Y-11642674D02*
X14102405Y-11661722D01*
M02*
