M48
; DRILL file {KiCad 7.0.8} date Wed Dec 20 18:09:10 2023
; FORMAT={-:-/ absolute / metric / decimal}
; #@! TF.CreationDate,2023-12-20T18:09:10+01:00
; #@! TF.GenerationSoftware,Kicad,Pcbnew,7.0.8
; #@! TF.FileFunction,Plated,1,2,PTH
FMAT,2
METRIC
; #@! TA.AperFunction,Plated,PTH,ViaDrill
T1C0.300
; #@! TA.AperFunction,Plated,PTH,ComponentDrill
T2C1.000
%
G90
G05
T1
X126.572Y-75.042
X126.572Y-76.312
X126.572Y-77.582
X126.572Y-78.852
X126.572Y-85.202
X126.572Y-86.472
X126.572Y-87.742
X126.572Y-108.062
X126.572Y-109.332
X126.572Y-110.602
X128.604Y-91.552
X128.604Y-93.584
X128.604Y-95.616
X130.89Y-90.536
X130.89Y-93.584
X132.414Y-92.06
X133.176Y-85.202
X133.176Y-86.472
X133.176Y-87.742
X133.176Y-99.934
X133.176Y-108.062
X133.176Y-109.332
X133.176Y-110.602
X133.938Y-90.536
X133.938Y-106.284
X134.954Y-98.156
X135.208Y-85.964
X135.716Y-104.506
X135.97Y-90.028
X136.732Y-96.378
X137.24Y-85.202
X137.24Y-86.726
X137.494Y-102.728
X138.764Y-85.202
X138.764Y-89.266
X139.272Y-100.95
X139.78Y-90.536
X140.288Y-85.202
X141.05Y-91.552
X141.05Y-99.172
X142.066Y-91.298
X142.066Y-103.49
X142.828Y-97.394
X143.59Y-103.49
X143.844Y-99.426
X144.098Y-76.566
X144.251Y-104.646
X144.622Y-105.686
X145.114Y-93.33
X145.114Y-95.108
X145.21Y-106.622
X145.876Y-94.25
X145.992Y-107.404
X146.13Y-78.598
X146.13Y-103.744
X146.335Y-104.624
X146.638Y-93.33
X146.638Y-95.108
X146.928Y-107.992
X146.994Y-105.62
X147.4Y-78.598
X147.4Y-79.868
X147.4Y-103.931
X147.968Y-108.363
X147.99Y-106.279
X148.041Y-104.881
X148.67Y-97.14
X148.797Y-98.537
X148.991Y-105.522
X149.114Y-106.5
X149.114Y-108.5
X149.94Y-78.598
X149.94Y-79.868
X149.94Y-93.076
X150.113Y-105.759
X150.171Y-106.5
X150.171Y-108.5
X150.194Y-81.138
X150.211Y-103.761
X150.448Y-98.918
X150.956Y-96.378
X151.21Y-82.154
X151.21Y-91.806
X151.228Y-106.5
X151.228Y-108.5
X151.325Y-103.76
X151.325Y-105.76
X151.464Y-78.598
X151.718Y-97.394
X152.226Y-83.22
X152.226Y-84.277
X152.226Y-85.334
X152.226Y-86.39
X152.226Y-87.447
X152.226Y-88.504
X152.226Y-89.561
X152.226Y-90.618
X152.284Y-106.5
X152.284Y-108.5
X152.488Y-103.76
X152.488Y-105.76
X152.988Y-75.312
X152.988Y-77.328
X152.988Y-78.598
X153.242Y-92.06
X153.242Y-100.696
X153.341Y-106.5
X153.341Y-108.5
X153.651Y-103.76
X153.651Y-105.76
X153.971Y-77.312
X154.366Y-75.312
X154.398Y-106.5
X154.398Y-108.5
X154.718Y-78.06
X154.765Y-103.761
X154.766Y-92.06
X154.766Y-100.696
X154.814Y-105.76
X155.267Y-75.78
X155.455Y-106.5
X155.455Y-108.5
X155.466Y-78.807
X155.798Y-103.498
X155.88Y-105.613
X156.011Y-76.524
X156.036Y-93.33
X156.036Y-94.854
X156.036Y-96.378
X156.036Y-97.902
X156.036Y-99.426
X156.214Y-79.555
X156.511Y-106.5
X156.511Y-108.5
X156.552Y-102.744
X156.755Y-77.268
X156.814Y-98.19
X156.814Y-99.38
X156.814Y-100.57
X156.815Y-101.711
X156.815Y-96.951
X156.826Y-105.213
X156.961Y-95.934
X156.961Y-80.302
X157.361Y-94.988
X157.499Y-78.012
X157.568Y-106.5
X157.568Y-108.5
X157.642Y-104.588
X157.709Y-81.05
X157.986Y-94.172
X158.243Y-78.756
X158.267Y-103.772
X158.623Y-81.5
X158.625Y-106.5
X158.625Y-108.5
X158.667Y-102.826
X158.802Y-93.547
X158.813Y-97.049
X158.813Y-101.809
X158.814Y-98.19
X158.814Y-99.38
X158.814Y-100.57
X158.987Y-79.5
X159.076Y-96.016
X159.682Y-106.5
X159.682Y-108.5
X159.748Y-93.147
X159.83Y-95.262
X159.846Y-79.5
X159.846Y-81.5
X161.37Y-76.058
X161.37Y-84.948
X161.37Y-89.52
X161.37Y-98.41
X161.37Y-102.982
X161.37Y-112.126
X162.64Y-76.058
X162.64Y-84.948
X162.64Y-89.52
X162.64Y-98.41
X162.64Y-102.982
X162.64Y-112.126
X163.91Y-76.058
X163.91Y-84.948
X163.91Y-89.52
X163.91Y-98.41
X163.91Y-102.982
X163.91Y-112.126
T2
X128.604Y-76.312
X128.604Y-78.852
X128.604Y-81.392
X128.604Y-83.932
X128.604Y-86.472
X128.604Y-89.012
X128.604Y-99.172
X128.604Y-101.712
X128.604Y-104.252
X128.604Y-106.792
X128.604Y-109.332
X128.604Y-111.872
X131.144Y-76.312
X131.144Y-78.852
X131.144Y-81.392
X131.144Y-83.932
X131.144Y-86.472
X131.144Y-89.012
X131.144Y-99.172
X131.144Y-101.712
X131.144Y-104.252
X131.144Y-106.792
X131.144Y-109.332
X131.144Y-111.872
X146.13Y-76.312
X148.67Y-76.312
X151.21Y-76.312
T0
M30
